<?xml version="1.0" encoding="UTF-8" standalone="no"?>
<!-- Created with Inkscape (http://www.inkscape.org/) -->
<svg
   xmlns:dc="http://purl.org/dc/elements/1.1/"
   xmlns:cc="http://web.resource.org/cc/"
   xmlns:rdf="http://www.w3.org/1999/02/22-rdf-syntax-ns#"
   xmlns:svg="http://www.w3.org/2000/svg"
   xmlns="http://www.w3.org/2000/svg"
   xmlns:sodipodi="http://sodipodi.sourceforge.net/DTD/sodipodi-0.dtd"
   xmlns:inkscape="http://www.inkscape.org/namespaces/inkscape"
   id="svg2537"
   sodipodi:version="0.32"
   inkscape:version="0.45.1"
   width="63"
   height="92"
   version="1.0"
   sodipodi:docbase="/usr/local/share/screenlets/TodayCalendar/themes/Suse"
   sodipodi:docname="sticker.svg"
   inkscape:output_extension="org.inkscape.output.svg.inkscape">
  <metadata
     id="metadata2542">
    <rdf:RDF>
      <cc:Work
         rdf:about="">
        <dc:format>image/svg+xml</dc:format>
        <dc:type
           rdf:resource="http://purl.org/dc/dcmitype/StillImage" />
      </cc:Work>
    </rdf:RDF>
  </metadata>
  <defs
     id="defs2540" />
  <sodipodi:namedview
     inkscape:window-height="606"
     inkscape:window-width="816"
     inkscape:pageshadow="2"
     inkscape:pageopacity="0.0"
     guidetolerance="10.0"
     gridtolerance="10.0"
     objecttolerance="10.0"
     borderopacity="1.0"
     bordercolor="#666666"
     pagecolor="#ffffff"
     id="base"
     width="63px"
     height="92px"
     inkscape:zoom="0.35824168"
     inkscape:cx="372.04724"
     inkscape:cy="526.18109"
     inkscape:window-x="422"
     inkscape:window-y="228"
     inkscape:current-layer="svg2537" />
  <g
     id="g8201"
     transform="translate(-150.00001,-11)"
     inkscape:export-filename="/home/peterm/Foto's/afbeeldingen/svg/stickers7.png"
     inkscape:export-xdpi="222.11082"
     inkscape:export-ydpi="222.11082">
    <rect
       inkscape:export-ydpi="430.06262"
       inkscape:export-xdpi="430.06262"
       inkscape:export-filename="/home/peterm/Foto's/afbeeldingen/svg/capsulasvgmandriva.png"
       ry="12.633808"
       rx="30.680298"
       y="12.017333"
       x="150.67841"
       height="90.304268"
       width="61.360596"
       id="rect5309"
       style="fill:#80c342;fill-opacity:1;stroke:#006b5c;stroke-width:1.35679841;stroke-miterlimit:4;stroke-dasharray:none;stroke-opacity:1" />
    <path
       inkscape:export-ydpi="430.06262"
       inkscape:export-xdpi="430.06262"
       inkscape:export-filename="/home/peterm/Foto's/afbeeldingen/svg/capsulasvgmandriva.png"
       sodipodi:nodetypes="ccsccc"
       id="path5311"
       d="M 212.03898,75.503837 L 212.03898,89.687795 C 212.03898,96.686925 198.35557,102.32161 181.35869,102.32161 C 164.36181,102.32161 150.67839,96.686925 150.67839,89.687795 L 150.67839,75.503837 L 212.03898,75.503837 z "
       style="fill:#006b5c;fill-opacity:1;stroke:#006b5c;stroke-width:1.33700001;stroke-miterlimit:4;stroke-dasharray:none;stroke-opacity:1" />
    <path
       inkscape:export-ydpi="430.06262"
       inkscape:export-xdpi="430.06262"
       inkscape:export-filename="/home/peterm/Foto's/afbeeldingen/svg/capsulasvgmandriva.png"
       sodipodi:type="arc"
       style="fill:#ffffff;fill-opacity:1;stroke:none;stroke-width:1.80299997;stroke-miterlimit:4;stroke-dasharray:none;stroke-opacity:1"
       id="path5313"
       sodipodi:cx="191.83774"
       sodipodi:cy="167.93272"
       sodipodi:rx="71.117416"
       sodipodi:ry="71.117416"
       d="M 262.95515 167.93272 A 71.117416 71.117416 0 1 1  120.72032,167.93272 A 71.117416 71.117416 0 1 1  262.95515 167.93272 z"
       transform="matrix(0.3624195,0,0,0.3624195,111.83295,-18.745167)" />
    <text
       inkscape:export-ydpi="430.06262"
       inkscape:export-xdpi="430.06262"
       inkscape:export-filename="/home/peterm/Foto's/afbeeldingen/svg/capsulasvgmandriva.png"
       sodipodi:linespacing="125%"
       id="text5315"
       y="72.977242"
       x="154.52823"
       style="font-size:3.39017987px;font-style:normal;font-variant:normal;font-weight:bold;font-stretch:normal;text-align:start;line-height:125%;writing-mode:lr-tb;text-anchor:start;fill:#ffffff;fill-opacity:1;stroke:none;stroke-width:1px;stroke-linecap:butt;stroke-linejoin:miter;stroke-opacity:1;font-family:Bitstream Vera Sans"
       xml:space="preserve"><tspan
         y="72.977242"
         x="154.52823"
         id="tspan5317"
         sodipodi:role="line">Powered By</tspan></text>
    <g
       style="fill:#ffffff;fill-opacity:1"
       transform="matrix(0.7506911,0,0,0.7506911,-18.710714,47.129359)"
       id="g8133">
      <path
         style="fill:#ffffff;fill-opacity:1;fill-rule:evenodd"
         id="path8103"
         d="M 236.79021,43.26131 C 234.12902,43.26131 231.9695,45.322418 231.9695,47.858726 L 231.9695,49.21598 C 231.9695,51.650307 233.78192,53.349648 236.37834,53.349648 L 241.21121,53.349648 C 241.86676,53.349648 242.53197,53.743262 242.53197,54.495066 L 242.53197,55.745686 C 242.53197,56.450256 241.84529,56.886094 241.21121,56.886094 L 232.191,56.886094 L 232.191,59.024136 C 232.191,59.851085 232.8834,60.450452 233.83094,60.450452 L 241.84529,60.450452 C 244.52831,60.450452 246.70714,58.385408 246.70714,55.849815 L 246.70714,54.029885 C 246.70714,51.559418 245.11372,50.144195 242.33444,50.144195 L 237.53986,50.144195 C 236.70612,50.144195 236.14432,49.715513 236.14432,49.071774 L 236.14432,48.001501 C 236.14432,47.384242 236.86249,46.82531 237.65079,46.82531 L 245.38353,46.82531 L 245.38353,44.685121 C 245.38353,43.793047 244.86038,43.262025 243.98333,43.262025 L 236.79021,43.262025 L 236.79021,43.26131 z "
         clip-rule="evenodd" />
      <path
         style="fill:#ffffff;fill-opacity:1;fill-rule:evenodd"
         id="path8105"
         d="M 262.34079,47.554928 C 261.49237,47.554928 260.9016,48.198666 260.9016,49.121871 L 260.9016,55.421133 C 260.9016,56.230547 260.20812,56.886094 259.35684,56.886094 L 255.04676,56.886094 C 254.19619,56.886094 253.502,56.230547 253.502,55.421133 L 253.502,49.121871 C 253.502,48.22765 252.53264,47.554928 251.6674,47.554928 L 250.80431,47.554928 C 249.95589,47.554928 249.36297,48.198666 249.36297,49.121871 L 249.36297,55.673404 C 249.36297,58.772939 251.36861,60.557086 254.8589,60.557086 L 255.42284,60.557086 C 257.0524,60.557086 258.4,59.882574 259.38332,59.388051 C 259.95227,59.105722 260.40278,58.879215 260.70407,58.879215 C 260.815,58.879215 261.08266,58.900685 261.22472,59.105722 L 262.20589,60.450094 L 263.55098,60.450094 C 264.64308,60.450094 265.03848,59.575912 265.03848,58.987995 L 265.03848,49.121871 C 265.03848,48.22765 264.06912,47.554928 263.20388,47.554928 L 262.34079,47.554928 L 262.34079,47.554928 z "
         clip-rule="evenodd" />
      <path
         style="fill:#ffffff;fill-opacity:1;fill-rule:evenodd"
         id="path8107"
         d="M 272.60984,43.26131 C 269.95365,43.26131 267.78877,45.322418 267.78877,47.858726 L 267.78877,49.21598 C 267.78877,51.650307 269.60119,53.349648 272.20012,53.349648 L 277.03299,53.349648 C 277.68818,53.349648 278.35374,53.743262 278.35374,54.495066 L 278.35374,55.745686 C 278.35374,56.450256 277.6642,56.886094 277.03299,56.886094 L 268.01278,56.886094 L 268.01278,59.024136 C 268.01278,59.851085 268.70232,60.450452 269.652,60.450452 L 277.66671,60.450452 C 280.34722,60.450452 282.52606,58.385408 282.52606,55.849815 L 282.52606,54.029885 C 282.52606,51.559418 280.93263,50.144195 278.15336,50.144195 L 273.35913,50.144195 C 272.52467,50.144195 271.9661,49.715513 271.9661,49.071774 L 271.9661,48.001501 C 271.9661,47.384242 272.68176,46.82531 273.47042,46.82531 L 281.40318,46.82531 L 281.40318,44.685121 C 281.40318,43.846006 280.74763,43.262025 279.80475,43.262025 L 272.60984,43.262025 L 272.60984,43.26131 z "
         clip-rule="evenodd" />
      <path
         style="fill:#ffffff;fill-opacity:1;fill-rule:evenodd"
         id="path8109"
         d="M 290.09276,43.26131 C 287.43693,43.26131 285.26955,45.322418 285.26955,47.858726 L 285.26955,55.849457 C 285.26955,58.38505 287.43693,60.450094 290.09276,60.450094 L 296.83501,60.450094 C 297.78434,60.450094 298.47173,59.850369 298.47173,59.023779 L 298.47173,56.885737 L 290.80413,56.885737 C 289.98398,56.885737 289.40823,56.343264 289.40823,55.562476 C 289.40823,55.562476 289.40823,53.633766 289.40823,53.386146 C 289.68089,53.386146 298.59698,53.386146 298.59698,53.386146 C 299.95459,53.386146 301.05778,52.332333 301.05778,51.033048 L 301.05778,47.858726 C 301.05778,45.322418 298.89612,43.26131 296.23708,43.26131 L 290.09276,43.26131 L 290.09276,43.26131 L 290.09276,43.26131 z M 289.40787,48.109208 C 289.40787,47.398913 290.02048,46.824594 290.76727,46.824594 L 295.55935,46.824594 C 296.30972,46.824594 296.91946,47.398555 296.91946,48.109208 C 296.91946,48.109208 296.91946,49.898365 296.91946,50.143837 C 296.65467,50.143837 289.67338,50.143837 289.40823,50.143837 C 289.40787,49.898365 289.40787,48.109208 289.40787,48.109208 L 289.40787,48.109208 z "
         clip-rule="evenodd" />
    </g>
    <path
       clip-rule="evenodd"
       d="M 177.93872,49.490774 L 178.00039,49.485032 L 178.01017,49.412092 C 177.99465,49.354676 177.95722,49.303001 177.89981,48.592526 C 177.85111,47.963497 177.75244,46.23909 178.62049,45.383798 C 178.95733,45.049932 179.4711,44.753493 179.87642,44.657374 C 181.5398,44.251844 183.69865,44.532759 185.54236,46.664397 C 186.49356,47.765942 186.96076,48.268655 187.19404,48.493642 L 187.27421,48.568284 L 187.3716,48.638459 C 187.44774,48.681415 190.53993,50.10513 190.53993,50.10513 L 190.6033,50.089606 L 190.60479,50.022408 C 190.58501,49.999654 188.64498,47.493746 188.98862,45.429519 C 189.26103,43.78507 190.57034,43.932651 192.37938,44.138925 C 192.97098,44.206123 193.64446,44.283742 194.34068,44.299265 C 196.28455,44.310749 198.37876,43.954129 199.66956,43.389747 C 200.50466,43.024408 201.03756,42.783897 201.37143,42.480015 C 201.49137,42.381132 201.55452,42.217813 201.61896,42.045777 L 201.66383,41.929881 C 201.71805,41.790806 201.79674,41.492878 201.83162,41.331262 C 201.84735,41.25981 201.85436,41.182191 201.80376,41.143701 L 201.62513,41.17645 C 201.05925,41.516057 199.64234,42.163375 198.31581,42.189318 C 196.67264,42.223768 193.36077,40.536363 193.01564,40.357096 L 192.98289,40.318393 L 192.29793,38.696911 C 194.68156,40.266931 196.65818,41.134982 198.17248,41.269805 C 199.85712,41.420363 201.1709,40.500637 201.7323,40.107866 C 201.84246,40.033437 201.92582,39.973469 201.95963,39.960497 L 201.99578,39.901805 C 201.90264,39.310203 201.0214,36.445336 200.35707,35.757615 C 200.17228,35.568778 200.02469,35.385472 199.72655,35.21067 C 197.31847,33.806732 191.6015,32.958458 191.33377,32.919968 L 191.28783,32.932939 L 191.27061,32.972918 L 191.24636,34.290944 C 190.66178,34.095941 186.41722,32.725389 182.43805,32.586101 C 182.11864,32.574831 181.7886,32.56356 181.44644,32.555054 L 179.66781,32.555054 C 176.64303,32.647133 172.82909,33.306784 167.9438,36.309238 L 167.75177,36.429387 C 164.68935,38.340078 162.57515,40.695215 161.46914,43.434191 C 161.12273,44.295013 160.65553,46.23909 161.11677,48.068335 C 161.3173,48.869401 161.68839,49.671317 162.18961,50.390724 C 163.31986,52.01497 165.21822,53.093974 167.26224,53.275793 C 170.1471,53.533103 172.33318,52.236768 173.11107,49.810179 C 173.64547,48.135534 173.11107,45.678961 171.06258,44.425582 C 169.39643,43.404207 167.60292,43.637701 166.56453,44.323721 C 165.66224,44.92234 165.15081,45.850573 165.1608,46.87216 C 165.18058,48.681415 166.74082,49.644097 167.86086,49.645586 C 168.18729,49.645586 168.51392,49.589445 168.88351,49.469296 C 169.01408,49.429317 169.13849,49.38062 169.27458,49.296196 L 169.31605,49.268977 C 169.58974,49.085669 169.74433,48.801989 169.74433,48.49832 C 169.74433,48.41496 169.73136,48.330537 169.70861,48.246113 C 169.57676,47.789121 169.12403,47.51097 168.65428,47.596882 L 168.59111,47.610067 L 168.50563,47.63835 L 168.38101,47.68003 C 168.12328,47.744464 167.92827,47.748717 167.88851,47.749993 C 167.75666,47.741487 167.11062,47.548185 167.11062,46.840687 C 167.11211,46.572744 167.21652,46.390712 167.27394,46.291828 C 167.4732,45.976888 168.02333,45.667265 168.76677,45.733188 C 169.74114,45.816335 170.44269,46.316496 170.9084,47.258976 C 171.34094,48.135534 171.2278,49.212623 170.61749,50.003269 C 170.01164,50.787109 168.93285,51.119699 167.49744,50.963399 C 166.05054,50.804547 164.82737,49.972222 164.14262,48.675886 C 163.47233,47.409322 163.43491,45.906713 164.04671,44.752218 C 165.51211,41.98751 168.2783,42.016006 169.79516,42.278208 C 172.04142,42.666512 174.0797,44.464072 174.98667,46.854935 C 175.13148,47.236009 175.20591,47.53819 175.27034,47.813151 L 175.36774,48.226974 L 177.9047,49.466106 L 177.93872,49.490774 L 177.93872,49.490774 L 177.93872,49.490774 z M 195.97088,35.996425 C 195.49241,36.440658 195.21894,37.046507 195.19598,37.699779 C 195.15132,39.046088 196.20884,40.180806 197.55515,40.230993 C 198.2114,40.252471 198.83278,40.021742 199.30975,39.574744 C 199.78674,39.129448 200.06021,38.524661 200.08509,37.873091 C 200.13081,36.525294 199.0735,35.389087 197.724,35.340389 C 197.07094,35.318911 196.44787,35.54964 195.97088,35.996425 L 195.97088,35.996425 L 195.97088,35.996425 z M 197.98386,37.926042 C 198.40172,37.926042 198.74133,37.699991 198.74133,37.421841 C 198.74133,37.142627 198.40172,36.916151 197.98386,36.916151 C 197.56515,36.916151 197.22724,37.142627 197.22724,37.421841 C 197.22724,37.699991 197.56515,37.926042 197.98386,37.926042 L 197.98386,37.926042 L 197.98386,37.926042 z M 197.5879,39.47182 C 196.64797,39.437157 195.9107,38.645236 195.94196,37.704032 C 195.95621,37.248316 196.15122,36.827262 196.48232,36.516362 C 196.81469,36.205676 197.24851,36.043633 197.70422,36.060859 C 198.64543,36.09382 199.38312,36.884678 199.35144,37.826946 C 199.3374,38.281386 199.14537,38.70244 198.81321,39.014615 C 198.47892,39.324238 198.04489,39.486068 197.5879,39.47182 L 197.5879,39.47182 z "
       id="path8113"
       style="fill:#80c342;fill-rule:evenodd" />
  </g>
</svg>
