<?xml version="1.0" encoding="UTF-8" standalone="no"?>
<!-- Created with Inkscape (http://www.inkscape.org/) -->
<svg
   xmlns:dc="http://purl.org/dc/elements/1.1/"
   xmlns:cc="http://web.resource.org/cc/"
   xmlns:rdf="http://www.w3.org/1999/02/22-rdf-syntax-ns#"
   xmlns:svg="http://www.w3.org/2000/svg"
   xmlns="http://www.w3.org/2000/svg"
   xmlns:xlink="http://www.w3.org/1999/xlink"
   xmlns:sodipodi="http://sodipodi.sourceforge.net/DTD/sodipodi-0.dtd"
   xmlns:inkscape="http://www.inkscape.org/namespaces/inkscape"
   id="svg2537"
   sodipodi:version="0.32"
   inkscape:version="0.45.1"
   width="63"
   height="92"
   version="1.0"
   sodipodi:docbase="/usr/local/share/screenlets/TodayCalendar/themes/Slackware"
   sodipodi:docname="sticker.svg"
   inkscape:output_extension="org.inkscape.output.svg.inkscape">
  <metadata
     id="metadata2542">
    <rdf:RDF>
      <cc:Work
         rdf:about="">
        <dc:format>image/svg+xml</dc:format>
        <dc:type
           rdf:resource="http://purl.org/dc/dcmitype/StillImage" />
      </cc:Work>
    </rdf:RDF>
  </metadata>
  <defs
     id="defs2540">
    <radialGradient
       r="218.02184"
       fy="590.5899"
       fx="332.72311"
       cy="590.5899"
       cx="332.72311"
       gradientTransform="matrix(-6.60395e-2,4.190266,-3.573754,-5.626827e-2,2168.154,-1171.421)"
       gradientUnits="userSpaceOnUse"
       id="radialGradient3228"
       xlink:href="#linearGradient3004"
       inkscape:collect="always" />
    <radialGradient
       gradientUnits="userSpaceOnUse"
       gradientTransform="matrix(3.287367,0,0,2.519654,111.6891,-642.7214)"
       r="31.94874"
       fy="320.08572"
       fx="49.529819"
       cy="320.08572"
       cx="49.529819"
       id="radialGradient5851"
       xlink:href="#linearGradient3004"
       inkscape:collect="always" />
    <linearGradient
       gradientTransform="matrix(1.237124,0,0,1.237124,-161.0905,-377.3414)"
       gradientUnits="userSpaceOnUse"
       y2="269.70941"
       x2="368.62137"
       y1="697.43707"
       x1="464.01675"
       id="linearGradient2986"
       xlink:href="#linearGradient3004"
       inkscape:collect="always" />
    <linearGradient
       id="linearGradient3004">
      <stop
         style="stop-color:#ffffff;stop-opacity:1;"
         offset="0"
         id="stop3006" />
      <stop
         id="stop7609"
         offset="0.34214258"
         style="stop-color:#ffffff;stop-opacity:1;" />
      <stop
         id="stop7599"
         offset="0.51998252"
         style="stop-color:#bebdf3;stop-opacity:1;" />
      <stop
         style="stop-color:#8f82f9;stop-opacity:1;"
         offset="0.75408828"
         id="stop7611" />
      <stop
         id="stop7613"
         offset="0.8711412"
         style="stop-color:#9f99c7;stop-opacity:1;" />
      <stop
         style="stop-color:#524c76;stop-opacity:1;"
         offset="1"
         id="stop3008" />
    </linearGradient>
    <linearGradient
       gradientTransform="matrix(1.237124,0,0,1.237124,-1037.425,-1010.413)"
       gradientUnits="userSpaceOnUse"
       y2="1340.5599"
       x2="1099.6853"
       y1="-313.5238"
       x1="783.86316"
       id="linearGradient2994"
       xlink:href="#linearGradient3004"
       inkscape:collect="always" />
    <linearGradient
       inkscape:collect="always"
       xlink:href="#linearGradient5721"
       id="linearGradient2589"
       gradientUnits="userSpaceOnUse"
       gradientTransform="matrix(0.8197142,0,0,0.8197142,23.251685,214.36833)"
       x1="43.250000"
       y1="20.000000"
       x2="40.875000"
       y2="28.625000" />
    <linearGradient
       id="linearGradient8716">
      <stop
         id="stop8718"
         offset="0.0000000"
         style="stop-color:#a4bfda;stop-opacity:1.0000000;" />
      <stop
         id="stop8720"
         offset="1.0000000"
         style="stop-color:#387cbf;stop-opacity:1.0000000;" />
    </linearGradient>
    <radialGradient
       inkscape:collect="always"
       xlink:href="#linearGradient8716"
       id="radialGradient2587"
       gradientUnits="userSpaceOnUse"
       gradientTransform="matrix(-0.5812577,0.791239,-0.4891194,-0.3593168,55.206284,216.84704)"
       cx="16.380457"
       cy="17.796696"
       fx="16.380457"
       fy="17.796696"
       r="17.033163" />
    <linearGradient
       id="linearGradient2882">
      <stop
         id="stop2884"
         offset="0.0000000"
         style="stop-color:#f2f9ff;stop-opacity:1.0000000;" />
      <stop
         id="stop2886"
         offset="1.0000000"
         style="stop-color:#91afcb;stop-opacity:1.0000000" />
    </linearGradient>
    <linearGradient
       inkscape:collect="always"
       xlink:href="#linearGradient2882"
       id="linearGradient2585"
       gradientUnits="userSpaceOnUse"
       gradientTransform="matrix(0.8197142,0,0,0.8197142,23.251685,214.36833)"
       x1="21.000000"
       y1="46.714287"
       x2="21.000000"
       y2="5.9534397" />
    <linearGradient
       id="linearGradient5721">
      <stop
         style="stop-color:#9c9c9c;stop-opacity:1.0000000;"
         offset="0.0000000"
         id="stop5723" />
      <stop
         style="stop-color:#000000;stop-opacity:0;"
         offset="1"
         id="stop5725" />
    </linearGradient>
    <radialGradient
       inkscape:collect="always"
       xlink:href="#linearGradient5721"
       id="radialGradient2583"
       gradientUnits="userSpaceOnUse"
       gradientTransform="matrix(0.943831,0,0,0.166667,1.032663,33.81282)"
       cx="18.384777"
       cy="40.575378"
       fx="18.384777"
       fy="40.575378"
       r="21.213203" />
  </defs>
  <sodipodi:namedview
     inkscape:window-height="606"
     inkscape:window-width="816"
     inkscape:pageshadow="2"
     inkscape:pageopacity="0.0"
     guidetolerance="10.0"
     gridtolerance="10.0"
     objecttolerance="10.0"
     borderopacity="1.0"
     bordercolor="#666666"
     pagecolor="#ffffff"
     id="base"
     width="63px"
     height="92px"
     inkscape:zoom="0.35824168"
     inkscape:cx="372.04724"
     inkscape:cy="526.18109"
     inkscape:window-x="678"
     inkscape:window-y="147"
     inkscape:current-layer="svg2537" />
  <g
     id="g2426"
     inkscape:export-filename="/home/peterm/Foto's/afbeeldingen/svg/stickers7.png"
     inkscape:export-xdpi="222"
     inkscape:export-ydpi="222"
     transform="translate(-150.00001,-206)">
    <path
       id="rect4721"
       d="M 181.3587,207.01733 C 198.35559,207.01733 212.039,212.65201 212.039,219.65114 L 212.039,284.68779 C 212.039,291.68692 198.35559,297.3216 181.3587,297.3216 C 164.36182,297.3216 150.67841,291.68692 150.67841,284.68779 L 150.67841,219.65114 C 150.67841,212.65201 164.36182,207.01733 181.3587,207.01733 z "
       style="fill:#9955ff;fill-opacity:1;stroke:#1f1f1f;stroke-width:1.35679841;stroke-miterlimit:4;stroke-opacity:1" />
    <path
       id="path4723"
       d="M 212.03897,270.50383 L 212.03897,284.68778 C 212.03897,291.68691 198.35556,297.3216 181.35868,297.3216 C 164.3618,297.3216 150.67838,291.68691 150.67838,284.68778 L 150.67838,270.50383 L 212.03897,270.50383 z "
       style="fill:#1f1f1f;fill-opacity:1;stroke:#1f1f1f;stroke-width:1.33700001;stroke-miterlimit:4;stroke-opacity:1" />
    <path
       id="path4725"
       d="M 207.13301,237.11691 C 207.13301,251.34435 195.58611,262.89125 181.35868,262.89125 C 167.13124,262.89125 155.58434,251.34435 155.58434,237.11691 C 155.58434,222.88948 167.13124,211.34258 181.35868,211.34258 C 195.58611,211.34258 207.13301,222.88948 207.13301,237.11691 z "
       style="fill:#ffffff;fill-opacity:1;stroke:none;stroke-width:1.80299997;stroke-miterlimit:4;stroke-opacity:1" />
    <path
       id="text4727"
       d="M 154.83944,265.50578 L 155.89721,265.50578 C 156.21173,265.50578 156.45286,265.57586 156.62061,265.71601 C 156.78945,265.85506 156.87387,266.05371 156.87388,266.31194 C 156.87387,266.57128 156.78945,266.77103 156.62061,266.91118 C 156.45286,267.05023 156.21173,267.11976 155.89721,267.11976 L 155.47675,267.11976 L 155.47675,267.97723 L 154.83944,267.97723 L 154.83944,265.50578 M 155.47675,265.96763 L 155.47675,266.65791 L 155.82934,266.65791 C 155.95294,266.65791 156.0484,266.62812 156.11572,266.56852 C 156.18304,266.50783 156.2167,266.4223 156.2167,266.31194 C 156.2167,266.20158 156.18304,266.11661 156.11572,266.05701 C 156.0484,265.99742 155.95294,265.96763 155.82934,265.96763 L 155.47675,265.96763 M 158.1783,266.50231 C 158.04697,266.50231 157.94655,266.54976 157.87702,266.64467 C 157.8086,266.73847 157.77439,266.87421 157.77439,267.05189 C 157.77439,267.22956 157.8086,267.36585 157.87702,267.46076 C 157.94655,267.55457 158.04697,267.60147 158.1783,267.60147 C 158.30742,267.60147 158.40619,267.55457 158.47461,267.46076 C 158.54303,267.36585 158.57724,267.22956 158.57724,267.05189 C 158.57724,266.87421 158.54303,266.73847 158.47461,266.64467 C 158.40619,266.54976 158.30742,266.50231 158.1783,266.50231 M 158.1783,266.07853 C 158.49723,266.07854 158.74609,266.16462 158.92487,266.33677 C 159.10475,266.50893 159.19469,266.7473 159.19469,267.05189 C 159.19469,267.35647 159.10475,267.59485 158.92487,267.767 C 158.74609,267.93916 158.49723,268.02524 158.1783,268.02524 C 157.85826,268.02524 157.60775,267.93916 157.42677,267.767 C 157.24688,267.59485 157.15694,267.35647 157.15694,267.05189 C 157.15694,266.7473 157.24688,266.50893 157.42677,266.33677 C 157.60775,266.16462 157.85826,266.07854 158.1783,266.07853 M 159.46121,266.12323 L 160.03727,266.12323 L 160.34848,267.40117 L 160.66134,266.12323 L 161.1563,266.12323 L 161.4675,267.38793 L 161.78037,266.12323 L 162.35643,266.12323 L 161.8681,267.97723 L 161.22085,267.97723 L 160.90799,266.70261 L 160.59678,267.97723 L 159.94954,267.97723 L 159.46121,266.12323 M 164.60938,267.04527 L 164.60938,267.21411 L 163.22384,267.21411 C 163.23819,267.35316 163.2884,267.45745 163.37448,267.52698 C 163.46056,267.5965 163.58085,267.63126 163.73535,267.63126 C 163.86005,267.63126 163.98751,267.61305 164.11774,267.57664 C 164.24906,267.53912 164.3837,267.48283 164.52164,267.40779 L 164.52164,267.86467 C 164.38149,267.91764 164.24134,267.95737 164.10118,267.98386 C 163.96103,268.01144 163.82087,268.02524 163.68072,268.02524 C 163.34523,268.02524 163.08424,267.94026 162.89774,267.77031 C 162.71233,267.59926 162.61963,267.35978 162.61963,267.05189 C 162.61963,266.74951 162.71068,266.51169 162.89277,266.33843 C 163.07596,266.16517 163.32758,266.07854 163.64761,266.07853 C 163.93896,266.07854 164.17181,266.16627 164.34618,266.34174 C 164.52164,266.51721 164.60938,266.75172 164.60938,267.04527 M 164.00021,266.84828 C 164.0002,266.73571 163.9671,266.64522 163.90088,266.5768 C 163.83577,266.50727 163.75025,266.47251 163.6443,266.47251 C 163.52953,266.47251 163.43628,266.50507 163.36455,266.57018 C 163.29281,266.63419 163.24812,266.72689 163.23046,266.84828 L 164.00021,266.84828 M 166.43359,266.62811 C 166.38172,266.60384 166.32985,266.58618 166.27798,266.57514 C 166.22722,266.563 166.1759,266.55694 166.12403,266.55693 C 165.97174,266.55694 165.85421,266.60604 165.77144,266.70426 C 165.68978,266.80138 165.64895,266.94098 165.64895,267.12307 L 165.64895,267.97723 L 165.05633,267.97723 L 165.05633,266.12323 L 165.64895,266.12323 L 165.64895,266.42782 C 165.72509,266.30642 165.81227,266.21814 165.91049,266.16296 C 166.00981,266.10668 166.12845,266.07854 166.2664,266.07853 C 166.28626,266.07854 166.30778,266.07964 166.33095,266.08185 C 166.35413,266.08295 166.38779,266.08626 166.43193,266.09178 L 166.43359,266.62811 M 168.58225,267.04527 L 168.58225,267.21411 L 167.19671,267.21411 C 167.21105,267.35316 167.26127,267.45745 167.34735,267.52698 C 167.43342,267.5965 167.55371,267.63126 167.70822,267.63126 C 167.83292,267.63126 167.96038,267.61305 168.0906,267.57664 C 168.22193,267.53912 168.35656,267.48283 168.49451,267.40779 L 168.49451,267.86467 C 168.35436,267.91764 168.2142,267.95737 168.07405,267.98386 C 167.93389,268.01144 167.79374,268.02524 167.65359,268.02524 C 167.3181,268.02524 167.05711,267.94026 166.8706,267.77031 C 166.6852,267.59926 166.5925,267.35978 166.5925,267.05189 C 166.5925,266.74951 166.68355,266.51169 166.86564,266.33843 C 167.04883,266.16517 167.30044,266.07854 167.62048,266.07853 C 167.91182,266.07854 168.14468,266.16627 168.31904,266.34174 C 168.49451,266.51721 168.58224,266.75172 168.58225,267.04527 M 167.97307,266.84828 C 167.97307,266.73571 167.93996,266.64522 167.87375,266.5768 C 167.80864,266.50727 167.72311,266.47251 167.61717,266.47251 C 167.5024,266.47251 167.40915,266.50507 167.33741,266.57018 C 167.26568,266.63419 167.22099,266.72689 167.20333,266.84828 L 167.97307,266.84828 M 170.29058,266.39471 L 170.29058,265.40149 L 170.88651,265.40149 L 170.88651,267.97723 L 170.29058,267.97723 L 170.29058,267.70907 C 170.20891,267.81832 170.11897,267.89833 170.02076,267.94909 C 169.92254,267.99986 169.80887,268.02524 169.67975,268.02524 C 169.45131,268.02524 169.2637,267.93475 169.11693,267.75376 C 168.97015,267.57167 168.89676,267.33771 168.89676,267.05189 C 168.89676,266.76606 168.97015,266.53266 169.11693,266.35167 C 169.2637,266.16958 169.45131,266.07854 169.67975,266.07853 C 169.80776,266.07854 169.92088,266.10447 170.0191,266.15634 C 170.11842,266.2071 170.20891,266.28656 170.29058,266.39471 M 169.89991,267.59485 C 170.02682,267.59485 170.12339,267.5485 170.1896,267.4558 C 170.25692,267.3631 170.29058,267.22846 170.29058,267.05189 C 170.29058,266.87532 170.25692,266.74068 170.1896,266.64798 C 170.12339,266.55528 170.02682,266.50893 169.89991,266.50893 C 169.77411,266.50893 169.67754,266.55528 169.61023,266.64798 C 169.54401,266.74068 169.5109,266.87532 169.5109,267.05189 C 169.5109,267.22846 169.54401,267.3631 169.61023,267.4558 C 169.67754,267.5485 169.77411,267.59485 169.89991,267.59485 M 173.65427,266.46258 C 173.7547,266.46258 173.83084,266.44051 173.88271,266.39636 C 173.93458,266.35222 173.96051,266.28711 173.96051,266.20103 C 173.96051,266.11606 173.93458,266.0515 173.88271,266.00735 C 173.83084,265.96211 173.7547,265.93949 173.65427,265.93948 L 173.30168,265.93948 L 173.30168,266.46258 L 173.65427,266.46258 M 173.67579,267.54353 C 173.80381,267.54353 173.89982,267.51649 173.96383,267.46242 C 174.02893,267.40834 174.06149,267.32668 174.06149,267.21742 C 174.06149,267.11038 174.02949,267.03037 173.96548,266.9774 C 173.90147,266.92332 173.80491,266.89628 173.67579,266.89628 L 173.30168,266.89628 L 173.30168,267.54353 L 173.67579,267.54353 M 174.26841,266.6546 C 174.40525,266.69433 174.5112,266.76772 174.58624,266.87476 C 174.66128,266.98181 174.6988,267.11314 174.69881,267.26874 C 174.6988,267.50711 174.61824,267.68479 174.45712,267.80177 C 174.296,267.91874 174.05101,267.97723 173.72214,267.97723 L 172.66437,267.97723 L 172.66437,265.50578 L 173.62117,265.50578 C 173.96438,265.50578 174.21268,265.55765 174.36608,265.66138 C 174.52058,265.76512 174.59783,265.93121 174.59783,266.15965 C 174.59783,266.27994 174.56969,266.38257 174.51341,266.46754 C 174.45712,266.55142 174.37546,266.61377 174.26841,266.6546 M 174.97691,266.12323 L 175.56953,266.12323 L 176.06779,267.3813 L 176.49156,266.12323 L 177.08418,266.12323 L 176.30451,268.1527 C 176.22615,268.35907 176.13455,268.50309 176.02972,268.58475 C 175.92598,268.66752 175.78858,268.7089 175.61753,268.7089 L 175.27487,268.7089 L 175.27487,268.31989 L 175.46027,268.31989 C 175.5607,268.31989 175.63353,268.30389 175.67878,268.27189 C 175.72513,268.23988 175.76099,268.1825 175.78638,268.09973 L 175.80293,268.04841 L 174.97691,266.12323"
       style="font-size:3.39017987px;font-style:normal;font-variant:normal;font-weight:bold;font-stretch:normal;text-align:start;line-height:125%;writing-mode:lr-tb;text-anchor:start;fill:#ffffff;fill-opacity:1;stroke:none;stroke-width:1px;stroke-linecap:butt;stroke-linejoin:miter;stroke-opacity:1;font-family:Bitstream Vera Sans" />
    <path
       id="text1340"
       d="M 180.479,238.7782 C 180.479,237.62397 180.43283,237.16227 180.15581,236.83909 C 179.83263,236.14655 179.00158,235.77719 178.17053,235.77719 C 177.29331,235.77719 176.83162,236.14655 176.36993,237.30078 C 174.754,236.28506 172.72255,235.77719 170.36791,235.77719 C 164.64292,235.77719 160.34917,239.28607 160.34917,243.94917 C 160.34917,246.58081 161.68808,249.1663 164.08889,250.41287 C 165.61247,251.24392 167.04373,251.79795 170.04473,252.25964 C 173.18424,252.72134 173.96912,252.99835 174.98485,253.50622 C 176.00057,254.01408 176.60077,254.98364 176.60077,255.99936 C 176.60077,257.98464 173.92295,259.46206 170.50642,259.46206 C 167.41308,259.46206 164.55058,258.12315 164.04272,256.46105 C 163.67336,255.21448 163.67336,255.21448 163.30401,254.93746 C 162.98082,254.47577 162.33445,254.24492 161.64191,254.24492 C 160.94937,254.24492 160.21066,254.56811 159.84131,255.21448 C 159.42578,255.63 159.33345,256.13787 159.33345,257.2921 L 159.33345,260.38545 C 159.33345,262.41689 160.11833,263.43262 161.68808,263.43262 C 162.47296,263.43262 162.79615,263.24794 163.58102,262.32456 C 165.79715,263.52496 168.2903,264.2175 170.78344,264.2175 C 177.24714,264.2175 181.44855,260.8933 181.44855,256.04553 C 181.44855,253.64473 180.57133,251.79795 178.72456,250.22819 C 177.29332,249.1663 175.49271,248.42759 171.47598,247.68888 C 167.96711,247.04251 167.78243,246.95017 166.81288,246.39614 C 165.79715,245.98062 165.10461,244.87255 165.10461,243.903 C 165.10461,241.91772 167.41308,240.34796 170.36791,240.34796 C 173.18424,240.34796 175.44654,241.59453 175.86206,243.48747 C 176.23142,244.96489 176.23142,244.96489 176.50844,245.33424 C 176.92396,245.74977 177.57033,246.02678 178.17053,246.02678 C 178.90924,246.02678 179.60178,245.7036 180.06347,245.05723 C 180.38666,244.59554 180.479,244.22618 180.479,242.93344 L 180.479,238.7782"
       style="font-size:46.16932678px;font-style:normal;font-variant:normal;font-weight:bold;font-stretch:normal;text-align:start;line-height:125%;writing-mode:lr-tb;text-anchor:start;opacity:0.87684727;fill:#000000;fill-opacity:1;stroke:none;stroke-width:1.46800005;stroke-linecap:butt;stroke-linejoin:miter;stroke-miterlimit:4;stroke-opacity:1;display:inline;font-family:Courier"
       transform="scale(1.0739115,0.9311754)" />
    <path
       id="path1348"
       d="M 165.49421,240.58342 C 164.62246,240.66239 163.93701,241.18563 163.87009,241.81992 C 163.8676,241.84834 163.87009,241.88917 163.87009,241.91806 L 163.87009,250.98574 C 163.87009,251.01462 163.8676,251.05547 163.87009,251.08388 C 163.87129,251.0952 163.86852,251.1119 163.87009,251.12313 C 163.87073,251.12763 163.86941,251.13828 163.87009,251.14275 C 163.86099,251.24017 163.87009,251.35511 163.87009,251.45679 C 163.87009,252.5244 164.3934,253.37317 165.04618,253.39987 C 165.05137,253.39997 165.05963,253.39987 165.06484,253.39987 L 196.05339,253.39987 C 196.07424,253.39987 196.10747,253.40154 196.12806,253.39987 C 196.75892,253.33528 197.2668,252.49898 197.2668,251.45679 C 197.2668,250.41461 196.75892,249.55867 196.12806,249.49409 C 196.10747,249.4924 196.07424,249.49409 196.05339,249.49409 L 167.585,249.49409 L 167.585,241.91806 C 167.585,241.88917 167.58748,241.84834 167.585,241.81992 C 167.5121,241.129 166.70142,240.58342 165.71822,240.58342 C 165.63762,240.58342 165.57204,240.57637 165.49421,240.58342 z "
       style="opacity:0.87684727;fill:#000000;fill-opacity:1;fill-rule:nonzero;stroke:none;stroke-width:1.46800005;stroke-linecap:round;stroke-linejoin:round;stroke-miterlimit:4;stroke-dashoffset:0;stroke-opacity:1;display:inline" />
    <path
       id="text6446"
       d="M 156.47923,279.91749 C 156.62022,280.1561 156.75037,280.25371 156.99982,280.25371 C 157.16251,280.25371 157.33604,280.16695 157.45534,280.04764 C 157.52042,279.92834 157.54211,279.80904 157.54211,279.53789 L 157.54211,279.14745 C 157.54211,278.62685 157.39027,278.40993 157.03236,278.40993 C 156.86967,278.40993 156.75037,278.4967 156.68529,278.69192 C 156.25146,278.50755 155.80679,278.40993 155.28619,278.40993 C 153.96301,278.40993 153.01943,279.02814 153.01943,279.90665 C 153.01943,280.77431 153.67018,281.20814 155.19943,281.38167 C 155.7851,281.42505 156.03455,281.47928 156.19724,281.56605 C 156.425,281.64197 156.57684,281.79381 156.57684,281.9348 C 156.57684,282.18425 156.00201,282.41202 155.29704,282.41202 C 154.71137,282.41202 154.25585,282.26018 153.94132,281.97819 C 153.83286,281.65281 153.67018,281.50097 153.37734,281.50097 C 153.19296,281.50097 153.03028,281.57689 152.93266,281.73958 C 152.8459,281.83719 152.82421,281.9348 152.82421,282.22764 L 152.82421,282.59639 C 152.82421,282.86754 152.8459,282.9543 152.90013,283.05192 C 152.99774,283.23629 153.17127,283.31221 153.37734,283.31221 C 153.51834,283.31221 153.59426,283.27968 153.73525,283.19291 C 154.16908,283.38813 154.72221,283.50744 155.32958,283.50744 C 156.73952,283.50744 157.78072,282.86754 157.78072,281.95649 C 157.78072,281.45759 157.48788,280.98038 157.01067,280.72008 C 156.68529,280.54655 156.24062,280.42724 155.42719,280.31879 C 154.72221,280.21033 154.65714,280.19948 154.5053,280.14525 C 154.33177,280.08018 154.21246,279.99341 154.21246,279.87411 C 154.21246,279.70058 154.74391,279.50535 155.29704,279.50535 C 155.76341,279.50535 156.12132,279.60297 156.425,279.80904 L 156.47923,279.91749 M 162.34254,276.52277 L 160.40115,276.52277 C 160.13001,276.52277 160.02155,276.52277 159.93478,276.58785 C 159.76125,276.68546 159.67449,276.85899 159.67449,277.06506 C 159.67449,277.22775 159.73956,277.41212 159.90225,277.48805 C 159.99986,277.5965 160.13001,277.5965 160.40115,277.5965 L 161.24712,277.5965 L 161.24712,282.22764 L 159.91309,282.22764 C 159.64195,282.22764 159.56603,282.22764 159.46842,282.3144 C 159.31658,282.41202 159.19727,282.59639 159.19727,282.78077 C 159.19727,282.94346 159.29488,283.10614 159.43588,283.22545 C 159.5118,283.30137 159.67449,283.32306 159.91309,283.32306 L 163.67657,283.32306 C 163.89348,283.32306 164.05617,283.30137 164.14293,283.24714 C 164.29477,283.13868 164.39239,282.96515 164.39239,282.78077 C 164.39239,282.60724 164.30562,282.44455 164.16463,282.3361 C 164.05617,282.24933 163.98025,282.22764 163.67657,282.22764 L 162.34254,282.22764 L 162.34254,276.52277 M 169.25789,283.32306 L 170.53769,283.32306 C 170.75461,283.32306 170.91729,283.30137 170.99321,283.24714 C 171.1559,283.13868 171.26436,282.96515 171.26436,282.78077 C 171.26436,282.60724 171.17759,282.44455 171.04744,282.3361 C 170.92814,282.24933 170.83053,282.22764 170.53769,282.22764 L 170.36416,282.22764 L 170.36416,280.02595 C 170.36416,279.02814 169.55073,278.40993 168.2167,278.40993 C 167.66357,278.40993 166.85014,278.56177 166.32954,278.73531 C 166.12347,278.82207 166.00417,278.96307 166.00417,279.21252 C 166.00417,279.50535 166.23193,279.76565 166.5573,279.76565 C 166.63322,279.76565 166.78506,279.73312 166.96944,279.70058 C 167.47919,279.55958 167.89133,279.50535 168.24924,279.50535 C 168.94336,279.50535 169.25789,279.66804 169.25789,280.04764 L 169.25789,280.28625 C 168.81322,280.21033 168.477,280.17779 168.12993,280.17779 C 167.15382,280.17779 166.40546,280.45978 165.90656,281.01291 C 165.64626,281.31659 165.48357,281.67451 165.48357,282.03241 C 165.48357,282.835 166.37292,283.50744 167.44665,283.50744 C 168.0974,283.50744 168.7373,283.34475 169.25789,283.07361 L 169.25789,283.32306 M 169.29043,281.84804 C 168.67222,282.21679 168.06486,282.41202 167.47919,282.41202 C 167.00198,282.41202 166.63322,282.21679 166.63322,281.97819 C 166.63322,281.56605 167.3165,281.1756 168.06486,281.1756 C 168.43361,281.1756 168.84575,281.22983 169.29043,281.3166 L 169.29043,281.84804 M 177.42051,279.14745 C 177.42051,278.62685 177.25782,278.40993 176.89991,278.40993 C 176.67215,278.40993 176.55285,278.51839 176.48777,278.73531 C 176.05394,278.51839 175.54419,278.40993 174.89345,278.40993 C 173.26659,278.40993 172.10609,279.50536 172.10609,281.04545 C 172.10609,281.73958 172.35554,282.3144 172.78937,282.74823 C 173.32081,283.26883 173.99325,283.50744 175.05613,283.50744 C 175.85872,283.50744 176.55285,283.36644 176.99752,283.13868 C 177.4422,282.93261 177.71334,282.63978 177.71334,282.35779 C 177.71334,282.05411 177.4422,281.79381 177.14936,281.79381 C 177.01921,281.79381 176.9216,281.83719 176.82399,281.9348 C 176.542,282.15172 176.48777,282.1951 176.26001,282.26018 C 176.01056,282.35779 175.56588,282.41202 175.12121,282.41202 C 173.87395,282.41202 173.21235,281.95649 173.21235,281.04545 C 173.21235,280.655 173.35335,280.25371 173.64618,279.97172 C 173.94987,279.64635 174.35116,279.50535 174.89345,279.50535 C 175.39235,279.50535 175.79364,279.60297 176.06479,279.7765 C 176.20578,279.87411 176.26001,279.97172 176.31424,280.16695 C 176.37931,280.40555 176.41185,280.47063 176.48777,280.54655 C 176.57454,280.62247 176.73722,280.68754 176.86737,280.68754 C 177.05175,280.68754 177.21444,280.61162 177.33374,280.45978 C 177.39881,280.36217 177.42051,280.25371 177.42051,279.97172 L 177.42051,279.14745 M 180.37716,281.53351 L 180.58323,281.38167 L 181.71119,282.37948 C 181.57019,282.52047 181.52681,282.62893 181.52681,282.78077 C 181.52681,283.13868 181.77626,283.32306 182.24263,283.32306 L 183.53327,283.32306 C 183.76103,283.32306 183.91287,283.30137 183.99964,283.24714 C 184.16233,283.13868 184.27078,282.96515 184.27078,282.78077 C 184.27078,282.60724 184.18402,282.44455 184.03218,282.3361 C 183.92372,282.24933 183.83695,282.22764 183.53327,282.22764 L 183.17536,282.22764 L 181.4292,280.68754 L 182.709,279.64635 L 183.02352,279.64635 C 183.28382,279.64635 183.40312,279.61381 183.48989,279.58128 C 183.65258,279.46197 183.73934,279.28844 183.73934,279.10406 C 183.73934,278.91968 183.66342,278.76784 183.52243,278.64854 C 183.40312,278.59431 183.29467,278.56177 183.02352,278.56177 L 181.79795,278.56177 C 181.5485,278.56177 181.39666,278.59431 181.33159,278.62685 C 181.15805,278.73531 181.07129,278.91968 181.07129,279.10406 C 181.07129,279.2559 181.10382,279.34267 181.24482,279.50535 L 180.37716,280.19948 L 180.37716,276.52277 L 179.1299,276.52277 C 178.85875,276.52277 178.7503,276.52277 178.65269,276.58785 C 178.49,276.68546 178.39239,276.86984 178.39239,277.06506 C 178.39239,277.22775 178.49,277.41212 178.6093,277.50974 C 178.71776,277.5965 178.83706,277.5965 179.1299,277.5965 L 179.29258,277.5965 L 179.29258,282.22764 L 179.1299,282.22764 C 178.83706,282.22764 178.7503,282.22764 178.65269,282.3144 C 178.49,282.41202 178.39239,282.59639 178.39239,282.78077 C 178.39239,283.13868 178.63099,283.32306 179.1299,283.32306 L 180.37716,283.32306 L 180.37716,281.53351 M 187.81311,281.34913 L 188.60485,283.32306 L 189.60265,283.32306 L 190.52454,279.61381 C 190.88245,279.61381 191.07768,279.41859 191.07768,279.10406 C 191.07768,278.91968 191.00176,278.76784 190.86076,278.64854 C 190.7523,278.59431 190.64385,278.56177 190.3727,278.56177 L 189.34236,278.56177 C 189.12544,278.56177 188.94106,278.59431 188.86514,278.65939 C 188.7133,278.76784 188.62654,278.94138 188.62654,279.10406 C 188.62654,279.2559 188.7133,279.44028 188.86514,279.53789 C 188.95191,279.61381 189.06037,279.61381 189.34236,279.61381 L 189.42912,279.61381 L 188.98445,281.3166 L 188.32286,279.58128 L 187.35758,279.58128 L 186.70684,281.3166 L 186.28386,279.61381 C 186.54415,279.61381 186.64176,279.61381 186.72853,279.55958 C 186.88037,279.46197 186.98883,279.28844 186.98883,279.10406 C 186.98883,278.91968 186.89122,278.76784 186.77191,278.64854 C 186.65261,278.59431 186.54415,278.56177 186.26216,278.56177 L 185.25351,278.56177 C 185.16674,278.56177 185.1559,278.56177 185.02575,278.59431 C 184.72207,278.616 184.53769,278.81123 184.53769,279.10406 C 184.53769,279.41859 184.7546,279.61381 185.11251,279.61381 L 186.06694,283.32306 L 187.08644,283.32306 L 187.81311,281.34913 M 195.27075,283.32306 L 196.55055,283.32306 C 196.76746,283.32306 196.93015,283.30137 197.00607,283.24714 C 197.16875,283.13868 197.27721,282.96515 197.27721,282.78077 C 197.27721,282.60724 197.19045,282.44455 197.0603,282.3361 C 196.94099,282.24933 196.84338,282.22764 196.55055,282.22764 L 196.37701,282.22764 L 196.37701,280.02595 C 196.37701,279.02814 195.56358,278.40993 194.22956,278.40993 C 193.67642,278.40993 192.86299,278.56177 192.3424,278.73531 C 192.13633,278.82207 192.01702,278.96307 192.01702,279.21252 C 192.01702,279.50535 192.24478,279.76565 192.57016,279.76565 C 192.64608,279.76565 192.79792,279.73312 192.98229,279.70058 C 193.49204,279.55958 193.90418,279.50535 194.26209,279.50535 C 194.95622,279.50535 195.27075,279.66804 195.27075,280.04764 L 195.27075,280.28625 C 194.82607,280.21033 194.48985,280.17779 194.14279,280.17779 C 193.16667,280.17779 192.41831,280.45978 191.91941,281.01291 C 191.65911,281.31659 191.49643,281.67451 191.49643,282.03241 C 191.49643,282.835 192.38578,283.50744 193.45951,283.50744 C 194.11025,283.50744 194.75015,283.34475 195.27075,283.07361 L 195.27075,283.32306 M 195.30329,281.84804 C 194.68508,282.21679 194.07771,282.41202 193.49204,282.41202 C 193.01483,282.41202 192.64608,282.21679 192.64608,281.97819 C 192.64608,281.56605 193.32936,281.1756 194.07772,281.1756 C 194.44647,281.1756 194.85861,281.22983 195.30329,281.3166 L 195.30329,281.84804 M 200.58093,278.56177 L 199.10591,278.56177 C 198.92153,278.56177 198.71546,278.59431 198.65039,278.64854 C 198.4877,278.73531 198.37924,278.91968 198.37924,279.10406 C 198.37924,279.26675 198.46601,279.44028 198.61785,279.53789 C 198.71546,279.61381 198.83477,279.64635 199.10591,279.64635 L 199.48551,279.64635 L 199.48551,282.22764 L 198.84561,282.22764 C 198.55278,282.22764 198.4877,282.22764 198.40094,282.3144 C 198.2274,282.41202 198.11895,282.59639 198.11895,282.78077 C 198.11895,282.94346 198.21656,283.10614 198.34671,283.22545 C 198.45516,283.30137 198.607,283.32306 198.84561,283.32306 L 202.09934,283.32306 C 202.3271,283.32306 202.48978,283.30137 202.5657,283.24714 C 202.72839,283.13868 202.826,282.96515 202.826,282.78077 C 202.826,282.60724 202.73924,282.44455 202.60909,282.3361 C 202.48978,282.24933 202.40302,282.22764 202.09934,282.22764 L 200.58093,282.22764 L 200.58093,280.62247 C 201.61128,279.7765 202.02342,279.50535 202.37048,279.50535 C 202.53317,279.50535 202.64162,279.58128 202.80431,279.71142 C 202.97784,279.85242 203.07545,279.90665 203.22729,279.90665 C 203.53097,279.90665 203.78043,279.64635 203.78043,279.34267 C 203.78043,279.15829 203.69366,279.02814 203.45505,278.84376 C 203.12968,278.56177 202.79346,278.42078 202.40302,278.42078 C 201.87158,278.42078 201.44859,278.616 200.58093,279.2559 L 200.58093,278.56177 M 210.04503,281.44674 L 210.04503,281.01291 C 210.04503,279.50536 208.852,278.40993 207.22514,278.40993 C 205.61997,278.40993 204.40524,279.52705 204.40524,280.96953 C 204.40524,282.44455 205.59828,283.50744 207.29021,283.50744 C 208.06026,283.50744 209.18822,283.30137 209.66543,283.07361 C 209.92573,282.96515 210.04503,282.80246 210.04503,282.59639 C 210.04503,282.28187 209.81727,282.05411 209.53528,282.05411 C 209.41598,282.05411 209.29668,282.06495 209.14484,282.10833 C 208.15787,282.35779 207.88673,282.41202 207.37698,282.41202 C 206.42255,282.41202 205.84773,282.10833 205.59828,281.44674 L 210.04503,281.44674 M 205.61997,280.48147 C 205.7935,279.8958 206.42255,279.50535 207.23598,279.50535 C 208.02772,279.50535 208.67847,279.87411 208.83031,280.48147 L 205.61997,280.48147"
       style="font-size:10.84575081px;font-style:normal;font-variant:normal;font-weight:bold;font-stretch:normal;text-align:start;line-height:125%;writing-mode:lr-tb;text-anchor:start;fill:#ffffff;fill-opacity:1;stroke:none;stroke-width:1px;stroke-linecap:butt;stroke-linejoin:miter;stroke-opacity:1;font-family:Courier" />
  </g>
</svg>
