<?xml version="1.0" encoding="UTF-8" standalone="no"?>
<!-- Created with Inkscape (http://www.inkscape.org/) -->
<svg
   xmlns:dc="http://purl.org/dc/elements/1.1/"
   xmlns:cc="http://web.resource.org/cc/"
   xmlns:rdf="http://www.w3.org/1999/02/22-rdf-syntax-ns#"
   xmlns:svg="http://www.w3.org/2000/svg"
   xmlns="http://www.w3.org/2000/svg"
   xmlns:sodipodi="http://sodipodi.sourceforge.net/DTD/sodipodi-0.dtd"
   xmlns:inkscape="http://www.inkscape.org/namespaces/inkscape"
   id="svg2537"
   sodipodi:version="0.32"
   inkscape:version="0.45.1"
   width="63"
   height="92"
   version="1.0"
   sodipodi:docbase="/usr/local/share/screenlets/TodayCalendar/themes/CentOS"
   sodipodi:docname="sticker.svg"
   inkscape:output_extension="org.inkscape.output.svg.inkscape">
  <metadata
     id="metadata2542">
    <rdf:RDF>
      <cc:Work
         rdf:about="">
        <dc:format>image/svg+xml</dc:format>
        <dc:type
           rdf:resource="http://purl.org/dc/dcmitype/StillImage" />
      </cc:Work>
    </rdf:RDF>
  </metadata>
  <defs
     id="defs2540" />
  <sodipodi:namedview
     inkscape:window-height="606"
     inkscape:window-width="816"
     inkscape:pageshadow="2"
     inkscape:pageopacity="0.0"
     guidetolerance="10.0"
     gridtolerance="10.0"
     objecttolerance="10.0"
     borderopacity="1.0"
     bordercolor="#666666"
     pagecolor="#ffffff"
     id="base"
     width="63px"
     height="92px"
     inkscape:zoom="0.35824168"
     inkscape:cx="372.04724"
     inkscape:cy="526.18109"
     inkscape:window-x="422"
     inkscape:window-y="228"
     inkscape:current-layer="svg2537" />
  <g
     id="g3674"
     inkscape:export-filename="/home/peterm/Foto's/afbeeldingen/svg/stickers7.png"
     inkscape:export-xdpi="222.11082"
     inkscape:export-ydpi="222.11082"
     transform="translate(-9.9999999,-105.99999)">
    <rect
       style="fill:#9ccd29;fill-opacity:1;stroke:#272377;stroke-width:1.35679841;stroke-miterlimit:4;stroke-dasharray:none;stroke-opacity:1"
       id="rect3644"
       width="61.360596"
       height="90.304268"
       x="10.678399"
       y="107.01733"
       rx="30.680298"
       ry="12.633808"
       inkscape:export-filename="/home/peterm/Foto's/afbeeldingen/svg/capsulasvgmandriva.png"
       inkscape:export-xdpi="430.06262"
       inkscape:export-ydpi="430.06262" />
    <path
       style="fill:#272377;fill-opacity:1;stroke:#272377;stroke-width:1.33700001;stroke-miterlimit:4;stroke-dasharray:none;stroke-opacity:1"
       d="M 72.038991,170.50384 L 72.038991,184.68779 C 72.038991,191.68693 58.355579,197.3216 41.358695,197.3216 C 24.361811,197.3216 10.678398,191.68693 10.678398,184.68779 L 10.678398,170.50384 L 72.038991,170.50384 z "
       id="path3646"
       sodipodi:nodetypes="ccsccc"
       inkscape:export-filename="/home/peterm/Foto's/afbeeldingen/svg/capsulasvgmandriva.png"
       inkscape:export-xdpi="430.06262"
       inkscape:export-ydpi="430.06262" />
    <path
       transform="matrix(0.3624195,0,0,0.3624195,-28.167041,76.254833)"
       d="M 262.95515 167.93272 A 71.117416 71.117416 0 1 1  120.72032,167.93272 A 71.117416 71.117416 0 1 1  262.95515 167.93272 z"
       sodipodi:ry="71.117416"
       sodipodi:rx="71.117416"
       sodipodi:cy="167.93272"
       sodipodi:cx="191.83774"
       id="path3648"
       style="fill:#ffffff;fill-opacity:1;stroke:none;stroke-width:1.80299997;stroke-miterlimit:4;stroke-dasharray:none;stroke-opacity:1"
       sodipodi:type="arc"
       inkscape:export-filename="/home/peterm/Foto's/afbeeldingen/svg/capsulasvgmandriva.png"
       inkscape:export-xdpi="430.06262"
       inkscape:export-ydpi="430.06262" />
    <text
       xml:space="preserve"
       style="font-size:3.39017987px;font-style:normal;font-variant:normal;font-weight:bold;font-stretch:normal;text-align:start;line-height:125%;writing-mode:lr-tb;text-anchor:start;fill:#ffffff;fill-opacity:1;stroke:none;stroke-width:1px;stroke-linecap:butt;stroke-linejoin:miter;stroke-opacity:1;font-family:Bitstream Vera Sans"
       x="14.528224"
       y="167.97725"
       id="text3660"
       sodipodi:linespacing="125%"
       inkscape:export-filename="/home/peterm/Foto's/afbeeldingen/svg/capsulasvgmandriva.png"
       inkscape:export-xdpi="430.06262"
       inkscape:export-ydpi="430.06262"><tspan
         sodipodi:role="line"
         id="tspan3662"
         x="14.528224"
         y="167.97725">Powered By</tspan></text>
    <path
       id="text2412"
       d="M 22.868592,185.57036 C 22.600872,185.68718 22.357501,185.79669 22.138478,185.89891 C 21.924301,186.00113 21.641989,186.10821 21.291549,186.22016 C 20.994628,186.31264 20.67094,186.39052 20.320499,186.45379 C 19.974905,186.52193 19.592813,186.55601 19.17422,186.55601 C 18.385692,186.55601 17.667748,186.44649 17.020385,186.22747 C 16.377883,186.00357 15.818131,185.65555 15.341126,185.1834 C 14.873854,184.721 14.508798,184.13447 14.245959,183.42383 C 13.983116,182.70831 13.851696,181.87843 13.851696,180.93415 C 13.851696,180.03854 13.978252,179.23786 14.231355,178.53208 C 14.484459,177.8263 14.849518,177.23005 15.326526,176.7433 C 15.788927,176.27117 16.346249,175.91098 16.998482,175.66274 C 17.655581,175.4145 18.383259,175.29039 19.181521,175.29038 C 19.765606,175.29039 20.347259,175.36096 20.926492,175.50211 C 21.510572,175.64327 22.157941,175.89151 22.868592,176.24682 L 22.868592,177.96258 L 22.759072,177.96258 C 22.160376,177.46124 21.566549,177.0962 20.9776,176.86743 C 20.388635,176.63866 19.758302,176.52427 19.086608,176.52426 C 18.536582,176.52427 18.040107,176.61431 17.597178,176.79441 C 17.159105,176.96965 16.767278,177.24465 16.421694,177.61943 C 16.085841,177.9845 15.822998,178.4469 15.633172,179.00664 C 15.44821,179.56154 15.35573,180.20404 15.35573,180.93415 C 15.35573,181.69834 15.457943,182.35544 15.662379,182.90545 C 15.871673,183.45547 16.139383,183.90327 16.4655,184.24886 C 16.806216,184.60905 17.202911,184.87676 17.655584,185.05198 C 18.113117,185.22234 18.594992,185.30753 19.101207,185.30752 C 19.797243,185.30753 20.449474,185.18827 21.057909,184.94977 C 21.666329,184.71126 22.235815,184.3535 22.766376,183.87651 L 22.868592,183.87651 L 22.868592,185.57036 M 31.644542,182.42358 L 25.635713,182.42358 C 25.635713,182.92492 25.711162,183.36299 25.862048,183.73778 C 26.012936,184.1077 26.219801,184.41191 26.482651,184.65042 C 26.735753,184.88406 27.035093,185.05928 27.380687,185.1761 C 27.731135,185.29291 28.115662,185.35132 28.534268,185.35132 C 29.089146,185.35132 29.646466,185.2418 30.206221,185.02278 C 30.770839,184.79888 31.172401,184.57983 31.41091,184.36568 L 31.483915,184.36568 L 31.483915,185.86241 C 31.021506,186.0571 30.549372,186.22016 30.0675,186.35157 C 29.58562,186.483 29.079415,186.54871 28.548862,186.54871 C 27.19572,186.54871 26.139491,186.18365 25.380176,185.45354 C 24.620861,184.71857 24.241203,183.67694 24.241203,182.32866 C 24.241203,180.99498 24.603825,179.93633 25.329068,179.15267 C 26.059182,178.36902 27.018057,177.9772 28.20571,177.9772 C 29.305742,177.9772 30.152679,178.29845 30.746506,178.94094 C 31.345194,179.58344 31.644534,180.49608 31.644542,181.67886 L 31.644542,182.42358 M 30.308436,181.37221 C 30.303567,180.65184 30.121034,180.09452 29.760856,179.70025 C 29.405522,179.306 28.862811,179.10887 28.132706,179.10886 C 27.397723,179.10887 26.811192,179.32548 26.373131,179.75866 C 25.939932,180.19187 25.694126,180.72972 25.635713,181.37221 L 30.308436,181.37221 M 40.544622,186.35889 L 39.172009,186.35889 L 39.172009,181.71536 C 39.172002,181.34059 39.150096,180.99013 39.106301,180.66401 C 39.062481,180.33303 38.982172,180.07505 38.865356,179.89009 C 38.743671,179.68566 38.568444,179.53477 38.339681,179.43742 C 38.110903,179.3352 37.813997,179.28409 37.448941,179.28408 C 37.074146,179.28409 36.682321,179.37657 36.273462,179.56153 C 35.864594,179.7465 35.472771,179.98257 35.097974,180.26975 L 35.097974,186.35889 L 33.72537,186.35889 L 33.72537,178.20353 L 35.097974,178.20353 L 35.097974,179.10886 C 35.526305,178.75355 35.969245,178.47611 36.426784,178.27653 C 36.884317,178.07698 37.354023,177.9772 37.835904,177.9772 C 38.716896,177.9772 39.388605,178.24247 39.851015,178.77302 C 40.313409,179.30357 40.544614,180.06775 40.544622,181.06557 L 40.544622,186.35889 M 47.422285,186.28587 C 47.164305,186.35401 46.881993,186.41 46.575348,186.45379 C 46.273565,186.4976 46.003427,186.51951 45.764925,186.51951 C 44.932597,186.51951 44.29983,186.2956 43.866637,185.8478 C 43.43343,185.4 43.216834,184.68207 43.216834,183.69397 L 43.216834,179.3571 L 42.289595,179.3571 L 42.289595,178.20353 L 43.216834,178.20353 L 43.216834,175.85985 L 44.589446,175.85985 L 44.589446,178.20353 L 47.422285,178.20353 L 47.422285,179.3571 L 44.589446,179.3571 L 44.589446,183.07337 C 44.589446,183.50172 44.599178,183.83757 44.618648,184.08093 C 44.638119,184.31943 44.706261,184.54333 44.823086,184.75263 C 44.930162,184.94733 45.076181,185.09092 45.261148,185.1834 C 45.450976,185.27102 45.738151,185.31482 46.122686,185.31482 C 46.346578,185.31482 46.580217,185.28319 46.823588,185.2199 C 47.066951,185.15176 47.24218,185.09579 47.349272,185.05198 L 47.422285,185.05198 L 47.422285,186.28587 M 57.30071,176.736 C 57.743634,177.22275 58.081915,177.819 58.315562,178.52477 C 58.554056,179.23056 58.673306,180.03124 58.673323,180.92685 C 58.673306,181.82246 58.551629,182.62557 58.308265,183.33621 C 58.069749,184.04199 57.733894,184.63094 57.30071,185.10309 C 56.852893,185.5947 56.322349,185.96462 55.709059,186.21286 C 55.100631,186.4611 54.40459,186.58522 53.620942,186.58522 C 52.85675,186.58522 52.160708,186.45867 51.532817,186.20556 C 50.909789,185.95246 50.379236,185.58497 49.941167,185.10309 C 49.503105,184.62122 49.164816,184.02982 48.926314,183.32891 C 48.692675,182.62801 48.575859,181.82731 48.575859,180.92685 C 48.575859,180.04098 48.692675,179.24759 48.926314,178.54667 C 49.159945,177.84091 49.50067,177.23735 49.948471,176.736 C 50.376801,176.259 50.907347,175.89394 51.540122,175.64082 C 52.177744,175.38773 52.87135,175.26118 53.620942,175.26117 C 54.39972,175.26118 55.098196,175.39017 55.716363,175.64813 C 56.339384,175.90125 56.867494,176.26387 57.30071,176.736 M 57.169285,180.92685 C 57.169277,179.5153 56.852893,178.42743 56.220141,177.66325 C 55.587366,176.89419 54.723401,176.50968 53.628239,176.50966 C 52.52333,176.50968 51.654495,176.89419 51.021735,177.66325 C 50.393837,178.42743 50.079888,179.5153 50.079896,180.92685 C 50.079888,182.353 50.401141,183.44573 51.04364,184.20505 C 51.686133,184.95951 52.54767,185.33672 53.628239,185.33672 C 54.708799,185.33672 55.567895,184.95951 56.20554,184.20505 C 56.848031,183.44573 57.169277,182.353 57.169285,180.92685 M 68.865697,183.25591 C 68.865681,183.67938 68.765901,184.09797 68.566348,184.5117 C 68.371642,184.92543 68.096635,185.27588 67.741317,185.56305 C 67.35192,185.87458 66.896815,186.11795 66.376009,186.29317 C 65.860058,186.4684 65.237029,186.55601 64.506923,186.55601 C 63.72326,186.55601 63.017487,186.483 62.389588,186.33698 C 61.766561,186.19095 61.131365,185.97436 60.483997,185.68718 L 60.483997,183.87651 L 60.586219,183.87651 C 61.136227,184.33405 61.77143,184.68692 62.491811,184.93517 C 63.212185,185.1834 63.888757,185.30753 64.521525,185.30752 C 65.417126,185.30753 66.11316,185.13959 66.609649,184.80374 C 67.110984,184.4679 67.361652,184.0201 67.361659,183.46034 C 67.361652,182.97846 67.242402,182.62314 67.003908,182.39437 C 66.77026,182.1656 66.412508,181.98794 65.930643,181.86139 C 65.565579,181.76405 65.168885,181.68373 64.740555,181.62046 C 64.317086,181.55718 63.86685,181.47687 63.389848,181.37952 C 62.426095,181.17508 61.710583,180.82706 61.243312,180.33545 C 60.78091,179.83898 60.549713,179.19405 60.549713,178.40066 C 60.549713,177.49046 60.934232,176.74574 61.703286,176.16651 C 62.472341,175.58243 63.448252,175.29039 64.631043,175.29038 C 65.39522,175.29039 66.096124,175.3634 66.733761,175.50941 C 67.371391,175.65545 67.936008,175.83553 68.427627,176.04969 L 68.427627,177.75815 L 68.325405,177.75815 C 67.911668,177.40771 67.366521,177.1181 66.689958,176.88932 C 66.018249,176.6557 65.329512,176.53888 64.623739,176.53886 C 63.849816,176.53888 63.226787,176.69949 62.754646,177.02074 C 62.287374,177.342 62.053742,177.75573 62.053742,178.26193 C 62.053742,178.71461 62.170558,179.06994 62.404198,179.3279 C 62.63783,179.58588 63.049124,179.78301 63.638089,179.91929 C 63.949595,179.98743 64.392527,180.07019 64.96689,180.16752 C 65.541239,180.26488 66.02798,180.36467 66.427117,180.46687 C 67.235104,180.68105 67.843524,181.00472 68.2524,181.43792 C 68.661251,181.87113 68.865681,182.47712 68.865697,183.25591"
       style="font-size:39.96350861px;font-style:normal;font-variant:normal;font-weight:normal;font-stretch:normal;text-align:start;line-height:125%;writing-mode:lr-tb;text-anchor:start;fill:#ffffff;fill-opacity:1;stroke:none;stroke-width:1px;stroke-linecap:butt;stroke-linejoin:miter;stroke-opacity:1;font-family:Verdana" />
    <g
       transform="matrix(0.1162548,0,0,0.1162548,-2.4021519,124.70626)"
       id="g2282">
      <path
         style="fill:#ffffff;fill-opacity:1;fill-rule:evenodd"
         id="path1936"
         d="M 369.42185,99.754048 L 369.42185,90.754046 L 376.42186,97.754046 L 383.42186,90.754046 L 383.42186,99.754048 L 392.42185,99.754048 L 385.42185,106.75405 L 392.42185,113.75405 L 383.42186,113.75405 L 383.42186,122.75405 L 376.42186,115.75405 L 369.42185,122.75405 L 369.42185,113.75405 L 360.42186,113.75405 L 367.42186,106.75405 L 360.42186,99.754048 L 369.42185,99.754048 z M 233.42186,-36.245953 L 318.42185,-36.245953 L 376.42186,-94.245951 L 434.42186,-36.245953 L 519.42185,-36.245953 L 519.42185,48.75405 L 577.42186,106.75405 L 519.42185,164.75404 L 519.42185,249.75405 L 434.42186,249.75405 L 376.42186,307.75405 L 318.42185,249.75405 L 233.42186,249.75405 L 233.42186,164.75404 L 175.42186,106.75405 L 233.42186,48.75405 L 233.42186,-36.245953 z "
         class="fil3"
         sodipodi:nodetypes="cccccccccccccccccccccccccccccccccc" />
      <path
         style="fill:#efa620;fill-rule:evenodd"
         id="path13"
         d="M 423.42185,-36.245953 L 376.42186,-83.245955 L 329.42186,-36.245953 L 369.42185,-36.245953 L 369.42185,79.754051 L 376.42186,86.75405 L 383.42186,79.754051 L 383.42186,-36.245953 L 423.42185,-36.245953 z M 481.42186,191.75405 L 511.42186,161.75405 L 511.42186,121.75405 L 411.42186,121.75405 L 481.42186,191.75405 z M 442.42186,241.75405 L 511.42186,241.75405 L 511.42186,172.75405 L 481.42186,202.75405 L 400.42185,121.75405 L 391.42186,121.75405 L 391.42186,130.75405 L 472.42186,211.75405 L 442.42186,241.75405 z M 391.42186,141.75405 L 391.42186,241.75405 L 431.42186,241.75405 L 461.42186,211.75405 L 391.42186,141.75405 z "
         class="fil2"
         sodipodi:nodetypes="cccccccccccccccccccccccccccc" />
      <path
         style="fill:none;fill-rule:evenodd"
         id="path9"
         d="M 484.41745,198.95898 L 575.04439,108.33204 L 484.41745,17.795105 L 393.88052,108.33204 L 484.41745,198.95898 z M 377.14108,91.682608 L 467.67802,1.0556711 L 377.14108,-89.481269 L 286.60414,1.0556711 L 377.14108,91.682608 z M 378.31104,305.0654 L 468.84798,214.52846 L 378.31104,123.90152 L 287.6841,214.52846 L 378.31104,305.0654 z M 271.03467,197.78902 L 361.57161,107.25208 L 271.03467,16.625145 L 180.40773,107.25208 L 271.03467,197.78902 z M 237.82579,118.77169 L 237.82579,246.92736 L 365.89146,246.92736 L 365.89146,118.77169 L 237.82579,118.77169 z M 389.56066,118.77169 L 389.56066,246.92736 L 517.62633,246.92736 L 517.62633,118.77169 L 389.56066,118.77169 z M 237.82579,-31.343234 L 237.82579,96.812434 L 365.89146,96.812434 L 365.89146,-31.343234 L 237.82579,-31.343234 z M 389.56066,-31.343234 L 389.56066,96.812434 L 517.62633,96.812434 L 517.62633,-31.343234 L 389.56066,-31.343234 z "
         class="fil0" />
      <path
         style="fill:#9ccd29;fill-rule:evenodd"
         id="path11"
         d="M 271.42185,21.754044 L 241.42185,51.754053 L 241.42185,91.754047 L 341.42186,91.754047 L 271.42185,21.754044 z M 310.42185,-28.245953 L 241.42185,-28.245953 L 241.42185,40.754049 L 271.42185,10.754049 L 352.42186,91.754047 L 361.42186,91.754047 L 361.42186,82.754046 L 280.42185,1.7540475 L 310.42185,-28.245953 z M 361.42186,71.75405 L 361.42186,-28.245953 L 321.42186,-28.245953 L 291.42186,1.7540475 L 361.42186,71.75405 z M 423.42185,249.75405 L 376.42186,296.75405 L 329.42186,249.75405 L 369.42185,249.75405 L 369.42185,133.75405 L 376.42186,126.75404 L 383.42186,133.75405 L 383.42186,249.75405 L 423.42185,249.75405 z "
         class="fil1"
         sodipodi:nodetypes="cccccccccccccccccccccccccccc" />
      <path
         style="fill:#922297;fill-opacity:1;fill-rule:evenodd"
         id="path15"
         d="M 233.42186,59.754045 L 186.42186,106.75405 L 233.42186,153.75405 L 233.42186,113.75405 L 349.42186,113.75405 L 356.42186,106.75405 L 349.42186,99.754048 L 233.42186,99.754048 L 233.42186,59.754045 z M 481.42186,21.754044 L 511.42186,51.754044 L 511.42186,91.754047 L 411.42186,91.754047 L 481.42186,21.754044 z M 442.42186,-28.245953 L 511.42186,-28.245953 L 511.42186,40.754049 L 481.42186,10.754049 L 400.42185,91.754047 L 391.42186,91.754047 L 391.42186,82.754046 L 472.42186,1.7540475 L 442.42186,-28.245953 z M 391.42186,71.75405 L 391.42186,-28.202772 L 431.42186,-28.245953 L 461.42186,1.7540475 L 391.42186,71.75405 z "
         class="fil3"
         sodipodi:nodetypes="cccccccccccccccccccccccccccc" />
      <path
         style="fill:#272377;fill-rule:evenodd"
         id="path17"
         d="M 519.42185,59.754045 L 566.42185,106.75405 L 519.42185,153.75405 L 519.42185,113.75405 L 403.42186,113.75405 L 396.42186,106.75405 L 403.42186,99.754048 L 519.42185,99.754048 L 519.42185,59.754045 z M 361.42186,141.75405 L 361.42186,241.75405 L 321.42186,241.75405 L 291.42186,211.75405 L 361.42186,141.75405 z M 271.42185,191.75405 L 241.42185,161.75405 L 241.42185,121.75405 L 341.42186,121.75405 L 271.42185,191.75405 z M 310.42185,241.75405 L 241.42185,241.75405 L 241.42185,172.75405 L 271.42185,202.75405 L 352.42186,121.75405 L 361.42186,121.75405 L 361.42186,130.75405 L 280.42185,211.75405 L 310.42185,241.75405 z "
         class="fil4"
         sodipodi:nodetypes="cccccccccccccccccccccccccccc" />
    </g>
  </g>
</svg>
