<?xml version="1.0" encoding="UTF-8" standalone="no"?>
<!-- Created with Inkscape (http://www.inkscape.org/) -->
<svg
   xmlns:i="http://ns.adobe.com/AdobeIllustrator/10.0/"
   xmlns:dc="http://purl.org/dc/elements/1.1/"
   xmlns:cc="http://web.resource.org/cc/"
   xmlns:rdf="http://www.w3.org/1999/02/22-rdf-syntax-ns#"
   xmlns:svg="http://www.w3.org/2000/svg"
   xmlns="http://www.w3.org/2000/svg"
   xmlns:sodipodi="http://sodipodi.sourceforge.net/DTD/sodipodi-0.dtd"
   xmlns:inkscape="http://www.inkscape.org/namespaces/inkscape"
   id="svg2537"
   sodipodi:version="0.32"
   inkscape:version="0.45.1"
   width="63"
   height="92"
   version="1.0"
   sodipodi:docbase="/usr/local/share/screenlets/TodayCalendar/themes/Kubuntu"
   sodipodi:docname="sticker.svg"
   inkscape:output_extension="org.inkscape.output.svg.inkscape">
  <metadata
     id="metadata2542">
    <rdf:RDF>
      <cc:Work
         rdf:about="">
        <dc:format>image/svg+xml</dc:format>
        <dc:type
           rdf:resource="http://purl.org/dc/dcmitype/StillImage" />
      </cc:Work>
    </rdf:RDF>
  </metadata>
  <defs
     id="defs2540" />
  <sodipodi:namedview
     inkscape:window-height="606"
     inkscape:window-width="816"
     inkscape:pageshadow="2"
     inkscape:pageopacity="0.0"
     guidetolerance="10.0"
     gridtolerance="10.0"
     objecttolerance="10.0"
     borderopacity="1.0"
     bordercolor="#666666"
     pagecolor="#ffffff"
     id="base"
     width="63px"
     height="92px"
     inkscape:zoom="0.35824168"
     inkscape:cx="372.04724"
     inkscape:cy="526.18109"
     inkscape:window-x="422"
     inkscape:window-y="228"
     inkscape:current-layer="svg2537" />
  <g
     id="g3446"
     inkscape:export-filename="/home/peterm/Foto's/afbeeldingen/svg/stickers7.png"
     inkscape:export-xdpi="222"
     inkscape:export-ydpi="222"
     transform="translate(-220.00001,-6.0000001)">
    <rect
       inkscape:export-ydpi="430.06262"
       inkscape:export-xdpi="430.06262"
       inkscape:export-filename="/home/peterm/Foto's/afbeeldingen/svg/capsulasvgmandriva.png"
       ry="12.633808"
       rx="30.680298"
       y="7.017333"
       x="220.67841"
       height="90.304268"
       width="61.360596"
       id="rect4516"
       style="fill:#41b7c8;fill-opacity:1;stroke:#10147e;stroke-width:1.35679841;stroke-miterlimit:4;stroke-dasharray:none;stroke-opacity:1" />
    <path
       inkscape:export-ydpi="430.06262"
       inkscape:export-xdpi="430.06262"
       inkscape:export-filename="/home/peterm/Foto's/afbeeldingen/svg/capsulasvgmandriva.png"
       sodipodi:nodetypes="ccsccc"
       id="path4518"
       d="M 282.03898,70.503776 L 282.03898,84.687776 C 282.03898,91.686876 268.35557,97.321576 251.35869,97.321576 C 234.36181,97.321576 220.67839,91.686876 220.67839,84.687776 L 220.67839,70.503776 L 282.03898,70.503776 z "
       style="fill:#10147e;fill-opacity:1;stroke:#10147e;stroke-width:1.33700001;stroke-miterlimit:4;stroke-dasharray:none;stroke-opacity:1" />
    <path
       inkscape:export-ydpi="430.06262"
       inkscape:export-xdpi="430.06262"
       inkscape:export-filename="/home/peterm/Foto's/afbeeldingen/svg/capsulasvgmandriva.png"
       sodipodi:type="arc"
       style="fill:#ffffff;fill-opacity:1;stroke:none;stroke-width:1.80299997;stroke-miterlimit:4;stroke-dasharray:none;stroke-opacity:1"
       id="path4552"
       sodipodi:cx="191.83774"
       sodipodi:cy="167.93272"
       sodipodi:rx="71.117416"
       sodipodi:ry="71.117416"
       d="M 262.95515 167.93272 A 71.117416 71.117416 0 1 1  120.72032,167.93272 A 71.117416 71.117416 0 1 1  262.95515 167.93272 z"
       transform="matrix(0,0.3624195,-0.3624195,0,312.22079,-32.408824)" />
    <g
       transform="translate(3.6146329e-2,0.370566)"
       id="g3172">
      <path
         style="fill:#095aa6"
         d="M 239.55499,37.705356 L 239.55499,36.567896 L 237.71849,36.301656 C 237.6268,35.911686 237.47346,35.544946 237.26727,35.214246 L 238.3779,33.728466 L 237.57315,32.924126 L 236.08658,34.034346 C 235.75507,33.828956 235.38873,33.675616 234.99837,33.584336 L 234.73252,31.748636 L 233.59467,31.748636 L 233.32882,33.585136 C 232.93806,33.676416 232.57212,33.830156 232.24101,34.035956 L 230.75484,32.926126 L 229.95089,33.730466 L 231.06112,35.217046 C 230.85573,35.548156 230.70239,35.914896 230.6107,36.305256 L 228.775,36.571096 L 228.775,37.708556 L 230.6115,37.974806 C 230.70359,38.365166 230.85693,38.731506 231.06272,39.062206 L 229.95289,40.548386 L 230.75724,41.352736 L 232.24422,40.242506 C 232.57492,40.447496 232.94126,40.600836 233.33202,40.692516 L 233.59787,42.527816 L 234.73572,42.527816 L 235.00157,40.691316 C 235.39193,40.599636 235.75867,40.445896 236.08938,40.240506 L 237.57556,41.349926 L 238.3799,40.545586 L 237.26887,39.059006 C 237.47466,38.727896 237.6276,38.361556 237.71889,37.971196 L 239.55499,37.705356 z M 232.06085,37.138026 C 232.06085,35.975746 233.00332,35.033676 234.1652,35.033676 C 235.32707,35.033676 236.26995,35.976146 236.26995,37.138026 C 236.26995,38.300706 235.32747,39.243176 234.1652,39.243176 C 233.00292,39.243176 232.06085,38.300706 232.06085,37.138026 z "
         id="path4960" />
      <path
         style="fill:#10147e"
         i:knockout="Off"
         d="M 265.70242,22.589746 L 265.70242,21.452696 L 263.86592,21.186446 C 263.77423,20.796486 263.62049,20.429746 263.4151,20.099036 L 264.52493,18.612856 L 263.72058,17.808916 L 262.2336,18.919146 C 261.9025,18.713756 261.53656,18.560416 261.1458,18.469126 L 260.87995,16.633426 L 259.7421,16.633426 L 259.47625,18.469926 C 259.08589,18.561616 258.71955,18.715356 258.38884,18.921146 L 256.90226,17.810916 L 256.09792,18.615266 L 257.20855,20.101836 C 257.00356,20.433346 256.85022,20.799286 256.75893,21.190046 L 254.92323,21.455896 L 254.92323,22.593346 L 256.75973,22.859596 C 256.85142,23.249956 257.00556,23.616296 257.21055,23.947006 L 256.10032,25.433576 L 256.90507,26.237926 L 258.39164,25.127696 C 258.72235,25.332686 259.08949,25.486426 259.47985,25.577716 L 259.7457,27.413416 L 260.88315,27.413416 L 261.1494,25.576516 C 261.53936,25.484826 261.9061,25.331086 262.23681,25.125696 L 263.72339,26.235526 L 264.52733,25.431176 L 263.4171,23.944196 C 263.62249,23.613096 263.77583,23.246756 263.86712,22.856396 L 265.70242,22.589746 z M 258.20787,22.023216 C 258.20787,20.860946 259.14995,19.918466 260.31262,19.918466 C 261.4749,19.918466 262.41697,20.860946 262.41697,22.023216 C 262.41697,23.185496 261.4745,24.127566 260.31262,24.127566 C 259.14995,24.127566 258.20787,23.185496 258.20787,22.023216 z "
         id="path4962" />
      <path
         style="fill:#41b7c8"
         i:knockout="Off"
         d="M 265.69722,52.810976 L 265.69722,51.673076 L 263.86071,51.406876 C 263.76903,51.016876 263.61529,50.649776 263.4099,50.319076 L 264.51933,48.833276 L 263.71538,48.028076 L 262.2288,49.139176 C 261.8973,48.932976 261.53136,48.779576 261.14099,48.689176 L 260.87475,46.852676 L 259.73689,46.852676 L 259.47105,48.689576 C 259.08029,48.781176 258.71435,48.934976 258.38324,49.140776 L 256.89746,48.031276 L 256.09272,48.835676 L 257.20335,50.321876 C 256.99836,50.653376 256.84461,51.019676 256.75333,51.410876 L 254.91763,51.676276 L 254.91763,52.814176 L 256.75413,53.079976 C 256.84581,53.470376 256.99956,53.836276 257.20495,54.167376 L 256.09472,55.653976 L 256.89946,56.458776 L 258.38604,55.347676 C 258.71755,55.553876 259.08389,55.706876 259.47385,55.797676 L 259.7397,57.633376 L 260.87755,57.633376 L 261.1438,55.797276 C 261.53416,55.705276 261.9005,55.552676 262.2312,55.346076 L 263.71738,56.455876 L 264.52173,55.650776 L 263.4115,54.164176 C 263.61649,53.833476 263.76983,53.466776 263.86112,53.076376 L 265.69722,52.810976 z M 258.20307,52.243176 C 258.20307,51.080976 259.14515,50.138076 260.30742,50.138076 C 261.4697,50.138076 262.41217,51.080576 262.41217,52.243176 C 262.41217,53.405076 261.4697,54.347976 260.30742,54.347976 C 259.14515,54.347976 258.20307,53.405476 258.20307,52.243176 z "
         id="path4968" />
      <path
         id="path4972"
         d="M 242.5826,37.138026 C 242.5826,34.260156 243.93545,31.692976 246.0382,30.037846 L 242.9077,24.615216 C 242.17382,25.128096 241.47877,25.708636 240.83218,26.355236 C 239.29835,27.888656 238.13808,29.693526 237.38218,31.658946 L 237.46906,31.594086 L 237.68046,31.436336 L 239.86448,33.620766 C 239.86448,33.620766 238.83072,35.004846 238.61612,35.292316 C 238.97165,35.343566 240.68284,35.591796 240.68284,35.591796 L 240.68284,38.681056 C 240.68284,38.681056 238.97365,38.928886 238.61772,38.980136 C 238.83232,39.267596 239.86688,40.652886 239.86688,40.652886 L 237.68246,42.837706 L 237.38018,42.611896 C 238.13608,44.579316 239.29715,46.385776 240.83218,47.921176 C 241.47797,48.566576 242.17222,49.147176 242.9057,49.660076 L 246.0362,44.238206 C 243.93505,42.582266 242.5826,40.015086 242.5826,37.138026 z "
         i:knockout="Off"
         style="fill:#41b7c8" />
      <path
         style="fill:#095aa6"
         d="M 262.39816,26.355236 C 262.39095,26.348026 262.38334,26.341226 262.37654,26.334016 C 262.27444,26.376056 262.18396,26.413286 262.16594,26.420896 C 262.1243,26.708766 261.85886,28.540456 261.85886,28.540456 L 258.7696,28.540456 C 258.7696,28.540456 258.52177,26.830876 258.47052,26.475346 C 258.18265,26.690346 256.79777,27.724906 256.79777,27.724906 L 254.61334,25.540076 C 254.61334,25.540076 255.6471,24.155996 255.8617,23.868526 C 255.50617,23.817286 253.79499,23.569056 253.79499,23.569056 L 253.79499,22.090086 L 253.79418,22.046446 C 253.07832,21.944746 252.35125,21.888696 251.61577,21.888696 C 249.33365,21.888696 247.12761,22.386756 245.12215,23.331636 L 248.25385,28.754656 C 249.29361,28.336666 250.42787,28.106056 251.61577,28.106056 C 256.16118,28.106056 259.93267,31.480786 260.55685,35.856436 L 266.81145,35.856436 C 266.51357,32.267116 264.97414,28.931226 262.39816,26.355236 z "
         id="path4974" />
      <path
         style="fill:#10147e"
         i:knockout="Off"
         d="M 253.79058,50.699776 C 253.79058,50.699776 255.49856,50.452776 255.85449,50.401076 C 255.63909,50.112476 254.60534,48.728776 254.60534,48.728776 L 256.79016,46.543976 C 256.79016,46.543976 258.17464,47.578076 258.46211,47.792676 C 258.51336,47.436376 258.76119,45.726386 258.76119,45.726386 L 261.85085,45.726386 C 261.85085,45.726386 262.1159,47.556076 262.15753,47.844376 C 262.18036,47.853576 262.27765,47.893576 262.38294,47.936476 C 262.38815,47.931276 262.39335,47.926376 262.39896,47.921176 C 264.97575,45.344826 266.51557,42.007336 266.81185,38.416406 L 260.55765,38.416406 C 259.93467,42.793666 256.16278,46.170796 251.61617,46.170796 C 250.42746,46.170796 249.29241,45.940186 248.25265,45.520596 L 245.12055,50.943576 C 247.12641,51.888476 249.33285,52.387376 251.61537,52.387376 C 252.34965,52.387376 253.07552,52.332076 253.79018,52.230376 L 253.79058,50.699776 z "
         id="path5017" />
    </g>
    <g
       id="g3437">
      <path
         style="fill:#ffffff"
         i:knockout="Off"
         d="M 272.2293,80.055076 C 272.2293,79.672576 272.31572,79.388076 272.48893,79.201376 C 272.66139,79.010176 272.8905,78.914776 273.1757,78.914476 C 273.46567,78.914476 273.69917,79.010176 273.87696,79.201376 C 274.05476,79.392676 274.14328,79.677176 274.14366,80.055076 L 274.14366,82.540176 C 274.14366,83.245876 274.19173,83.737476 274.28902,84.014276 C 274.38631,84.286076 274.54084,84.498576 274.75412,84.650876 C 274.97102,84.803076 275.23695,84.878776 275.55114,84.878776 C 275.86553,84.878776 276.13127,84.805176 276.34856,84.657276 C 276.57023,84.505076 276.7341,84.283776 276.84074,83.993476 C 276.91933,83.776576 276.95844,83.313176 276.95882,82.602376 L 276.95882,80.046076 C 276.95882,79.666676 277.04486,79.384276 277.21636,79.199276 C 277.38805,79.009676 277.61545,78.914776 277.89855,78.914476 C 278.18584,78.914476 278.41763,79.009676 278.59409,79.199276 C 278.76998,79.389076 278.85792,79.671376 278.85868,80.046076 L 278.85868,82.104276 C 278.85868,83.418876 278.75433,84.318476 278.5464,84.803076 C 278.29191,85.393476 277.91743,85.847676 277.42296,86.166076 C 276.92849,86.479576 276.29991,86.636376 275.53722,86.636576 C 274.70967,86.636576 274.03931,86.451876 273.52633,86.083076 C 273.01812,85.714176 272.65967,85.199676 272.45173,84.540176 C 272.30389,84.083276 272.23006,83.253076 272.23006,82.049176 L 272.2293,80.055076 L 272.2293,80.055076 z "
         id="path4982" />
      <path
         style="fill:#ffffff"
         i:knockout="Off"
         d="M 257.53004,85.495776 C 257.53004,85.878276 257.61645,86.162676 257.78967,86.349776 C 257.96251,86.540976 258.19124,86.636376 258.47682,86.636576 C 258.76679,86.636576 259.00029,86.540976 259.17808,86.349776 C 259.3555,86.158476 259.4442,85.874076 259.4442,85.495776 L 259.44459,83.010576 C 259.44459,82.304976 259.49304,81.813776 259.58995,81.536876 C 259.68724,81.264676 259.84177,81.052576 260.05504,80.900476 C 260.27195,80.748276 260.53788,80.672176 260.85207,80.672176 C 261.16627,80.672176 261.4322,80.745976 261.64948,80.893676 C 261.87154,81.045876 262.03541,81.267376 262.14205,81.557876 C 262.22026,81.774576 262.25937,82.237976 262.25975,82.948776 L 262.25975,85.504876 C 262.25975,85.884576 262.34579,86.166676 262.51767,86.352076 C 262.68898,86.541776 262.91638,86.636376 263.19909,86.636576 C 263.48677,86.636576 263.71894,86.541776 263.89502,86.352076 C 264.07091,86.162076 264.15885,85.879976 264.15923,85.504876 L 264.15923,83.446476 C 264.15923,82.131776 264.05526,81.232476 263.84732,80.747876 C 263.59322,80.157476 263.21874,79.703076 262.72427,79.384676 C 262.22942,79.071276 261.60084,78.914476 260.83815,78.914276 C 260.01059,78.914276 259.34062,79.098876 258.82726,79.467876 C 258.31905,79.836576 257.9606,80.350876 257.75266,81.010576 C 257.60482,81.467276 257.53099,82.297676 257.53099,83.501676 L 257.53004,85.495776 L 257.53004,85.495776 z "
         id="path4984" />
      <path
         style="fill:#ffffff"
         i:knockout="Off"
         d="M 248.86477,80.055076 C 248.86477,79.672576 248.95119,79.388076 249.12403,79.201376 C 249.29686,79.010176 249.52559,78.914776 249.81155,78.914476 C 250.10114,78.914476 250.33464,79.010176 250.51244,79.201376 C 250.69023,79.392676 250.77875,79.677176 250.77875,80.055076 L 250.77875,82.540176 C 250.77875,83.245876 250.82759,83.737476 250.92488,84.014276 C 251.02179,84.286076 251.17631,84.498576 251.38921,84.650876 C 251.60649,84.803076 251.87204,84.878776 252.18662,84.878776 C 252.50062,84.878776 252.76674,84.805176 252.98403,84.657276 C 253.2057,84.505076 253.36995,84.283776 253.47621,83.993476 C 253.55443,83.776576 253.59392,83.313176 253.5943,82.602376 L 253.5943,80.046076 C 253.5943,79.666676 253.68033,79.384276 253.85183,79.199276 C 254.02314,79.009676 254.25092,78.914776 254.53402,78.914476 C 254.82094,78.914476 255.0531,79.009676 255.22956,79.199276 C 255.40545,79.389076 255.49378,79.671376 255.49378,80.046076 L 255.49378,82.104276 C 255.49378,83.418876 255.38981,84.318476 255.18149,84.803076 C 254.92739,85.393476 254.55291,85.847676 254.05844,86.166076 C 253.56358,86.479576 252.935,86.636376 252.17231,86.636576 C 251.34514,86.636576 250.67516,86.451876 250.16181,86.083076 C 249.6536,85.714176 249.29553,85.199676 249.08721,84.540176 C 248.93936,84.083276 248.86554,83.253076 248.86554,82.049176 L 248.86477,80.055076 L 248.86477,80.055076 z "
         id="path4986" />
      <path
         style="fill:#ffffff"
         i:knockout="Off"
         d="M 231.71681,80.055076 C 231.71681,79.672576 231.80323,79.388076 231.97625,79.201376 C 232.14909,79.010176 232.37801,78.914776 232.6634,78.914476 C 232.95299,78.914476 233.18687,79.010176 233.36467,79.201376 C 233.54055,79.391176 233.62945,79.673076 233.63098,80.046076 L 233.63098,82.540176 C 233.63098,83.245876 233.67943,83.737476 233.77653,84.014276 C 233.87363,84.286076 234.02816,84.498576 234.24105,84.650876 C 234.45815,84.803076 234.72408,84.878776 235.03847,84.878776 C 235.35247,84.878776 235.61859,84.805176 235.83588,84.657276 C 236.05755,84.505076 236.22161,84.283776 236.32787,83.993476 C 236.40646,83.776576 236.44557,83.313176 236.44595,82.602376 L 236.44595,80.046076 C 236.44595,79.666676 236.53199,79.384276 236.70387,79.199276 C 236.87518,79.009676 237.10258,78.914776 237.38549,78.914476 C 237.67297,78.914476 237.90514,79.009676 238.08122,79.199276 C 238.2573,79.389076 238.34543,79.671376 238.34581,80.046076 L 238.34581,82.104276 C 238.34581,83.418876 238.24165,84.318476 238.03353,84.803076 C 237.77942,85.393476 237.40494,85.847676 236.91047,86.166076 C 236.41562,86.479576 235.78704,86.636376 235.02435,86.636576 C 234.19699,86.636576 233.52682,86.451876 233.01365,86.083076 C 232.50506,85.714176 232.14699,85.199676 231.93905,84.540176 C 231.79102,84.083276 231.717,83.253076 231.717,82.049176 L 231.71681,80.055076 L 231.71681,80.055076 z "
         id="path4988" />
      <path
         style="fill:#ffffff"
         i:knockout="Off"
         d="M 246.65491,80.745476 C 246.62954,80.686676 246.60322,80.629276 246.57555,80.573376 C 246.61924,80.663576 246.66006,80.758176 246.6986,80.856476 C 246.68429,80.817376 246.66979,80.780376 246.65491,80.745476 L 246.65491,80.745476 z M 240.34983,82.798076 L 240.35327,82.685176 C 240.35098,82.674676 240.34983,82.662076 240.34983,82.646976 L 240.34983,77.547776 C 240.34983,77.235276 240.3567,76.991476 240.37101,76.816176 C 240.38989,76.636476 240.4374,76.482476 240.51332,76.354676 C 240.58906,76.222276 240.69818,76.115676 240.84087,76.034976 C 240.9828,75.949676 241.1419,75.907176 241.3176,75.907176 C 241.56407,75.907176 241.78708,75.999476 241.98662,76.184176 C 242.11921,76.307376 242.20238,76.458876 242.23558,76.638576 C 242.27335,76.813876 242.29262,77.064776 242.29262,77.391576 L 242.29262,79.348276 C 242.68388,79.207476 243.09709,78.911776 243.9027,78.911776 C 244.6652,78.912176 245.03701,79.068776 245.53167,79.382376 C 245.7934,79.550876 246.02137,79.757476 246.21634,80.002376 C 246.35235,80.173876 246.47235,80.364076 246.57555,80.573176 C 246.60322,80.629076 246.62954,80.686476 246.65491,80.745276 C 246.66979,80.780176 246.68429,80.816976 246.6986,80.856276 C 246.90768,81.397276 247.03054,82.057676 247.03054,82.771176 C 247.03054,83.471276 246.91169,84.121076 246.70928,84.656376 C 246.69211,84.707876 246.6738,84.755576 246.65491,84.800176 C 246.60054,84.926076 246.54045,85.046276 246.47502,85.159976 C 246.42179,85.253476 246.36437,85.342576 246.30333,85.427476 C 246.09119,85.723376 245.83385,85.968276 245.53186,86.163076 C 245.0372,86.476476 244.40862,86.633276 243.64593,86.633476 C 242.81837,86.633476 242.1484,86.448776 241.63542,86.080076 C 241.12683,85.711076 240.76876,85.196576 240.56063,84.537176 C 240.44579,84.182476 240.3754,83.602776 240.34983,82.798076 L 240.34983,82.798076 z M 244.53071,84.843176 C 244.71289,84.718376 244.85959,84.550876 244.971,84.341076 C 244.98722,84.322476 245.00057,84.302476 245.01125,84.280776 C 245.21042,83.865076 245.3285,83.346376 245.3285,82.784376 C 245.3285,82.241476 245.21862,81.739476 245.03167,81.331276 C 244.91511,81.061376 244.74819,80.851676 244.53071,80.702676 C 244.29149,80.540176 243.99942,80.459076 243.65356,80.459076 C 243.30769,80.459076 243.01525,80.542876 242.7764,80.710376 C 242.54233,80.877776 242.37217,81.111276 242.26553,81.410676 C 242.18388,81.642376 242.13371,82.011376 242.11425,82.517276 C 242.10643,83.300576 242.15965,83.833776 242.26553,84.135376 C 242.37217,84.435076 242.54233,84.668176 242.7764,84.835476 C 243.01525,85.003376 243.30769,85.086776 243.65356,85.086776 C 243.99942,85.086776 244.29149,85.005876 244.53071,84.843176 L 244.53071,84.843176 z "
         id="path4990" />
      <path
         style="fill:#ffffff"
         i:knockout="Off"
         d="M 266.45112,78.781076 L 266.66497,78.781076 L 266.66497,77.594876 C 266.66497,77.276676 266.67165,77.028276 266.68576,76.849776 C 266.70484,76.666576 266.75253,76.509976 266.82808,76.379476 C 266.904,76.244476 267.01293,76.136076 267.15563,76.054076 C 267.29794,75.967076 267.45628,75.923776 267.63217,75.923776 C 267.87883,75.923776 268.10165,76.017776 268.301,76.205876 C 268.43396,76.331276 268.51676,76.485576 268.55033,76.668876 C 268.58791,76.847476 268.60699,77.102676 268.60699,77.435376 L 268.60699,78.780876 L 269.31856,78.780876 C 269.59307,78.780876 269.80215,78.848476 269.94447,78.983476 C 270.09155,79.113576 270.165,79.282476 270.165,79.489776 C 270.165,79.755176 270.06065,79.940576 269.85194,80.046676 C 269.64782,80.152876 269.35385,80.205776 268.97002,80.205776 L 268.6068,80.205776 L 268.6068,83.836876 C 268.6068,84.145476 268.61615,84.384476 268.63542,84.553176 C 268.65888,84.716876 268.71592,84.851876 268.80634,84.958176 C 268.90058,85.059476 269.05263,85.109776 269.26133,85.109776 C 269.37541,85.109776 269.52955,85.090576 269.72413,85.051876 C 269.91833,85.008476 270.07018,84.986776 270.17949,84.986776 C 270.33592,84.986776 270.47576,85.051876 270.59899,85.182076 C 270.72719,85.307876 270.79129,85.464476 270.79129,85.652176 C 270.79129,85.970576 270.62055,86.213976 270.27888,86.382776 C 269.93722,86.551276 269.44618,86.635776 268.80634,86.635976 C 268.19856,86.635976 267.73842,86.532176 267.42556,86.324976 C 267.1127,86.117876 266.90648,85.830976 266.80671,85.464276 C 266.71171,85.097576 266.66478,84.608276 266.66478,83.995976 L 266.66478,80.206176 L 266.40839,80.206176 C 266.12853,80.206176 265.91468,80.138776 265.76798,80.003576 C 265.62052,79.868476 265.54783,79.697576 265.54783,79.490176 C 265.54783,79.282776 265.62319,79.114176 265.77542,78.983876 C 265.93166,78.848776 266.15676,78.781276 266.45112,78.781076 L 266.45112,78.781076 z "
         id="path4992" />
      <path
         style="fill:#ffffff"
         i:knockout="Off"
         d="M 228.55006,85.723476 L 226.83524,82.909076 L 225.7822,83.903976 L 225.7822,85.446576 C 225.7822,85.820576 225.68415,86.108476 225.4888,86.309776 C 225.29307,86.511176 225.06797,86.611776 224.81329,86.611776 C 224.51607,86.611776 224.28276,86.512176 224.11298,86.313576 C 223.9432,86.114376 223.85869,85.820576 223.85869,85.432076 L 223.85869,77.161876 C 223.85869,76.730876 223.94091,76.402976 224.1063,76.177876 C 224.27132,75.952776 224.50692,75.839976 224.81348,75.839976 C 225.11032,75.839976 225.34611,75.942276 225.52066,76.145776 C 225.69502,76.349376 225.78258,76.650376 225.78258,77.048576 L 225.78258,81.754976 L 227.96688,79.465176 C 228.23701,79.180776 228.44323,78.986576 228.58573,78.881976 C 228.72804,78.777476 228.90126,78.725376 229.10538,78.725376 C 229.34728,78.725376 229.54873,78.802476 229.70993,78.956376 C 229.87113,79.110576 229.95182,79.303176 229.95182,79.535376 C 229.95182,79.819776 229.68856,80.198876 229.16204,80.672176 L 228.13037,81.617076 L 230.12275,84.743176 C 230.26964,84.975376 230.37533,85.151976 230.43904,85.272576 C 230.50295,85.393476 230.53519,85.508176 230.53519,85.617076 C 230.53519,85.925176 230.45106,86.168176 230.28261,86.345476 C 230.11436,86.522876 229.8923,86.611776 229.61721,86.611776 C 229.37971,86.611776 229.19714,86.547476 229.06952,86.419876 C 228.94113,86.292376 228.76791,86.060276 228.55006,85.723476 z "
         id="path4996" />
    </g>
    <text
       inkscape:export-ydpi="430.06262"
       inkscape:export-xdpi="430.06262"
       inkscape:export-filename="/home/peterm/Foto's/afbeeldingen/svg/capsulasvgmandriva.png"
       sodipodi:linespacing="125%"
       id="text3168"
       y="67.977242"
       x="224.52823"
       style="font-size:3.39017987px;font-style:normal;font-variant:normal;font-weight:bold;font-stretch:normal;text-align:start;line-height:125%;writing-mode:lr-tb;text-anchor:start;fill:#ffffff;fill-opacity:1;stroke:none;stroke-width:1px;stroke-linecap:butt;stroke-linejoin:miter;stroke-opacity:1;font-family:Bitstream Vera Sans"
       xml:space="preserve"><tspan
         y="67.977242"
         x="224.52823"
         id="tspan3170"
         sodipodi:role="line">Powered By</tspan></text>
  </g>
</svg>
