<?xml version="1.0" encoding="UTF-8" standalone="no"?>
<!-- Created with Inkscape (http://www.inkscape.org/) -->

<svg
   xmlns:dc="http://purl.org/dc/elements/1.1/"
   xmlns:cc="http://creativecommons.org/ns#"
   xmlns:rdf="http://www.w3.org/1999/02/22-rdf-syntax-ns#"
   xmlns:svg="http://www.w3.org/2000/svg"
   xmlns="http://www.w3.org/2000/svg"
   xmlns:xlink="http://www.w3.org/1999/xlink"
   xmlns:sodipodi="http://sodipodi.sourceforge.net/DTD/sodipodi-0.dtd"
   xmlns:inkscape="http://www.inkscape.org/namespaces/inkscape"
   width="20.831541"
   height="43.218292"
   id="svg2"
   sodipodi:version="0.32"
   inkscape:version="0.47 r22583"
   sodipodi:docname="note-pin.svg"
   version="1.0"
   inkscape:output_extension="org.inkscape.output.svg.inkscape">
  <defs
     id="defs4">
    <inkscape:path-effect
       effect="spiro"
       id="path-effect2839"
       is_visible="true" />
    <inkscape:perspective
       sodipodi:type="inkscape:persp3d"
       inkscape:vp_x="0 : 21.609146 : 1"
       inkscape:vp_y="0 : 1000 : 0"
       inkscape:vp_z="20.831541 : 21.609146 : 1"
       inkscape:persp3d-origin="10.415771 : 14.406097 : 1"
       id="perspective27" />
    <linearGradient
       id="linearGradient3144">
      <stop
         style="stop-color:white;stop-opacity:0.37168142;"
         offset="0"
         id="stop3146" />
      <stop
         style="stop-color:white;stop-opacity:0;"
         offset="1"
         id="stop3148" />
    </linearGradient>
    <linearGradient
       id="linearGradient3109">
      <stop
         style="stop-color:#74b9ff;stop-opacity:1;"
         offset="0"
         id="stop3111" />
      <stop
         style="stop-color:#0067e9;stop-opacity:1;"
         offset="1"
         id="stop3113" />
    </linearGradient>
    <linearGradient
       id="linearGradient2811">
      <stop
         style="stop-color:#fbfbfb;stop-opacity:1;"
         offset="0"
         id="stop2813" />
      <stop
         id="stop2821"
         offset="0.25"
         style="stop-color:white;stop-opacity:1;" />
      <stop
         id="stop2819"
         offset="0"
         style="stop-color:#7f7f7f;stop-opacity:1;" />
      <stop
         style="stop-color:white;stop-opacity:1;"
         offset="1"
         id="stop2815" />
    </linearGradient>
    <linearGradient
       id="linearGradient2760">
      <stop
         style="stop-color:#ffff81;stop-opacity:1;"
         offset="0"
         id="stop2762" />
      <stop
         id="stop2768"
         offset="0.5"
         style="stop-color:#fff21b;stop-opacity:1;" />
      <stop
         style="stop-color:#e9cc00;stop-opacity:1;"
         offset="1"
         id="stop2764" />
    </linearGradient>
    <linearGradient
       inkscape:collect="always"
       xlink:href="#linearGradient2760"
       id="linearGradient2766"
       x1="159.5"
       y1="75.362183"
       x2="194"
       y2="256.36218"
       gradientUnits="userSpaceOnUse" />
    <linearGradient
       inkscape:collect="always"
       xlink:href="#linearGradient2760"
       id="linearGradient2793"
       gradientUnits="userSpaceOnUse"
       x1="159.5"
       y1="75.362183"
       x2="194"
       y2="256.36218"
       gradientTransform="translate(-21,-22)" />
    <linearGradient
       inkscape:collect="always"
       xlink:href="#linearGradient2760"
       id="linearGradient2799"
       gradientUnits="userSpaceOnUse"
       gradientTransform="translate(-21,-22)"
       x1="159.5"
       y1="75.362183"
       x2="194"
       y2="256.36218" />
    <linearGradient
       inkscape:collect="always"
       xlink:href="#linearGradient3109"
       id="linearGradient3119"
       gradientUnits="userSpaceOnUse"
       gradientTransform="matrix(0.72744,0,0,0.72744,54.12224,5.02717)"
       x1="164.2117"
       y1="26.643087"
       x2="180.79327"
       y2="35.643089" />
    <linearGradient
       inkscape:collect="always"
       xlink:href="#linearGradient3144"
       id="linearGradient3150"
       x1="181.58575"
       y1="13.665491"
       x2="173.10046"
       y2="33.653667"
       gradientUnits="userSpaceOnUse"
       gradientTransform="matrix(0.72744,0,0,0.72744,51.21248,7.93693)" />
  </defs>
  <sodipodi:namedview
     id="base"
     pagecolor="#ffffff"
     bordercolor="#666666"
     borderopacity="1.0"
     inkscape:pageopacity="0.0"
     inkscape:pageshadow="2"
     inkscape:zoom="5.059676"
     inkscape:cx="-22.199947"
     inkscape:cy="15.049815"
     inkscape:document-units="px"
     inkscape:current-layer="layer1"
     inkscape:window-width="989"
     inkscape:window-height="626"
     inkscape:window-x="33"
     inkscape:window-y="49"
     height="200px"
     width="200px"
     showgrid="false"
     inkscape:window-maximized="0" />
  <metadata
     id="metadata7">
    <rdf:RDF>
      <cc:Work
         rdf:about="">
        <dc:format>image/svg+xml</dc:format>
        <dc:type
           rdf:resource="http://purl.org/dc/dcmitype/StillImage" />
      </cc:Work>
    </rdf:RDF>
  </metadata>
  <g
     inkscape:label="Ebene 1"
     inkscape:groupmode="layer"
     id="layer1"
     transform="translate(-5.801372,-9.036415)">
    <path
       style="fill:none;stroke:#000000;stroke-width:1px;stroke-linecap:butt;stroke-linejoin:miter;stroke-opacity:0.04411764"
       d="m 10.079697,7.2476095 c 0.04698,0.054314 0.07362,0.1258265 0.07362,0.1976411 0,0.071815 -0.02664,0.1433273 -0.07362,0.1976412 -0.03067,0.035461 -0.06905,0.063209 -0.1052962,0.092955 -0.036243,0.029746 -0.071384,0.062745 -0.092345,0.1046858 -0.014925,0.029863 -0.022034,0.063205 -0.023983,0.096533 -0.00195,0.033328 0.00112,0.066759 0.00572,0.099825 0.0092,0.066133 0.024541,0.132451 0.018261,0.198924 -0.00699,0.074013 -0.040422,0.1429839 -0.079385,0.206298 -0.038963,0.063314 -0.084052,0.1229771 -0.1182558,0.1889842 -0.062649,0.1209022 -0.087439,0.2573001 -0.112085,0.391221 -0.024646,0.1339209 -0.05253,0.2672393 -0.085556,0.3993435 L 9.2891323,10.212226 c -0.065884,0.263536 -0.1229131,0.529399 -0.1976411,0.790565 -0.1382872,0.483298 -0.3559351,0.940163 -0.5929233,1.383488 -0.1389762,0.259978 -0.2853429,0.517039 -0.3952822,0.790564 -0.055194,0.137321 -0.1028556,0.281619 -0.1976412,0.395282 -0.014141,0.01696 -0.029266,0.03314 -0.042172,0.05105 -0.012906,0.01791 -0.023651,0.03787 -0.027704,0.05957 -0.00405,0.0217 -8.173e-4,0.04538 0.012084,0.0633 0.00645,0.009 0.015222,0.01631 0.025372,0.02065 0.01015,0.0043 0.021673,0.0056 0.03242,0.0031 0.00918,-0.0022 0.017648,-0.007 0.02445,-0.01354 0.0068,-0.0065 0.011956,-0.0147 0.015333,-0.0235 0.00676,-0.01761 0.00635,-0.03733 0.00209,-0.0557 -0.00852,-0.03674 -0.031495,-0.06864 -0.041869,-0.104902 -0.0078,-0.02725 -0.00817,-0.05659 -0.00106,-0.08403 0.00711,-0.02744 0.021669,-0.05291 0.041713,-0.07296 0.020044,-0.02004 0.045516,-0.03461 0.072958,-0.04171 0.027442,-0.0071 0.056781,-0.0067 0.084034,0.0011"
       id="path2837"
       inkscape:path-effect="#path-effect2839"
       inkscape:original-d="m 10.079697,7.2476095 c -0.05256,0.105123 0.05256,0.2901593 0,0.3952823 -0.04167,0.083333 -0.1681787,0.1092533 -0.1976413,0.1976411 -0.041666,0.1249992 0.031957,0.2674555 0,0.3952822 C 9.846327,8.3787297 9.730999,8.491344 9.6844146,8.6310973 9.5985171,8.8887898 9.5526538,9.1581403 9.4867735,9.4216618 c -0.06588,0.2635215 -0.1317608,0.527043 -0.1976412,0.7905642 -0.06588,0.263522 -0.09064,0.540896 -0.1976411,0.790565 -1.0315872,2.407037 0.2176686,-1.4535842 -0.5929233,1.383488 -0.363163,1.27107 0.010519,0.181861 -0.3952822,0.790564 -0.081715,0.122572 -0.1510567,0.255529 -0.1976412,0.395282 -0.020833,0.0625 0.06588,0.197641 0,0.197641 -0.06588,0 -0.046584,-0.151056 0,-0.197641 0.2635215,-0.263521 0.1976412,0.329402 0.1976412,-0.197641"
       transform="translate(5.801372,9.036415)" />
  </g>
</svg>
