<?xml version="1.0" encoding="UTF-8"?>
<svg xmlns="http://www.w3.org/2000/svg" xmlns:xlink="http://www.w3.org/1999/xlink" width="144pt" height="144pt" viewBox="0 0 144 144" version="1.1">
<g id="surface41">
<path style="fill-rule:nonzero;fill:rgb(50%,50%,100%);fill-opacity:1;stroke-width:0.005;stroke-linecap:butt;stroke-linejoin:miter;stroke:rgb(0%,0%,0%);stroke-opacity:1;stroke-miterlimit:10;" d="M 0.0398492 0.146756 L 0.0655653 0.146756 L 0.0655653 0.0578885 L 0.0375705 0.0635308 L 0.0375705 0.0492079 L 0.0653483 0.0435655 L 0.0811903 0.0435655 L 0.0811903 0.146756 L 0.106906 0.146756 L 0.106906 0.159993 L 0.0398492 0.159993 Z M 0.250597 0.146756 L 0.30561 0.146756 L 0.30561 0.159993 L 0.231717 0.159993 L 0.231717 0.146756 C 0.23763 0.140544 0.245768 0.132216 0.256131 0.121799 C 0.266466 0.11141 0.272949 0.104655 0.275553 0.101617 C 0.280599 0.0960015 0.284153 0.0912001 0.286187 0.0872938 C 0.288194 0.0833333 0.289225 0.0794542 0.289225 0.0756836 C 0.289225 0.0694716 0.287028 0.0644531 0.282715 0.0606011 C 0.278375 0.056722 0.272678 0.0547418 0.265679 0.0547418 C 0.260742 0.0547418 0.255534 0.0556369 0.250054 0.0573459 C 0.244548 0.0590278 0.238688 0.0616048 0.232476 0.0650499 L 0.232476 0.0492079 C 0.238824 0.0466309 0.244765 0.0446506 0.250271 0.0433485 C 0.255751 0.0420736 0.260796 0.0413954 0.265354 0.0413954 C 0.277425 0.0413954 0.287055 0.0444607 0.294217 0.05051 C 0.301351 0.0565321 0.304959 0.0645888 0.304959 0.074707 C 0.304959 0.0794813 0.304036 0.0840115 0.302246 0.0882704 C 0.30051 0.0925564 0.297228 0.0976291 0.29248 0.103461 C 0.291178 0.10498 0.287028 0.109375 0.280111 0.116591 C 0.273166 0.123752 0.263319 0.133816 0.250597 0.146756 Z M 0.484782 0.097168 C 0.49235 0.0988498 0.498264 0.102241 0.502469 0.107368 C 0.506727 0.11244 0.50887 0.118707 0.50887 0.126139 C 0.50887 0.137641 0.504883 0.146566 0.496935 0.152832 C 0.489041 0.159125 0.47781 0.162272 0.463298 0.162272 C 0.45836 0.162272 0.453288 0.161757 0.448107 0.160753 C 0.442952 0.159831 0.437636 0.15842 0.432156 0.156521 L 0.432156 0.141222 C 0.436551 0.143826 0.441325 0.145806 0.446479 0.147081 C 0.45166 0.148383 0.45714 0.149034 0.462863 0.149034 C 0.472683 0.149034 0.48017 0.147081 0.485324 0.143175 C 0.490506 0.139296 0.493137 0.133599 0.493137 0.126139 C 0.493137 0.119276 0.490696 0.113932 0.485867 0.11008 C 0.481093 0.106201 0.474419 0.104221 0.465902 0.104221 L 0.452338 0.104221 L 0.452338 0.0913086 L 0.466444 0.0913086 C 0.474175 0.0913086 0.480116 0.0897624 0.484239 0.0866428 C 0.488336 0.0835503 0.490424 0.0791016 0.490424 0.0732964 C 0.490424 0.0673014 0.488281 0.062717 0.484022 0.0595161 C 0.479818 0.0563422 0.473768 0.0547418 0.465902 0.0547418 C 0.461561 0.0547418 0.456868 0.05523 0.451904 0.0561523 C 0.446967 0.0571018 0.441542 0.0585666 0.435628 0.0604926 L 0.435628 0.0463867 C 0.441623 0.044732 0.447238 0.0435113 0.452447 0.0426975 C 0.457709 0.0418566 0.462674 0.0413954 0.467312 0.0413954 C 0.479221 0.0413954 0.488688 0.0441623 0.495633 0.0496419 C 0.502631 0.0550673 0.506158 0.0624186 0.506158 0.0716688 C 0.506158 0.078125 0.504259 0.0835775 0.500515 0.0880534 C 0.496826 0.092475 0.491564 0.0955132 0.484782 0.097168 Z M 0.680339 0.0572374 L 0.640625 0.119412 L 0.680339 0.119412 Z M 0.676215 0.0435655 L 0.696072 0.0435655 L 0.696072 0.119412 L 0.712674 0.119412 L 0.712674 0.132541 L 0.696072 0.132541 L 0.696072 0.159993 L 0.680339 0.159993 L 0.680339 0.132541 L 0.627821 0.132541 L 0.627821 0.11735 Z M 0.83724 0.0435655 L 0.899089 0.0435655 L 0.899089 0.0568034 L 0.851671 0.0568034 L 0.851671 0.0853407 C 0.853895 0.084554 0.856174 0.0839844 0.858507 0.0836046 C 0.860813 0.083252 0.863091 0.0830621 0.865343 0.0830621 C 0.878337 0.0830621 0.888672 0.0866699 0.896267 0.0938043 C 0.903836 0.100911 0.907661 0.110541 0.907661 0.122667 C 0.907661 0.1352 0.903727 0.144938 0.895942 0.151855 C 0.888129 0.1588 0.877116 0.162272 0.862956 0.162272 C 0.858019 0.162272 0.853027 0.161811 0.847982 0.16097 C 0.842909 0.160156 0.837701 0.158963 0.832357 0.157281 L 0.832357 0.141439 C 0.836968 0.143989 0.841797 0.145915 0.846788 0.14719 C 0.851752 0.148438 0.857042 0.149034 0.86263 0.149034 C 0.871663 0.149034 0.878798 0.146701 0.884006 0.141981 C 0.889269 0.137234 0.891927 0.130778 0.891927 0.122667 C 0.891927 0.114583 0.889269 0.108181 0.884006 0.103461 C 0.878798 0.0987142 0.871663 0.0962999 0.86263 0.0962999 C 0.858426 0.0962999 0.854221 0.0967882 0.850043 0.0977105 C 0.845839 0.0986599 0.841553 0.100125 0.83724 0.102051 Z M 0.0727268 0.295546 C 0.0656196 0.295546 0.0600043 0.297987 0.0559082 0.302816 C 0.0517849 0.30759 0.0497233 0.314236 0.0497233 0.322673 C 0.0497233 0.331 0.0517849 0.337619 0.0559082 0.342529 C 0.0600043 0.347385 0.0656196 0.349799 0.0727268 0.349799 C 0.0798069 0.349799 0.0854221 0.347385 0.0895454 0.342529 C 0.0936415 0.337619 0.0957303 0.331 0.0957303 0.322673 C 0.0957303 0.314236 0.0936415 0.30759 0.0895454 0.302816 C 0.0854221 0.297987 0.0798069 0.295546 0.0727268 0.295546 Z M 0.103977 0.246175 L 0.103977 0.260498 C 0.0999891 0.258626 0.0959744 0.257216 0.0919325 0.256266 C 0.0879449 0.255263 0.0839572 0.254747 0.0799967 0.254747 C 0.0696343 0.254747 0.0617133 0.258274 0.0562337 0.265272 C 0.050727 0.272298 0.0475803 0.282905 0.0467936 0.297065 C 0.0498861 0.292535 0.0537652 0.289035 0.0584039 0.286648 C 0.0630154 0.284288 0.0681152 0.283067 0.0737033 0.283067 C 0.0853407 0.283067 0.0945638 0.286621 0.101373 0.293701 C 0.108154 0.300808 0.111572 0.310465 0.111572 0.322673 C 0.111572 0.334608 0.108019 0.344211 0.100939 0.351427 C 0.0938314 0.35867 0.0844184 0.362278 0.0727268 0.362278 C 0.0592719 0.362278 0.0489366 0.357123 0.0418023 0.346761 C 0.0346951 0.336426 0.0311686 0.321479 0.0311686 0.301948 C 0.0311686 0.283529 0.0355089 0.268826 0.0441895 0.257894 C 0.0529243 0.246908 0.0646973 0.241401 0.0794542 0.241401 C 0.0833333 0.241401 0.087321 0.241808 0.09139 0.242594 C 0.0954319 0.243408 0.0996365 0.244602 0.103977 0.246175 Z M 0.233127 0.243571 L 0.307997 0.243571 L 0.307997 0.250298 L 0.265679 0.359999 L 0.249295 0.359999 L 0.289008 0.256809 L 0.233127 0.256809 Z M 0.470785 0.30466 C 0.463243 0.30466 0.457357 0.306695 0.453098 0.310737 C 0.448812 0.314724 0.446696 0.320231 0.446696 0.32723 C 0.446696 0.334256 0.448812 0.339789 0.453098 0.343831 C 0.457357 0.347819 0.463243 0.349799 0.470785 0.349799 C 0.478217 0.349799 0.484131 0.347792 0.488471 0.343723 C 0.492784 0.339681 0.494982 0.334174 0.494982 0.32723 C 0.494982 0.320231 0.492784 0.314724 0.488471 0.310737 C 0.484185 0.306695 0.478299 0.30466 0.470785 0.30466 Z M 0.455051 0.298041 C 0.448242 0.296387 0.442952 0.29324 0.439209 0.288601 C 0.435438 0.28399 0.433567 0.278347 0.433567 0.271674 C 0.433567 0.26237 0.436849 0.254964 0.443441 0.249539 C 0.450087 0.244141 0.459201 0.241401 0.470785 0.241401 C 0.48234 0.241401 0.491428 0.244141 0.49802 0.249539 C 0.504666 0.254964 0.508002 0.26237 0.508002 0.271674 C 0.508002 0.278347 0.506104 0.28399 0.50236 0.288601 C 0.498589 0.29324 0.493327 0.296387 0.486627 0.298041 C 0.494195 0.299778 0.500109 0.303223 0.504313 0.30835 C 0.508572 0.313504 0.510715 0.319797 0.510715 0.32723 C 0.510715 0.338515 0.507216 0.347222 0.500298 0.353271 C 0.493408 0.359294 0.483561 0.362278 0.470785 0.362278 C 0.457899 0.362278 0.448025 0.359294 0.441162 0.353271 C 0.434272 0.347222 0.430854 0.338515 0.430854 0.32723 C 0.430854 0.319797 0.43297 0.313504 0.437256 0.30835 C 0.441515 0.303223 0.447456 0.299778 0.455051 0.298041 Z M 0.4493 0.273085 C 0.4493 0.279161 0.451172 0.283908 0.454942 0.287299 C 0.458686 0.290636 0.463976 0.292291 0.470785 0.292291 C 0.477485 0.292291 0.482775 0.290636 0.486627 0.287299 C 0.490451 0.283908 0.492377 0.279161 0.492377 0.273085 C 0.492377 0.26709 0.490451 0.262397 0.486627 0.258979 C 0.482775 0.255588 0.477485 0.253879 0.470785 0.253879 C 0.463976 0.253879 0.458686 0.255588 0.454942 0.258979 C 0.451172 0.262397 0.4493 0.26709 0.4493 0.273085 Z M 0.637587 0.357612 L 0.637587 0.34318 C 0.641466 0.345079 0.645454 0.346517 0.649523 0.347521 C 0.653564 0.348551 0.657552 0.34904 0.661458 0.34904 C 0.671848 0.34904 0.679823 0.34554 0.68533 0.338515 C 0.690809 0.331516 0.693956 0.320882 0.69477 0.306613 C 0.691732 0.311117 0.68788 0.314562 0.683268 0.316922 C 0.67863 0.319309 0.673475 0.320502 0.66786 0.320502 C 0.656196 0.320502 0.646973 0.317003 0.640191 0.309977 C 0.633464 0.302979 0.6301 0.293349 0.6301 0.281114 C 0.6301 0.269124 0.633599 0.259494 0.640625 0.252252 C 0.647705 0.245036 0.657145 0.241401 0.668945 0.241401 C 0.682373 0.241401 0.692654 0.246582 0.699761 0.256917 C 0.706841 0.26728 0.710395 0.282281 0.710395 0.301948 C 0.710395 0.320258 0.706 0.334907 0.697266 0.345893 C 0.688585 0.356825 0.676893 0.362278 0.662218 0.362278 C 0.65823 0.362278 0.654215 0.361871 0.650174 0.361084 C 0.646105 0.36027 0.6419 0.359131 0.637587 0.357612 Z M 0.668945 0.308241 C 0.675944 0.308241 0.681532 0.305827 0.685655 0.300971 C 0.689833 0.296143 0.691949 0.289524 0.691949 0.281114 C 0.691949 0.272732 0.689833 0.266113 0.685655 0.261258 C 0.681532 0.256348 0.675944 0.253879 0.668945 0.253879 C 0.661838 0.253879 0.656223 0.256348 0.652127 0.261258 C 0.648003 0.266113 0.645942 0.272732 0.645942 0.281114 C 0.645942 0.289524 0.648003 0.296143 0.652127 0.300971 C 0.656223 0.305827 0.661838 0.308241 0.668945 0.308241 Z M 0.838759 0.340142 L 0.855143 0.340142 L 0.855143 0.359999 L 0.838759 0.359999 Z M 0.838759 0.277425 L 0.855143 0.277425 L 0.855143 0.297173 L 0.838759 0.297173 Z M 0.0387641 0.477431 L 0.0551487 0.477431 L 0.0551487 0.497179 L 0.0387641 0.497179 Z M 0.0387641 0.540148 L 0.0551487 0.540148 L 0.0551487 0.553602 L 0.0423448 0.578559 L 0.0323622 0.578559 L 0.0387641 0.553602 Z M 0.33686 0.481337 L 0.256456 0.509983 L 0.33686 0.53852 L 0.33686 0.552626 L 0.236925 0.516385 L 0.236925 0.503472 L 0.33686 0.467231 Z M 0.43693 0.487522 L 0.536865 0.487522 L 0.536865 0.500543 L 0.43693 0.500543 Z M 0.43693 0.519314 L 0.536865 0.519314 L 0.536865 0.532552 L 0.43693 0.532552 Z M 0.636936 0.481337 L 0.636936 0.467231 L 0.736871 0.503472 L 0.736871 0.516385 L 0.636936 0.552626 L 0.636936 0.53852 L 0.717231 0.509983 Z M 0.850477 0.540148 L 0.866319 0.540148 L 0.866319 0.560004 L 0.850477 0.560004 Z M 0.865885 0.528754 L 0.850911 0.528754 L 0.850911 0.51671 C 0.850911 0.511447 0.851617 0.507134 0.853082 0.503798 C 0.854574 0.500407 0.857666 0.496474 0.862305 0.49197 L 0.869358 0.485026 C 0.872314 0.482286 0.874457 0.479709 0.87576 0.477322 C 0.877116 0.474881 0.877821 0.472331 0.877821 0.469727 C 0.877821 0.465115 0.876058 0.461372 0.872613 0.45855 C 0.869195 0.455675 0.864719 0.45421 0.859158 0.45421 C 0.855035 0.45421 0.850613 0.45516 0.84592 0.457031 C 0.841281 0.458849 0.836453 0.461507 0.831489 0.464952 L 0.831489 0.450304 C 0.836317 0.447347 0.841254 0.44515 0.846246 0.443685 C 0.851291 0.442193 0.8565 0.441406 0.861871 0.441406 C 0.871392 0.441406 0.879069 0.443956 0.884874 0.449002 C 0.890706 0.454074 0.893663 0.460748 0.893663 0.468967 C 0.893663 0.472955 0.892714 0.476725 0.890842 0.480252 C 0.888943 0.483805 0.885661 0.48782 0.880968 0.492296 L 0.874132 0.499023 C 0.871663 0.501492 0.869927 0.503418 0.868924 0.504774 C 0.867893 0.506158 0.86716 0.507514 0.866753 0.508789 C 0.866455 0.509874 0.866238 0.51123 0.866102 0.512804 C 0.86594 0.514323 0.865885 0.516439 0.865885 0.519097 Z M 0.0794542 0.718126 C 0.0794542 0.725586 0.0812988 0.731445 0.0849881 0.735704 C 0.0886502 0.739909 0.0937229 0.741998 0.100179 0.741998 C 0.106527 0.741998 0.111572 0.739882 0.115262 0.735596 C 0.118924 0.731337 0.120795 0.725505 0.120795 0.718126 C 0.120795 0.710829 0.118896 0.705051 0.115153 0.700765 C 0.111382 0.696506 0.10631 0.694363 0.099962 0.694363 C 0.0936686 0.694363 0.0886502 0.696506 0.0849881 0.700765 C 0.0812988 0.705051 0.0794542 0.710829 0.0794542 0.718126 Z M 0.12188 0.741455 C 0.118761 0.745443 0.11518 0.748427 0.111138 0.750353 C 0.107151 0.752252 0.102485 0.753174 0.0971408 0.753174 C 0.0881619 0.753174 0.0808919 0.749973 0.0753309 0.743517 C 0.0697428 0.737033 0.0669759 0.728543 0.0669759 0.718126 C 0.0669759 0.707737 0.0697428 0.6993 0.0753309 0.692844 C 0.0809462 0.686361 0.0882433 0.683078 0.0971408 0.683078 C 0.102485 0.683078 0.107178 0.684082 0.111247 0.686008 C 0.115289 0.687907 0.118842 0.690837 0.12188 0.694797 L 0.12188 0.684597 L 0.133057 0.684597 L 0.133057 0.741998 C 0.140625 0.740858 0.146566 0.737386 0.150852 0.731581 C 0.155165 0.725803 0.157362 0.718316 0.157362 0.70912 C 0.157362 0.703559 0.156521 0.698351 0.154867 0.693495 C 0.153185 0.688585 0.150689 0.684028 0.14738 0.679823 C 0.142008 0.673041 0.135417 0.667833 0.127631 0.664198 C 0.119873 0.66059 0.11141 0.658773 0.102241 0.658773 C 0.0958659 0.658773 0.0897081 0.659668 0.0837945 0.661377 C 0.0779351 0.663059 0.0724826 0.665554 0.0675184 0.668864 C 0.0594076 0.674154 0.0530328 0.681098 0.0484212 0.689697 C 0.0437826 0.698324 0.0414768 0.707655 0.0414768 0.717692 C 0.0414768 0.725939 0.0429416 0.733697 0.0459256 0.740913 C 0.0489366 0.748155 0.053304 0.75453 0.0589464 0.76001 C 0.064426 0.765408 0.0707737 0.769558 0.0779351 0.77238 C 0.0850694 0.775174 0.0927463 0.776611 0.100939 0.776611 C 0.107639 0.776611 0.114231 0.775472 0.120687 0.773248 C 0.12717 0.770996 0.133165 0.767741 0.13859 0.763482 L 0.145535 0.772163 C 0.139025 0.777208 0.131917 0.781087 0.124268 0.783773 C 0.116591 0.786431 0.108805 0.787788 0.100939 0.787788 C 0.0913086 0.787788 0.0822211 0.786079 0.0737033 0.782688 C 0.0651584 0.77927 0.0575629 0.774306 0.0509169 0.767822 C 0.0442437 0.761312 0.039171 0.753798 0.0357259 0.745253 C 0.0322537 0.736735 0.0305176 0.727539 0.0305176 0.717692 C 0.0305176 0.708225 0.0322808 0.699219 0.0358344 0.690674 C 0.0393609 0.682075 0.0444065 0.674506 0.0509169 0.667996 C 0.0576172 0.661431 0.0653754 0.656386 0.0741374 0.652913 C 0.0829536 0.649387 0.0922852 0.647597 0.102132 0.647597 C 0.113118 0.647597 0.123318 0.649902 0.132731 0.654433 C 0.142198 0.658936 0.150146 0.665337 0.156603 0.673638 C 0.160428 0.678711 0.163357 0.684245 0.165392 0.69024 C 0.16748 0.696181 0.168538 0.702365 0.168538 0.708794 C 0.168538 0.722466 0.164388 0.733263 0.156169 0.74113 C 0.147922 0.749023 0.136475 0.753147 0.12188 0.753499 Z M 0.274577 0.659098 L 0.253201 0.717041 L 0.296061 0.717041 Z M 0.265679 0.643582 L 0.283583 0.643582 L 0.327962 0.76001 L 0.311578 0.76001 L 0.300944 0.73017 L 0.248427 0.73017 L 0.237901 0.76001 L 0.2213 0.76001 Z M 0.45147 0.704454 L 0.45147 0.747097 L 0.476752 0.747097 C 0.485189 0.747097 0.491455 0.745361 0.495524 0.741889 C 0.49962 0.738363 0.501709 0.732964 0.501709 0.725722 C 0.501709 0.718424 0.49962 0.713081 0.495524 0.709663 C 0.491455 0.706217 0.485189 0.704454 0.476752 0.704454 Z M 0.45147 0.656494 L 0.45147 0.69165 L 0.474799 0.69165 C 0.482449 0.69165 0.488173 0.690213 0.491943 0.68731 C 0.495687 0.684435 0.497586 0.680013 0.497586 0.674072 C 0.497586 0.66824 0.495687 0.663845 0.491943 0.660943 C 0.488173 0.657986 0.482449 0.656494 0.474799 0.656494 Z M 0.435628 0.643582 L 0.475884 0.643582 C 0.487874 0.643582 0.497152 0.646105 0.503662 0.651069 C 0.510145 0.65606 0.513428 0.663167 0.513428 0.672336 C 0.513428 0.679498 0.511746 0.685194 0.508436 0.689372 C 0.5051 0.693576 0.500217 0.696181 0.493788 0.697184 C 0.501519 0.698866 0.507514 0.702338 0.5118 0.707601 C 0.516113 0.712891 0.518311 0.71951 0.518311 0.727458 C 0.518311 0.73782 0.514757 0.74585 0.507677 0.751546 C 0.50057 0.757189 0.490506 0.76001 0.477512 0.76001 L 0.435628 0.76001 Z M 0.722873 0.652588 L 0.722873 0.669189 C 0.717584 0.664225 0.711941 0.660509 0.705946 0.658122 C 0.699924 0.65568 0.693522 0.654433 0.68674 0.654433 C 0.673421 0.654433 0.663222 0.658529 0.656141 0.666694 C 0.649116 0.674805 0.645616 0.686578 0.645616 0.701959 C 0.645616 0.717312 0.649116 0.729058 0.656141 0.737223 C 0.663222 0.745334 0.673421 0.749376 0.68674 0.749376 C 0.693522 0.749376 0.699924 0.748155 0.705946 0.745687 C 0.711941 0.743245 0.717584 0.739556 0.722873 0.734619 L 0.722873 0.751004 C 0.717367 0.754774 0.711534 0.757595 0.705404 0.759467 C 0.699246 0.761339 0.692735 0.762288 0.685872 0.762288 C 0.668213 0.762288 0.654324 0.756917 0.644206 0.746121 C 0.63406 0.735352 0.629015 0.720622 0.629015 0.701959 C 0.629015 0.683241 0.63406 0.668484 0.644206 0.657688 C 0.654324 0.646864 0.668213 0.641412 0.685872 0.641412 C 0.69279 0.641412 0.699354 0.642361 0.705512 0.644233 C 0.711643 0.646132 0.717448 0.648926 0.722873 0.652588 Z M 0.851454 0.656494 L 0.851454 0.747097 L 0.870443 0.747097 C 0.886475 0.747097 0.898248 0.743462 0.905707 0.736138 C 0.91314 0.728841 0.916884 0.717339 0.916884 0.701633 C 0.916884 0.686089 0.91314 0.674696 0.905707 0.667453 C 0.898248 0.660156 0.886475 0.656494 0.870443 0.656494 Z M 0.835612 0.643582 L 0.868056 0.643582 C 0.890598 0.643582 0.907172 0.648302 0.917752 0.657688 C 0.928304 0.667019 0.933594 0.681695 0.933594 0.701633 C 0.933594 0.721761 0.92825 0.736518 0.917643 0.745904 C 0.90701 0.755317 0.890462 0.76001 0.868056 0.76001 L 0.835612 0.76001 Z M 0.0356174 0.84356 L 0.109294 0.84356 L 0.109294 0.856798 L 0.0514594 0.856798 L 0.0514594 0.891303 L 0.106906 0.891303 L 0.106906 0.904541 L 0.0514594 0.904541 L 0.0514594 0.94675 L 0.110704 0.94675 L 0.110704 0.959988 L 0.0356174 0.959988 Z M 0.235623 0.84356 L 0.302572 0.84356 L 0.302572 0.856798 L 0.251465 0.856798 L 0.251465 0.891086 L 0.29758 0.891086 L 0.29758 0.904433 L 0.251465 0.904433 L 0.251465 0.959988 L 0.235623 0.959988 Z M 0.515055 0.943387 L 0.515055 0.912137 L 0.489339 0.912137 L 0.489339 0.899116 L 0.53068 0.899116 L 0.53068 0.949137 C 0.524604 0.953478 0.517849 0.956787 0.510498 0.959012 C 0.503174 0.961155 0.495361 0.962267 0.487061 0.962267 C 0.468886 0.962267 0.454671 0.95695 0.444417 0.946316 C 0.434136 0.93571 0.429009 0.920898 0.429009 0.901937 C 0.429009 0.882867 0.434136 0.867974 0.444417 0.85734 C 0.454671 0.846734 0.468886 0.84139 0.487061 0.84139 C 0.494629 0.84139 0.501845 0.842339 0.508653 0.844211 C 0.515516 0.84611 0.521837 0.848904 0.527642 0.852566 L 0.527642 0.869276 C 0.521783 0.864366 0.515544 0.860677 0.508979 0.858209 C 0.502469 0.855686 0.495578 0.854411 0.488363 0.854411 C 0.474094 0.854411 0.463379 0.858398 0.456245 0.866347 C 0.449137 0.874322 0.445611 0.886176 0.445611 0.901937 C 0.445611 0.917643 0.449137 0.92947 0.456245 0.937419 C 0.463379 0.945394 0.474094 0.949354 0.488363 0.949354 C 0.493924 0.949354 0.498888 0.948893 0.503228 0.947944 C 0.507623 0.94694 0.511583 0.945421 0.515055 0.943387 Z M 0.635634 0.84356 L 0.651476 0.84356 L 0.651476 0.891303 L 0.708659 0.891303 L 0.708659 0.84356 L 0.724392 0.84356 L 0.724392 0.959988 L 0.708659 0.959988 L 0.708659 0.904541 L 0.651476 0.904541 L 0.651476 0.959988 L 0.635634 0.959988 Z M 0.835612 0.84356 L 0.851454 0.84356 L 0.851454 0.959988 L 0.835612 0.959988 Z M 0.835612 0.84356 " transform="matrix(144,0,0,144,0,0)"/>
</g>
</svg>
