<?xml version="1.0" encoding="UTF-8" standalone="no"?>
<!-- Created with Inkscape (http://www.inkscape.org/) -->
<svg
   xmlns:i="http://ns.adobe.com/AdobeIllustrator/10.0/"
   xmlns:dc="http://purl.org/dc/elements/1.1/"
   xmlns:cc="http://web.resource.org/cc/"
   xmlns:rdf="http://www.w3.org/1999/02/22-rdf-syntax-ns#"
   xmlns:svg="http://www.w3.org/2000/svg"
   xmlns="http://www.w3.org/2000/svg"
   xmlns:sodipodi="http://sodipodi.sourceforge.net/DTD/sodipodi-0.dtd"
   xmlns:inkscape="http://www.inkscape.org/namespaces/inkscape"
   id="svg2537"
   sodipodi:version="0.32"
   inkscape:version="0.45.1"
   width="63"
   height="92"
   version="1.0"
   sodipodi:docbase="/usr/local/share/screenlets/TodayCalendar/themes/Xubuntu"
   sodipodi:docname="sticker.svg"
   inkscape:output_extension="org.inkscape.output.svg.inkscape">
  <metadata
     id="metadata2542">
    <rdf:RDF>
      <cc:Work
         rdf:about="">
        <dc:format>image/svg+xml</dc:format>
        <dc:type
           rdf:resource="http://purl.org/dc/dcmitype/StillImage" />
      </cc:Work>
    </rdf:RDF>
  </metadata>
  <defs
     id="defs2540" />
  <sodipodi:namedview
     inkscape:window-height="606"
     inkscape:window-width="816"
     inkscape:pageshadow="2"
     inkscape:pageopacity="0.0"
     guidetolerance="10.0"
     gridtolerance="10.0"
     objecttolerance="10.0"
     borderopacity="1.0"
     bordercolor="#666666"
     pagecolor="#ffffff"
     id="base"
     width="63px"
     height="92px"
     inkscape:zoom="0.35824168"
     inkscape:cx="372.04724"
     inkscape:cy="526.18109"
     inkscape:window-x="422"
     inkscape:window-y="228"
     inkscape:current-layer="svg2537" />
  <g
     id="g3609"
     inkscape:export-filename="/home/peterm/Foto's/afbeeldingen/svg/stickers7.png"
     inkscape:export-xdpi="222"
     inkscape:export-ydpi="222"
     transform="translate(-220.00001,-105.99999)">
    <rect
       style="fill:#98a1b9;fill-opacity:1;stroke:#33394d;stroke-width:1.35679841;stroke-miterlimit:4;stroke-dasharray:none;stroke-opacity:1"
       id="rect3486"
       width="61.360596"
       height="90.304268"
       x="220.67841"
       y="107.01733"
       rx="30.680298"
       ry="12.633808"
       inkscape:export-filename="/home/peterm/Foto's/afbeeldingen/svg/capsulasvgmandriva.png"
       inkscape:export-xdpi="430.06262"
       inkscape:export-ydpi="430.06262" />
    <path
       style="fill:#33394d;fill-opacity:1;stroke:#33394d;stroke-width:1.33700001;stroke-miterlimit:4;stroke-dasharray:none;stroke-opacity:1"
       d="M 282.03899,170.50384 L 282.03899,184.68779 C 282.03899,191.68693 268.35558,197.32161 251.3587,197.32161 C 234.36182,197.32161 220.6784,191.68693 220.6784,184.68779 L 220.6784,170.50384 L 282.03899,170.50384 z "
       id="path3488"
       sodipodi:nodetypes="ccsccc"
       inkscape:export-filename="/home/peterm/Foto's/afbeeldingen/svg/capsulasvgmandriva.png"
       inkscape:export-xdpi="430.06262"
       inkscape:export-ydpi="430.06262" />
    <path
       transform="matrix(0.3624195,0,0,0.3624195,181.83296,76.254833)"
       d="M 262.95515 167.93272 A 71.117416 71.117416 0 1 1  120.72032,167.93272 A 71.117416 71.117416 0 1 1  262.95515 167.93272 z"
       sodipodi:ry="71.117416"
       sodipodi:rx="71.117416"
       sodipodi:cy="167.93272"
       sodipodi:cx="191.83774"
       id="path3490"
       style="fill:#ffffff;fill-opacity:1;stroke:none;stroke-width:1.80299997;stroke-miterlimit:4;stroke-dasharray:none;stroke-opacity:1"
       sodipodi:type="arc"
       inkscape:export-filename="/home/peterm/Foto's/afbeeldingen/svg/capsulasvgmandriva.png"
       inkscape:export-xdpi="430.06262"
       inkscape:export-ydpi="430.06262" />
    <text
       xml:space="preserve"
       style="font-size:3.39017987px;font-style:normal;font-variant:normal;font-weight:bold;font-stretch:normal;text-align:start;line-height:125%;writing-mode:lr-tb;text-anchor:start;fill:#ffffff;fill-opacity:1;stroke:none;stroke-width:1px;stroke-linecap:butt;stroke-linejoin:miter;stroke-opacity:1;font-family:Bitstream Vera Sans"
       x="224.52823"
       y="167.97723"
       id="text3492"
       sodipodi:linespacing="125%"
       inkscape:export-filename="/home/peterm/Foto's/afbeeldingen/svg/capsulasvgmandriva.png"
       inkscape:export-xdpi="430.06262"
       inkscape:export-ydpi="430.06262"><tspan
         sodipodi:role="line"
         id="tspan3494"
         x="224.52823"
         y="167.97723">Powered By</tspan></text>
    <g
       transform="matrix(0.1409427,0,0,0.1409427,168.83385,101.44446)"
       id="g1365">
      <path
         style="fill:#606a87;fill-opacity:1"
         id="path117"
         d="M 557.18946,184.33919 L 532.40148,141.40793 C 557.51619,129.00138 585.10657,125.99792 610.91245,131.25397 C 609.03056,147.51852 616.72772,164.10667 631.811,172.81545 C 646.90056,181.52737 665.12552,179.89683 678.27351,170.12302 C 683.5924,176.15193 688.39292,182.79347 692.56823,190.02251 C 701.83623,206.07971 707.05772,223.35905 708.54689,240.68235 L 658.7793,240.42473 C 655.60933,219.17431 643.13366,199.51671 623.07708,187.94271 C 602.15654,175.85661 577.733,175.31624 557.18946,184.33919 L 557.18946,184.33919 z "
         i:knockout="Off" />
      <path
         style="fill:#98a1b9;fill-opacity:1"
         id="path119"
         d="M 514.59436,350.3652 C 501.08508,340.57253 489.37284,327.85181 480.49441,312.4638 C 476.1683,304.97085 472.725,297.214 470.12996,289.31264 C 475.14096,285.85678 479.48278,281.26362 482.72816,275.63684 C 494.1702,255.82218 487.77372,230.60694 468.5277,218.57424 C 475.76302,192.43219 491.64114,168.65899 514.90853,151.92318 L 539.82846,195.08692 C 533.41312,200.43723 527.81461,206.9908 523.39425,214.65026 C 505.38606,245.84101 513.02352,284.80117 539.75934,307.11348 L 514.59436,350.3652 L 514.59436,350.3652 z "
         i:knockout="Off" />
      <path
         style="fill:#33394d;fill-opacity:1"
         id="path121"
         d="M 611.3837,371.17265 C 584.32742,376.7837 556.35691,372.95085 532.06847,360.91815 L 557.1015,317.8895 C 590.76789,332.81569 630.96273,320.23635 649.79091,287.62241 C 654.70767,279.10213 657.71113,270.00693 658.93953,260.83004 L 708.58458,261.08766 C 706.28487,289.31578 694.24275,316.40662 673.86258,337.10411 C 653.75259,326.1553 628.46195,333.18327 616.95078,353.1299 C 613.64885,358.83835 611.8361,365.0055 611.3837,371.17265 L 611.3837,371.17265 z "
         i:knockout="Off" />
      <path
         style="fill:#98a1b9;fill-opacity:1"
         id="path123"
         d="M 628.56248,359.8374 C 636.54868,346.00767 654.23641,341.26371 668.06929,349.24675 C 681.89903,357.23923 686.64299,374.92697 678.65365,388.75671 C 670.67061,402.58644 652.97973,407.3304 639.14999,399.34108 C 625.31711,391.35803 620.57943,373.67029 628.56248,359.8374 L 628.56248,359.8374 z "
         i:knockout="Off" />
      <path
         style="fill:#33394d;fill-opacity:1"
         id="path125"
         d="M 627.92786,121.68124 C 635.91405,107.84835 653.60179,103.11068 667.43467,111.09686 C 681.26755,119.08305 686.00836,136.77079 678.01904,150.60367 C 670.03599,164.43341 652.34825,169.17422 638.51537,161.18804 C 624.6762,153.20499 619.94167,135.51726 627.92786,121.68124 L 627.92786,121.68124 z "
         i:knockout="Off" />
      <path
         style="fill:#606a87;fill-opacity:1"
         id="path127"
         d="M 421.00956,239.98804 C 428.99575,226.15515 446.68035,221.41748 460.51323,229.40367 C 474.34611,237.38985 479.08693,255.07759 471.10074,268.90419 C 463.11456,282.74022 445.42681,287.47475 431.59393,279.49485 C 417.76105,271.5118 413.02338,253.82092 421.00956,239.98804 L 421.00956,239.98804 z "
         i:knockout="Off" />
      <path
         d="M 485.06376,211.24314 C 485.62359,211.14951 499.58289,218.51779 508.96575,221.06408 C 525.69712,225.3398 540.96962,238.20858 548.35146,245.60082 C 548.8988,246.23349 554.69168,241.2637 560.75406,241.62166 C 569.03494,242.12322 594.65805,249.32815 598.08152,244.42185 C 600.15747,241.54154 600.00866,238.00775 602.59866,236.56031 C 603.99302,236.1701 597.41556,224.14002 604.40614,220.28574 C 609.39048,217.79459 613.61417,231.74141 614.89409,233.30436 C 615.46744,234.00362 618.50903,234.17428 618.149,232.58116 C 617.75879,230.85068 612.83894,217.46788 618.87219,215.22232 C 628.67128,211.342 626.93456,232.34598 627.18951,232.94328 C 627.73164,234.21486 661.3172,235.19508 663.35361,250.30213 C 664.53155,258.61631 636.44645,269.36232 633.69934,271.27698 C 630.95326,273.19163 631.18218,276.25404 632.25294,278.14893 C 633.48394,280.20406 641.66597,287.14053 640.57127,290.44435 C 639.81893,292.35277 624.54852,285.35802 623.57351,286.82836 C 621.34981,289.63687 634.68997,296.66698 630.08334,301.6555 C 628.25714,302.85007 607.24587,292.85848 607.29892,292.97607 C 606.73495,293.19042 577.60927,298.29653 555.22236,291.52863 C 554.43362,291.30595 540.85412,304.64611 539.30991,304.18722 C 537.19858,303.41302 542.42226,292.58481 541.84163,290.44435 C 540.89261,289.25185 532.21528,295.28614 531.7158,292.25287 C 531.11851,288.26642 539.33073,283.68374 538.94882,281.04172 C 536.83126,266.03249 539.89471,257.26773 545.09654,249.94105 C 546.83118,247.24388 524.70961,230.53851 508.69416,223.94543 C 492.67972,217.35235 484.11164,211.76448 485.06376,211.24314 z M 628.988,261.42731 C 628.81215,260.81337 639.91715,254.09646 641.52484,255.64067 C 644.41867,256.68957 629.08999,262.20669 628.988,261.42731 z M 634.29179,267.53548 C 633.31367,266.94443 640.94005,258.05168 642.81099,259.0163 C 645.54249,261.73011 634.16381,267.74671 634.29179,267.53548 z M 664.34877,226.38806 C 663.42163,225.62116 656.15113,237.09244 657.75883,238.28286 C 658.72553,239.00606 664.76293,226.79701 664.34877,226.38806 z M 634.366,242.80675 C 634.366,244.62942 633.06674,246.10869 631.46588,246.10869 C 629.865,246.10869 628.56575,244.62942 628.56575,242.80675 C 628.56575,240.98407 629.865,239.5048 631.46588,239.5048 C 633.06674,239.5048 634.366,240.98407 634.366,242.80675 z M 655.9908,224.78075 C 655.53192,224.24798 653.09697,236.61 654.22287,237.15734 C 655.18955,237.88053 656.87321,225.42383 655.9908,224.78075 z M 624.95588,241.51073 C 622.07247,243.54921 626.53859,255.08501 633.88401,248.34938 C 628.11297,248.51899 626.18793,246.8291 624.95588,241.51073 z "
         style="fill:#33394d;fill-opacity:1;fill-rule:evenodd;stroke:none;stroke-width:0.27218699pt;stroke-linecap:butt;stroke-linejoin:miter;stroke-opacity:1"
         id="path14" />
    </g>
    <text
       sodipodi:linespacing="125%"
       id="text3603"
       y="186.85318"
       x="222.69437"
       style="font-size:18.03709793px;font-style:normal;font-variant:normal;font-weight:normal;font-stretch:normal;text-align:start;line-height:125%;writing-mode:lr-tb;text-anchor:start;fill:#ffffff;fill-opacity:1;stroke:none;stroke-width:1px;stroke-linecap:butt;stroke-linejoin:miter;stroke-opacity:1;font-family:Ubuntu-Title"
       xml:space="preserve"><tspan
         y="186.85318"
         x="222.69437"
         id="tspan3605"
         sodipodi:role="line">xubuntu</tspan></text>
  </g>
</svg>
