<?xml version="1.0" encoding="UTF-8" standalone="no"?>
<!-- Created with Inkscape (http://www.inkscape.org/) -->
<svg
   xmlns:dc="http://purl.org/dc/elements/1.1/"
   xmlns:cc="http://web.resource.org/cc/"
   xmlns:rdf="http://www.w3.org/1999/02/22-rdf-syntax-ns#"
   xmlns:svg="http://www.w3.org/2000/svg"
   xmlns="http://www.w3.org/2000/svg"
   xmlns:sodipodi="http://sodipodi.sourceforge.net/DTD/sodipodi-0.dtd"
   xmlns:inkscape="http://www.inkscape.org/namespaces/inkscape"
   id="svg2537"
   sodipodi:version="0.32"
   inkscape:version="0.45.1"
   width="63"
   height="92"
   version="1.0"
   sodipodi:docbase="/usr/local/share/screenlets/TodayCalendar/themes/Mandriva"
   sodipodi:docname="sticker.svg"
   inkscape:output_extension="org.inkscape.output.svg.inkscape">
  <metadata
     id="metadata2542">
    <rdf:RDF>
      <cc:Work
         rdf:about="">
        <dc:format>image/svg+xml</dc:format>
        <dc:type
           rdf:resource="http://purl.org/dc/dcmitype/StillImage" />
      </cc:Work>
    </rdf:RDF>
  </metadata>
  <defs
     id="defs2540" />
  <sodipodi:namedview
     inkscape:window-height="606"
     inkscape:window-width="816"
     inkscape:pageshadow="2"
     inkscape:pageopacity="0.0"
     guidetolerance="10.0"
     gridtolerance="10.0"
     objecttolerance="10.0"
     borderopacity="1.0"
     bordercolor="#666666"
     pagecolor="#ffffff"
     id="base"
     width="63px"
     height="92px"
     inkscape:zoom="0.35824168"
     inkscape:cx="372.04724"
     inkscape:cy="526.18109"
     inkscape:window-x="422"
     inkscape:window-y="228"
     inkscape:current-layer="svg2537" />
  <g
     id="g8648"
     transform="translate(-9.9999999,-10.999997)"
     inkscape:export-filename="/home/peterm/Foto's/afbeeldingen/svg/stickers7.png"
     inkscape:export-xdpi="222.11082"
     inkscape:export-ydpi="222.11082">
    <rect
       inkscape:export-ydpi="430.06262"
       inkscape:export-xdpi="430.06262"
       inkscape:export-filename="/home/peterm/Foto's/afbeeldingen/svg/capsulasvgmandriva.png"
       ry="12.633808"
       rx="30.680298"
       y="12.01733"
       x="10.678399"
       height="90.304268"
       width="61.360596"
       id="rect2219"
       style="fill:#ffc80b;fill-opacity:1;stroke:#5975bf;stroke-width:1.35679841;stroke-miterlimit:4;stroke-dasharray:none;stroke-opacity:1" />
    <path
       inkscape:export-ydpi="430.06262"
       inkscape:export-xdpi="430.06262"
       inkscape:export-filename="/home/peterm/Foto's/afbeeldingen/svg/capsulasvgmandriva.png"
       sodipodi:nodetypes="ccsccc"
       id="rect2221"
       d="M 72.038991,75.503835 L 72.038991,89.687792 C 72.038991,96.686923 58.355579,102.3216 41.358695,102.3216 C 24.361811,102.3216 10.678398,96.686923 10.678398,89.687792 L 10.678398,75.503835 L 72.038991,75.503835 z "
       style="fill:#5975bf;fill-opacity:1;stroke:#5975bf;stroke-width:1.33700001;stroke-miterlimit:4;stroke-dasharray:none;stroke-opacity:1" />
    <path
       inkscape:export-ydpi="430.06262"
       inkscape:export-xdpi="430.06262"
       inkscape:export-filename="/home/peterm/Foto's/afbeeldingen/svg/capsulasvgmandriva.png"
       sodipodi:type="arc"
       style="fill:#ffffff;fill-opacity:1;stroke:none;stroke-width:1.80299997;stroke-miterlimit:4;stroke-dasharray:none;stroke-opacity:1"
       id="path3197"
       sodipodi:cx="191.83774"
       sodipodi:cy="167.93272"
       sodipodi:rx="71.117416"
       sodipodi:ry="71.117416"
       d="M 262.95515 167.93272 A 71.117416 71.117416 0 1 1  120.72032,167.93272 A 71.117416 71.117416 0 1 1  262.95515 167.93272 z"
       transform="matrix(0.3624195,0,0,0.3624195,-28.167041,-18.74517)" />
    <g
       inkscape:export-ydpi="430.06262"
       inkscape:export-xdpi="430.06262"
       inkscape:export-filename="/home/peterm/Foto's/afbeeldingen/svg/capsulasvgmandriva.png"
       id="g132"
       style="font-size:12px"
       transform="matrix(7.3753782e-2,0,0,7.3753782e-2,13.21386,20.006143)">
      <path
         id="path3951"
         style="fill:#ffe600;fill-rule:evenodd;stroke-width:1pt"
         transform="translate(-13.75,-1.25)"
         d="M 708.297,259.259 C 690.678,262.046 660.812,257.973 655.439,267.621 C 650.045,277.306 687.223,331.211 675.997,317.258 C 664.902,303.468 653.646,275.679 642.712,275.886 C 631.649,276.096 603.597,335.231 610.005,318.508 L 629.063,268.773 C 630.899,263.982 630.36,258.136 628.397,253.396 C 621.545,236.85 614.692,220.305 607.84,203.759 C 601.047,187.356 630.388,245.338 641.382,245.131 C 652.472,244.922 680.498,185.786 674.09,202.509 C 667.737,219.087 649.356,242.827 655.032,252.244 C 660.758,261.743 725.985,256.461 708.297,259.259 z " />
      <path
         id="path219"
         style="fill:#5975bf;fill-rule:evenodd;stroke-width:1pt"
         transform="translate(-13.1135,-29.5055)"
         d="M 394.217,440.036 C 85.056,707.637 8.31109,299.127 192.514,162.317 C 108.338,264.216 92.0425,620.229 394.217,440.036 z " />
      <polygon
         id="polygon223"
         style="fill:#ffc600;fill-rule:evenodd;stroke-width:1pt"
         transform="matrix(1,-2.07935e-2,0,1,-1.25,6.91304)"
         points="500.797,493.562 389.739,375.804 240.726,439.019 318.401,297.007 212.232,174.822 371.297,204.812 454.694,66.0817 475.326,226.629 633.037,263.074 486.723,332.308 500.797,493.562 " />
    </g>
    <path
       inkscape:export-ydpi="430.06262"
       inkscape:export-xdpi="430.06262"
       inkscape:export-filename="/home/peterm/Foto's/afbeeldingen/svg/capsulasvgmandriva.png"
       id="text2272"
       d="M 15.013021,81.789932 L 17.48977,81.789932 L 19.208335,86.515054 L 20.93813,81.789932 L 23.409266,81.789932 L 23.409266,90.619225 L 21.567147,90.619225 L 21.567147,84.161363 L 19.831736,88.921965 L 18.596165,88.921965 L 16.860756,84.161363 L 16.860756,90.619225 L 15.013021,90.619225 L 15.013021,81.789932 M 27.784301,87.638676 C 27.406138,87.63868 27.121581,87.713584 26.930636,87.863398 C 26.73968,88.013218 26.644205,88.233996 26.644207,88.525743 C 26.644205,88.793836 26.720959,89.004761 26.874473,89.15852 C 27.027978,89.308334 27.241395,89.383243 27.514721,89.383243 C 27.855434,89.383243 28.141861,89.241313 28.374003,88.957448 C 28.606136,88.669646 28.722201,88.310876 28.722208,87.881139 L 28.722208,87.638676 L 27.784301,87.638676 M 30.547476,86.840312 L 30.547476,90.619225 L 28.722208,90.619225 L 28.722208,89.637535 C 28.478835,90.039678 28.205511,90.333394 27.90224,90.518691 C 27.598962,90.700047 27.230161,90.790727 26.795843,90.790727 C 26.208012,90.790727 25.730634,90.591629 25.36371,90.193433 C 25.000527,89.791294 24.818935,89.270882 24.818935,88.632192 C 24.818935,87.855514 25.047329,87.285818 25.504114,86.923105 C 25.9609,86.560395 26.677903,86.37904 27.655125,86.379037 L 28.722208,86.379037 L 28.722208,86.213449 C 28.722201,85.878337 28.608008,85.633902 28.379616,85.480138 C 28.154964,85.322444 27.804889,85.243591 27.329387,85.243586 C 26.939993,85.243591 26.578683,85.288932 26.245455,85.379605 C 25.912224,85.470287 25.601463,85.606306 25.313165,85.787657 L 25.313165,84.173193 C 25.702554,84.062806 26.091942,83.980013 26.481336,83.924811 C 26.874468,83.865677 27.265732,83.836112 27.655125,83.836105 C 28.677272,83.836112 29.414868,84.072662 29.867917,84.545759 C 30.320949,85.014928 30.547472,85.779775 30.547476,86.840312 M 37.921573,86.586017 L 37.921573,90.619225 L 36.101918,90.619225 L 36.101918,89.962796 L 36.101918,87.532229 C 36.101913,86.960562 36.090682,86.566311 36.068222,86.349468 C 36.04575,86.132634 36.008308,85.972959 35.955896,85.870452 C 35.884755,85.732465 35.787404,85.62602 35.663853,85.551102 C 35.544035,85.472259 35.407374,85.432833 35.253867,85.432826 C 34.875707,85.432833 34.578047,85.604333 34.360889,85.947329 C 34.14747,86.286389 34.040764,86.757522 34.040769,87.360724 L 34.040769,90.619225 L 32.232343,90.619225 L 32.232343,83.995777 L 34.040769,83.995777 L 34.040769,84.96564 C 34.314085,84.579278 34.604255,84.295413 34.91128,84.114053 C 35.218297,83.928758 35.557138,83.836112 35.927815,83.836105 C 36.579289,83.836112 37.073517,84.070693 37.410493,84.539845 C 37.751207,85.009012 37.921565,85.691071 37.921573,86.586017 M 43.453546,84.96564 L 43.453546,81.417361 L 45.273201,81.417361 L 45.273201,90.619225 L 43.453546,90.619225 L 43.453546,89.661191 C 43.202681,90.051505 42.927489,90.337336 42.627962,90.518691 C 42.328425,90.700047 41.980221,90.790727 41.583348,90.790727 C 40.886932,90.790727 40.314081,90.467439 39.864785,89.820864 C 39.419228,89.170347 39.196452,88.334534 39.196452,87.313414 C 39.196452,86.292304 39.419228,85.458461 39.864785,84.811881 C 40.314081,84.161368 40.886932,83.836112 41.583348,83.836105 C 41.976478,83.836112 42.322811,83.928758 42.622347,84.114053 C 42.925617,84.295413 43.202681,84.579278 43.453546,84.96564 M 42.257291,89.25314 C 42.646678,89.25314 42.942466,89.087556 43.144653,88.756381 C 43.350576,88.425209 43.453543,87.944223 43.453546,87.313414 C 43.453543,86.682616 43.350576,86.201624 43.144653,85.870452 C 42.942466,85.539282 42.646678,85.373696 42.257291,85.373694 C 41.875386,85.373696 41.58147,85.539282 41.375546,85.870452 C 41.173359,86.201624 41.072267,86.682616 41.07227,87.313414 C 41.072267,87.944223 41.173359,88.425209 41.375546,88.756381 C 41.58147,89.087556 41.875386,89.25314 42.257291,89.25314 M 51.220773,85.799484 C 51.059772,85.712753 50.900645,85.649674 50.743396,85.610241 C 50.589884,85.566881 50.432629,85.545196 50.271634,85.545191 C 49.807357,85.545196 49.449792,85.720638 49.198937,86.071519 C 48.948078,86.418465 48.822649,86.917194 48.822652,87.567709 L 48.822652,90.619225 L 47.014228,90.619225 L 47.014228,83.995777 L 48.822652,83.995777 L 48.822652,85.083914 C 49.054784,84.650244 49.32062,84.334839 49.620153,84.137707 C 49.923426,83.936645 50.286608,83.836112 50.709699,83.836105 C 50.769602,83.836112 50.835125,83.840052 50.906269,83.847931 C 50.9774,83.851879 51.080367,83.863708 51.215159,83.883415 L 51.220773,85.799484 M 52.113755,83.995777 L 53.922176,83.995777 L 53.922176,90.619225 L 52.113755,90.619225 L 52.113755,83.995777 M 52.113755,81.417361 L 53.922176,81.417361 L 53.922176,83.144188 L 52.113755,83.144188 L 52.113755,81.417361 M 54.949944,83.995777 L 56.758365,83.995777 L 58.168039,88.573053 L 59.572089,83.995777 L 61.38613,83.995777 L 59.162107,90.619225 L 57.173965,90.619225 L 54.949944,83.995777 M 64.941194,87.638676 C 64.563032,87.63868 64.278476,87.713584 64.08753,87.863398 C 63.896574,88.013218 63.801097,88.233996 63.8011,88.525743 C 63.801097,88.793836 63.877854,89.004761 64.031367,89.15852 C 64.184876,89.308334 64.398288,89.383243 64.671616,89.383243 C 65.012329,89.383243 65.298756,89.241313 65.530898,88.957448 C 65.76303,88.669646 65.879099,88.310876 65.879102,87.881139 L 65.879102,87.638676 L 64.941194,87.638676 M 67.704372,86.840312 L 67.704372,90.619225 L 65.879102,90.619225 L 65.879102,89.637535 C 65.635726,90.039678 65.362405,90.333394 65.059135,90.518691 C 64.755853,90.700047 64.387057,90.790727 63.952741,90.790727 C 63.364906,90.790727 62.887529,90.591629 62.520601,90.193433 C 62.157423,89.791294 61.97583,89.270882 61.97583,88.632192 C 61.97583,87.855514 62.204223,87.285818 62.661008,86.923105 C 63.117793,86.560395 63.834797,86.37904 64.812019,86.379037 L 65.879102,86.379037 L 65.879102,86.213449 C 65.879099,85.878337 65.764901,85.633902 65.536512,85.480138 C 65.311859,85.322444 64.961783,85.243591 64.486281,85.243586 C 64.096887,85.243591 63.735579,85.288932 63.402349,85.379605 C 63.069119,85.470287 62.758357,85.606306 62.470059,85.787657 L 62.470059,84.173193 C 62.859446,84.062806 63.24884,83.980013 63.63823,83.924811 C 64.031364,83.865677 64.422626,83.836112 64.812019,83.836105 C 65.834167,83.836112 66.571763,84.072662 67.024808,84.545759 C 67.477844,85.014928 67.704366,85.779775 67.704372,86.840312"
       style="font-size:38.03115082px;font-style:normal;font-variant:normal;font-weight:bold;font-stretch:normal;text-align:start;line-height:125%;writing-mode:lr-tb;text-anchor:start;fill:#ffffff;fill-opacity:1;stroke:none;stroke-width:0.2421557px;stroke-linecap:butt;stroke-linejoin:miter;stroke-opacity:1;font-family:DejaVu Sans Condensed" />
    <text
       inkscape:export-ydpi="430.06262"
       inkscape:export-xdpi="430.06262"
       inkscape:export-filename="/home/peterm/Foto's/afbeeldingen/svg/capsulasvgmandriva.png"
       sodipodi:linespacing="125%"
       id="text3321"
       y="72.977242"
       x="14.528224"
       style="font-size:3.39017987px;font-style:normal;font-variant:normal;font-weight:bold;font-stretch:normal;text-align:start;line-height:125%;writing-mode:lr-tb;text-anchor:start;fill:#ffffff;fill-opacity:1;stroke:none;stroke-width:1px;stroke-linecap:butt;stroke-linejoin:miter;stroke-opacity:1;font-family:Bitstream Vera Sans"
       xml:space="preserve"><tspan
         y="72.977242"
         x="14.528224"
         id="tspan3323"
         sodipodi:role="line">Powered By</tspan></text>
  </g>
</svg>
