<?xml version="1.0" encoding="UTF-8" standalone="no"?>
<!-- Created with Inkscape (http://www.inkscape.org/) -->
<svg
   xmlns:i="http://ns.adobe.com/AdobeIllustrator/10.0/"
   xmlns:dc="http://purl.org/dc/elements/1.1/"
   xmlns:cc="http://web.resource.org/cc/"
   xmlns:rdf="http://www.w3.org/1999/02/22-rdf-syntax-ns#"
   xmlns:svg="http://www.w3.org/2000/svg"
   xmlns="http://www.w3.org/2000/svg"
   xmlns:sodipodi="http://sodipodi.sourceforge.net/DTD/sodipodi-0.dtd"
   xmlns:inkscape="http://www.inkscape.org/namespaces/inkscape"
   id="svg2537"
   sodipodi:version="0.32"
   inkscape:version="0.45.1"
   width="63"
   height="92"
   version="1.0"
   sodipodi:docbase="/usr/local/share/screenlets/TodayCalendar/themes/ubuntu"
   sodipodi:docname="sticker.svg"
   inkscape:output_extension="org.inkscape.output.svg.inkscape">
  <metadata
     id="metadata2542">
    <rdf:RDF>
      <cc:Work
         rdf:about="">
        <dc:format>image/svg+xml</dc:format>
        <dc:type
           rdf:resource="http://purl.org/dc/dcmitype/StillImage" />
      </cc:Work>
    </rdf:RDF>
  </metadata>
  <defs
     id="defs2540" />
  <sodipodi:namedview
     inkscape:window-height="606"
     inkscape:window-width="816"
     inkscape:pageshadow="2"
     inkscape:pageopacity="0.0"
     guidetolerance="10.0"
     gridtolerance="10.0"
     objecttolerance="10.0"
     borderopacity="1.0"
     bordercolor="#666666"
     pagecolor="#ffffff"
     id="base"
     width="63px"
     height="92px"
     inkscape:zoom="0.35824168"
     inkscape:cx="372.04724"
     inkscape:cy="526.18109"
     inkscape:window-x="422"
     inkscape:window-y="228"
     inkscape:current-layer="svg2537" />
  <g
     id="g3180"
     inkscape:export-filename="/home/peterm/Foto's/afbeeldingen/svg/stickers7.png"
     inkscape:export-xdpi="222"
     inkscape:export-ydpi="222"
     transform="translate(-150.00001,-6.0000001)">
    <rect
       style="fill:#ffb515;fill-opacity:1;stroke:#c90016;stroke-width:1.35679841;stroke-miterlimit:4;stroke-dasharray:none;stroke-opacity:1"
       id="rect3871"
       width="61.360596"
       height="90.304268"
       x="150.67841"
       y="7.017333"
       rx="30.680298"
       ry="12.633808"
       inkscape:export-filename="/home/peterm/Foto's/afbeeldingen/svg/capsulasvgmandriva.png"
       inkscape:export-xdpi="430.06262"
       inkscape:export-ydpi="430.06262" />
    <path
       style="fill:#c90016;fill-opacity:1;stroke:#c90016;stroke-width:1.33700001;stroke-miterlimit:4;stroke-dasharray:none;stroke-opacity:1"
       d="M 212.03898,70.503837 L 212.03898,84.687795 C 212.03898,91.686925 198.35557,97.32161 181.35869,97.32161 C 164.36181,97.32161 150.67839,91.686925 150.67839,84.687795 L 150.67839,70.503837 L 212.03898,70.503837 z "
       id="path3873"
       sodipodi:nodetypes="ccsccc"
       inkscape:export-filename="/home/peterm/Foto's/afbeeldingen/svg/capsulasvgmandriva.png"
       inkscape:export-xdpi="430.06262"
       inkscape:export-ydpi="430.06262" />
    <path
       transform="matrix(0.3624195,0,0,0.3624195,111.83295,-23.745167)"
       d="M 262.95515 167.93272 A 71.117416 71.117416 0 1 1  120.72032,167.93272 A 71.117416 71.117416 0 1 1  262.95515 167.93272 z"
       sodipodi:ry="71.117416"
       sodipodi:rx="71.117416"
       sodipodi:cy="167.93272"
       sodipodi:cx="191.83774"
       id="path3875"
       style="fill:#ffffff;fill-opacity:1;stroke:none;stroke-width:1.80299997;stroke-miterlimit:4;stroke-dasharray:none;stroke-opacity:1"
       sodipodi:type="arc"
       inkscape:export-filename="/home/peterm/Foto's/afbeeldingen/svg/capsulasvgmandriva.png"
       inkscape:export-xdpi="430.06262"
       inkscape:export-ydpi="430.06262" />
    <text
       xml:space="preserve"
       style="font-size:3.39017987px;font-style:normal;font-variant:normal;font-weight:bold;font-stretch:normal;text-align:start;line-height:125%;writing-mode:lr-tb;text-anchor:start;fill:#ffffff;fill-opacity:1;stroke:none;stroke-width:1px;stroke-linecap:butt;stroke-linejoin:miter;stroke-opacity:1;font-family:Bitstream Vera Sans"
       x="154.52823"
       y="67.977242"
       id="text3887"
       sodipodi:linespacing="125%"
       inkscape:export-filename="/home/peterm/Foto's/afbeeldingen/svg/capsulasvgmandriva.png"
       inkscape:export-xdpi="430.06262"
       inkscape:export-ydpi="430.06262"><tspan
         sodipodi:role="line"
         id="tspan3889"
         x="154.52823"
         y="67.977242">Powered By</tspan></text>
    <g
       style="fill:#ffffff;fill-opacity:1"
       inkscape:export-ydpi="106"
       inkscape:export-xdpi="106"
       inkscape:export-filename="/home/peterm/Foto's/afbeeldingen/svg/kubuntuforum/readyforubuntugpl.png"
       transform="matrix(0.2235165,0,0,0.2235165,122.92925,71.048285)"
       i:rgbTrio="#4F008000FFFF"
       i:dimmedPercent="50"
       i:layer="yes"
       id="Layer_1">
      <g
         style="fill:#ffffff;fill-opacity:1"
         id="g3745">
        <g
           style="fill:#ffffff;fill-opacity:1"
           id="g3747"
           i:knockout="Off" />
      </g>
      <g
         style="fill:#ffffff;fill-opacity:1"
         id="g3755">
        <g
           style="fill:#ffffff;fill-opacity:1"
           id="g3757"
           i:knockout="Off" />
      </g>
      <g
         style="fill:#ffffff;fill-opacity:1"
         id="g3761" />
      <g
         style="fill:#ffffff;fill-opacity:1"
         transform="translate(-20.596,0)"
         id="g3771">
        <path
           style="fill:#ffffff;fill-opacity:1"
           id="path3773"
           d="M 370.813,35.241 C 370.813,33.236 371.266,31.745 372.174,30.766 C 373.078,29.764 374.279,29.264 375.774,29.262 C 377.294,29.262 378.518,29.764 379.45,30.766 C 380.382,31.769 380.846,33.26 380.848,35.241 L 380.848,48.268 C 380.848,51.967 381.1,54.544 381.61,55.995 C 382.12,57.42 382.93,58.534 384.048,59.332 C 385.185,60.13 386.579,60.527 388.226,60.527 C 389.874,60.527 391.267,60.141 392.406,59.366 C 393.568,58.568 394.427,57.408 394.986,55.886 C 395.398,54.749 395.603,52.32 395.605,48.594 L 395.605,35.194 C 395.605,33.205 396.056,31.725 396.955,30.755 C 397.855,29.761 399.047,29.264 400.531,29.262 C 402.037,29.262 403.252,29.761 404.177,30.755 C 405.099,31.75 405.56,33.23 405.564,35.194 L 405.564,45.983 C 405.564,52.874 405.017,57.59 403.927,60.13 C 402.593,63.225 400.63,65.606 398.038,67.275 C 395.446,68.918 392.151,69.74 388.153,69.741 C 383.815,69.741 380.301,68.773 377.612,66.84 C 374.948,64.906 373.069,62.209 371.979,58.752 C 371.204,56.357 370.817,52.005 370.817,45.694 L 370.813,35.241 L 370.813,35.241 z "
           i:knockout="Off" />
        <path
           style="fill:#ffffff;fill-opacity:1"
           id="path3775"
           d="M 293.76,63.761 C 293.76,65.766 294.213,67.257 295.121,68.238 C 296.027,69.24 297.226,69.74 298.723,69.741 C 300.243,69.741 301.467,69.24 302.399,68.238 C 303.329,67.235 303.794,65.744 303.794,63.761 L 303.796,50.734 C 303.796,47.035 304.05,44.46 304.558,43.009 C 305.068,41.582 305.878,40.47 306.996,39.673 C 308.133,38.875 309.527,38.476 311.174,38.476 C 312.821,38.476 314.215,38.863 315.354,39.637 C 316.518,40.435 317.377,41.596 317.936,43.119 C 318.346,44.255 318.551,46.684 318.553,50.41 L 318.553,63.809 C 318.553,65.799 319.004,67.278 319.905,68.25 C 320.803,69.244 321.995,69.74 323.477,69.741 C 324.985,69.741 326.202,69.244 327.125,68.25 C 328.047,67.254 328.508,65.775 328.51,63.809 L 328.51,53.02 C 328.51,46.128 327.965,41.414 326.875,38.874 C 325.543,35.779 323.58,33.397 320.988,31.728 C 318.394,30.085 315.099,29.263 311.101,29.262 C 306.763,29.262 303.251,30.23 300.56,32.164 C 297.896,34.097 296.017,36.793 294.927,40.251 C 294.152,42.645 293.765,46.998 293.765,53.309 L 293.76,63.761 L 293.76,63.761 z "
           i:knockout="Off" />
        <path
           style="fill:#ffffff;fill-opacity:1"
           id="path3777"
           d="M 248.336,35.241 C 248.336,33.236 248.789,31.745 249.695,30.766 C 250.601,29.764 251.8,29.264 253.299,29.262 C 254.817,29.262 256.041,29.764 256.973,30.766 C 257.905,31.769 258.369,33.26 258.369,35.241 L 258.369,48.268 C 258.369,51.967 258.625,54.544 259.135,55.995 C 259.643,57.42 260.453,58.534 261.569,59.332 C 262.708,60.13 264.1,60.527 265.749,60.527 C 267.395,60.527 268.79,60.141 269.929,59.366 C 271.091,58.568 271.952,57.408 272.509,55.886 C 272.919,54.749 273.126,52.32 273.128,48.594 L 273.128,35.194 C 273.128,33.205 273.579,31.725 274.478,30.755 C 275.376,29.761 276.57,29.264 278.054,29.262 C 279.558,29.262 280.775,29.761 281.7,30.755 C 282.622,31.75 283.085,33.23 283.085,35.194 L 283.085,45.983 C 283.085,52.874 282.54,57.59 281.448,60.13 C 280.116,63.225 278.153,65.606 275.561,67.275 C 272.967,68.918 269.672,69.74 265.674,69.741 C 261.338,69.741 257.826,68.773 255.135,66.84 C 252.471,64.906 250.594,62.209 249.502,58.752 C 248.727,56.357 248.34,52.005 248.34,45.694 L 248.336,35.241 L 248.336,35.241 z "
           i:knockout="Off" />
        <path
           style="fill:#ffffff;fill-opacity:1"
           id="path3779"
           d="M 158.448,35.241 C 158.448,33.236 158.901,31.745 159.808,30.766 C 160.714,29.764 161.914,29.264 163.41,29.262 C 164.928,29.262 166.154,29.764 167.086,30.766 C 168.008,31.761 168.474,33.239 168.482,35.194 L 168.482,48.268 C 168.482,51.967 168.736,54.544 169.245,55.995 C 169.754,57.42 170.564,58.534 171.68,59.332 C 172.818,60.13 174.212,60.527 175.86,60.527 C 177.506,60.527 178.901,60.141 180.04,59.366 C 181.202,58.568 182.062,57.408 182.619,55.886 C 183.031,54.749 183.236,52.32 183.238,48.594 L 183.238,35.194 C 183.238,33.205 183.689,31.725 184.59,30.755 C 185.488,29.761 186.68,29.264 188.163,29.262 C 189.67,29.262 190.887,29.761 191.81,30.755 C 192.733,31.75 193.195,33.23 193.197,35.194 L 193.197,45.983 C 193.197,52.874 192.651,57.59 191.56,60.13 C 190.228,63.225 188.265,65.606 185.673,67.275 C 183.079,68.918 179.784,69.74 175.786,69.741 C 171.449,69.741 167.936,68.773 165.246,66.84 C 162.58,64.906 160.703,62.209 159.613,58.752 C 158.837,56.357 158.449,52.005 158.449,45.694 L 158.448,35.241 L 158.448,35.241 z "
           i:knockout="Off" />
        <path
           style="fill:#ffffff;fill-opacity:1"
           id="path3781"
           d="M 236.752,38.86 C 236.619,38.552 236.481,38.251 236.336,37.958 C 236.565,38.431 236.779,38.927 236.981,39.442 C 236.907,39.237 236.831,39.043 236.752,38.86 L 236.752,38.86 z M 203.702,49.62 L 203.72,49.028 C 203.708,48.973 203.702,48.907 203.702,48.828 L 203.702,22.098 C 203.702,20.46 203.738,19.182 203.813,18.263 C 203.912,17.321 204.161,16.514 204.559,15.844 C 204.956,15.15 205.528,14.591 206.276,14.168 C 207.02,13.721 207.854,13.498 208.775,13.498 C 210.067,13.498 211.236,13.982 212.282,14.95 C 212.977,15.596 213.413,16.39 213.587,17.332 C 213.785,18.251 213.886,19.566 213.886,21.279 L 213.886,31.536 C 215.937,30.798 218.103,29.248 222.326,29.248 C 226.323,29.25 228.272,30.071 230.865,31.715 C 232.237,32.598 233.432,33.681 234.454,34.965 C 235.167,35.864 235.796,36.861 236.337,37.957 C 236.482,38.25 236.62,38.551 236.753,38.859 C 236.831,39.042 236.907,39.235 236.982,39.441 C 238.078,42.277 238.722,45.739 238.722,49.479 C 238.722,53.149 238.099,56.555 237.038,59.361 C 236.948,59.631 236.852,59.881 236.753,60.115 C 236.468,60.775 236.153,61.405 235.81,62.001 C 235.531,62.491 235.23,62.958 234.91,63.403 C 233.798,64.954 232.449,66.238 230.866,67.259 C 228.273,68.902 224.978,69.724 220.98,69.725 C 216.642,69.725 213.13,68.757 210.441,66.824 C 207.775,64.89 205.898,62.193 204.807,58.736 C 204.205,56.877 203.835,53.838 203.702,49.62 L 203.702,49.62 z M 225.618,60.34 C 226.573,59.686 227.342,58.808 227.926,57.708 C 228.011,57.611 228.081,57.506 228.137,57.392 C 229.181,55.213 229.8,52.494 229.8,49.548 C 229.8,46.702 229.224,44.071 228.244,41.931 C 227.633,40.516 226.758,39.417 225.618,38.636 C 224.364,37.784 222.833,37.359 221.02,37.359 C 219.207,37.359 217.674,37.798 216.422,38.676 C 215.195,39.554 214.303,40.778 213.744,42.347 C 213.316,43.562 213.053,45.496 212.951,48.148 C 212.91,52.254 213.189,55.049 213.744,56.63 C 214.303,58.201 215.195,59.423 216.422,60.3 C 217.674,61.18 219.207,61.617 221.02,61.617 C 222.833,61.617 224.364,61.193 225.618,60.34 L 225.618,60.34 z "
           i:knockout="Off" />
        <path
           style="fill:#ffffff;fill-opacity:1"
           id="path3783"
           d="M 340.524,28.563 L 341.645,28.563 L 341.645,22.345 C 341.645,20.677 341.68,19.375 341.754,18.439 C 341.854,17.479 342.104,16.658 342.5,15.974 C 342.898,15.266 343.469,14.698 344.217,14.268 C 344.963,13.812 345.793,13.585 346.715,13.585 C 348.008,13.585 349.176,14.078 350.221,15.064 C 350.918,15.721 351.352,16.53 351.528,17.491 C 351.725,18.427 351.825,19.765 351.825,21.509 L 351.825,28.562 L 355.555,28.562 C 356.994,28.562 358.09,28.916 358.836,29.624 C 359.607,30.306 359.992,31.191 359.992,32.278 C 359.992,33.669 359.445,34.641 358.351,35.197 C 357.281,35.754 355.74,36.031 353.728,36.031 L 351.824,36.031 L 351.824,55.065 C 351.824,56.683 351.873,57.936 351.974,58.82 C 352.097,59.678 352.396,60.386 352.87,60.943 C 353.364,61.474 354.161,61.738 355.255,61.738 C 355.853,61.738 356.661,61.637 357.681,61.434 C 358.699,61.207 359.495,61.093 360.068,61.093 C 360.888,61.093 361.621,61.434 362.267,62.117 C 362.939,62.776 363.275,63.597 363.275,64.581 C 363.275,66.25 362.38,67.526 360.589,68.411 C 358.798,69.294 356.224,69.737 352.87,69.738 C 349.684,69.738 347.272,69.194 345.632,68.108 C 343.992,67.022 342.911,65.518 342.388,63.596 C 341.89,61.674 341.644,59.109 341.644,55.899 L 341.644,36.033 L 340.3,36.033 C 338.833,36.033 337.712,35.68 336.943,34.971 C 336.17,34.263 335.789,33.367 335.789,32.28 C 335.789,31.193 336.184,30.309 336.982,29.626 C 337.801,28.918 338.981,28.564 340.524,28.563 L 340.524,28.563 z "
           i:knockout="Off" />
      </g>
    </g>
    <g
       transform="matrix(0.388974,-2.3862818e-3,2.3862818e-3,0.388974,160.44406,19.157962)"
       id="g2143">
      <circle
         i:knockout="Off"
         cx="9.1239996"
         cy="46.903999"
         r="9.1239996"
         id="circle2145"
         sodipodi:cx="9.1239996"
         sodipodi:cy="46.903999"
         sodipodi:rx="9.1239996"
         sodipodi:ry="9.1239996"
         style="fill:#ff6309" />
      <circle
         i:knockout="Off"
         cx="74.547997"
         cy="84.667"
         r="9.1239996"
         id="circle2147"
         sodipodi:cx="74.547997"
         sodipodi:cy="84.667"
         sodipodi:rx="9.1239996"
         sodipodi:ry="9.1239996"
         style="fill:#ffb515" />
      <path
         i:knockout="Off"
         d="M 52.739,24.327 C 64.1,24.327 73.526,32.763 75.087,43.7 L 90.719,43.7 C 90.009,35.106 86.446,27.096 80.489,20.779 C 76.674,22.722 71.983,22.759 67.998,20.459 C 64.01,18.156 61.696,14.072 61.474,9.792 C 58.643,9.132 55.718,8.79 52.739,8.79 C 47.035,8.79 41.523,10.035 36.51,12.396 L 44.336,25.951 C 46.935,24.905 49.771,24.327 52.739,24.327 z "
         id="path2149"
         style="fill:#ff6309" />
      <path
         i:knockout="Off"
         d="M 75.088,50.098 C 73.531,61.039 64.103,69.48 52.739,69.48 C 49.769,69.48 46.932,68.902 44.333,67.854 L 36.506,81.41 C 41.518,83.772 47.032,85.018 52.738,85.018 C 55.719,85.018 58.648,84.674 61.48,84.014 C 61.698,79.729 64.013,75.638 68.004,73.334 C 71.99,71.032 76.683,71.069 80.499,73.016 C 86.451,66.698 90.01,58.689 90.718,50.098 L 75.088,50.098 L 75.088,50.098 z "
         id="path2151"
         style="fill:#c90016" />
      <path
         i:knockout="Off"
         d="M 30.163,46.904 C 30.163,39.711 33.544,33.294 38.799,29.157 L 30.975,15.604 C 29.14,16.886 27.404,18.337 25.787,19.953 C 21.259,24.481 18.012,29.948 16.225,35.915 C 19.825,38.247 22.209,42.295 22.209,46.904 C 22.209,51.512 19.825,55.561 16.225,57.892 C 18.012,63.859 21.259,69.326 25.787,73.854 C 27.403,75.47 29.137,76.919 30.971,78.202 L 38.796,64.648 C 33.542,60.511 30.163,54.094 30.163,46.904 z "
         id="path2153"
         style="fill:#ffb515" />
      <circle
         i:knockout="Off"
         cx="74.540001"
         cy="9.1260004"
         r="9.1239996"
         id="circle2155"
         sodipodi:cx="74.540001"
         sodipodi:cy="9.1260004"
         sodipodi:rx="9.1239996"
         sodipodi:ry="9.1239996"
         style="fill:#c90016" />
    </g>
  </g>
</svg>
