<?xml version="1.0" encoding="UTF-8" standalone="no"?>
<!-- Created with Inkscape (http://www.inkscape.org/) -->

<svg
   xmlns:dc="http://purl.org/dc/elements/1.1/"
   xmlns:cc="http://creativecommons.org/ns#"
   xmlns:rdf="http://www.w3.org/1999/02/22-rdf-syntax-ns#"
   xmlns:svg="http://www.w3.org/2000/svg"
   xmlns="http://www.w3.org/2000/svg"
   xmlns:xlink="http://www.w3.org/1999/xlink"
   xmlns:sodipodi="http://sodipodi.sourceforge.net/DTD/sodipodi-0.dtd"
   xmlns:inkscape="http://www.inkscape.org/namespaces/inkscape"
   width="21.940708"
   height="22.006466"
   id="svg12113"
   sodipodi:version="0.32"
   inkscape:version="0.47pre4 r22446"
   version="1.0"
   sodipodi:docname="calc-div.svg">
  <defs
     id="defs12115">
    <inkscape:perspective
       sodipodi:type="inkscape:persp3d"
       inkscape:vp_x="0 : 11.003233 : 1"
       inkscape:vp_y="0 : 1000 : 0"
       inkscape:vp_z="21.940708 : 11.003233 : 1"
       inkscape:persp3d-origin="10.970354 : 7.3354886 : 1"
       id="perspective17" />
    <linearGradient
       id="linearGradient11832">
      <stop
         style="stop-color:white;stop-opacity:1;"
         offset="0"
         id="stop11834" />
      <stop
         style="stop-color:#e6e6e6;stop-opacity:1;"
         offset="1"
         id="stop11836" />
    </linearGradient>
    <linearGradient
       inkscape:collect="always"
       xlink:href="#linearGradient11832"
       id="linearGradient11983"
       gradientUnits="userSpaceOnUse"
       x1="18.082844"
       y1="66.870491"
       x2="18.082844"
       y2="75.735153" />
    <linearGradient
       id="linearGradient11844">
      <stop
         style="stop-color:#757575;stop-opacity:1;"
         offset="0"
         id="stop11846" />
      <stop
         style="stop-color:#606060;stop-opacity:0.08641975;"
         offset="1"
         id="stop11848" />
    </linearGradient>
  </defs>
  <sodipodi:namedview
     id="base"
     pagecolor="#ffffff"
     bordercolor="#666666"
     borderopacity="1.0"
     inkscape:pageopacity="0.0"
     inkscape:pageshadow="2"
     inkscape:zoom="26.219528"
     inkscape:cx="10.970354"
     inkscape:cy="10.987436"
     inkscape:document-units="px"
     inkscape:current-layer="layer1"
     height="1052.36px"
     inkscape:window-width="1440"
     inkscape:window-height="878"
     inkscape:window-x="0"
     inkscape:window-y="0"
     showgrid="false"
     inkscape:window-maximized="1" />
  <metadata
     id="metadata12118">
    <rdf:RDF>
      <cc:Work
         rdf:about="">
        <dc:format>image/svg+xml</dc:format>
        <dc:type
           rdf:resource="http://purl.org/dc/dcmitype/StillImage" />
      </cc:Work>
    </rdf:RDF>
  </metadata>
  <g
     inkscape:label="Calque 1"
     inkscape:groupmode="layer"
     id="layer1"
     transform="translate(-11.88683,-24.2161)">
    <path
       style="fill:none;fill-rule:evenodd;stroke:gray;stroke-width:1.32011592;stroke-linecap:butt;stroke-linejoin:miter;stroke-miterlimit:4;stroke-dasharray:none;stroke-opacity:1"
       d="M 26.144905,34.778797 L 19.105949,34.778797"
       id="path2927" />
    <path
       sodipodi:type="arc"
       style="opacity:1;fill:#6a6a6a;fill-opacity:1;stroke:gray;stroke-width:2;stroke-linejoin:round;stroke-miterlimit:4;stroke-dasharray:none;stroke-opacity:1"
       id="path3038"
       sodipodi:cx="10.373947"
       sodipodi:cy="6.5981026"
       sodipodi:rx="0.30511612"
       sodipodi:ry="0.30511612"
       d="m 10.679063,6.5981026 c 0,0.1685109 -0.136605,0.3051161 -0.305116,0.3051161 -0.168511,0 -0.305116,-0.1366052 -0.305116,-0.3051161 0,-0.168511 0.136605,-0.3051161 0.305116,-0.3051161 0.168511,0 0.305116,0.1366051 0.305116,0.3051161 z"
       transform="matrix(0.800325,0,0,0.800325,14.33631,26.37903)" />
    <path
       sodipodi:type="arc"
       style="opacity:1;fill:#6a6a6a;fill-opacity:1;stroke:gray;stroke-width:2;stroke-linejoin:round;stroke-miterlimit:4;stroke-dasharray:none;stroke-opacity:1"
       id="path3040"
       sodipodi:cx="10.373947"
       sodipodi:cy="6.5981026"
       sodipodi:rx="0.30511612"
       sodipodi:ry="0.30511612"
       d="m 10.679063,6.5981026 c 0,0.1685109 -0.136605,0.3051161 -0.305116,0.3051161 -0.168511,0 -0.305116,-0.1366052 -0.305116,-0.3051161 0,-0.168511 0.136605,-0.3051161 0.305116,-0.3051161 0.168511,0 0.305116,0.1366051 0.305116,0.3051161 z"
       transform="matrix(0.800325,0,0,0.800325,14.3229,32.54487)" />
    <path
       style="fill:#000000;fill-opacity:1"
       d="M 10.51268,8.4356452 C 10.02642,8.2871958 9.7515649,7.9282037 9.7515649,7.4415437 c 0,-0.5829937 0.4322511,-1.0126391 1.0090221,-1.0029385 0.297503,0.005 0.531117,0.1087282 0.728951,0.3236535 0.278683,0.3027591 0.356275,0.7647003 0.185448,1.1040631 C 11.45827,8.296848 10.92064,8.560191 10.51268,8.4356452 z"
       id="path2823"
       transform="translate(11.88683,24.2161)" />
    <path
       style="fill:#000000;fill-opacity:1"
       d="m 7.2326818,10.568984 0,-0.648372 3.5088352,0 3.508835,0 0,0.648372 0,0.648371 -3.508835,0 -3.5088352,0 0,-0.648371 z"
       id="path2825"
       transform="translate(11.88683,24.2161)" />
    <path
       style="fill:#000000;fill-opacity:1"
       d="M 10.300792,14.52124 C 9.9673067,14.365952 9.7117501,13.965457 9.7117501,13.598126 c 0,-0.384482 0.3310509,-0.819806 0.7222519,-0.949742 0.826779,-0.274612 1.608582,0.620218 1.219441,1.395737 -0.252694,0.503594 -0.846212,0.712945 -1.352651,0.477119 z"
       id="path2827"
       transform="translate(11.88683,24.2161)" />
  </g>
</svg>
