<?xml version="1.0" encoding="UTF-8" standalone="no"?>
<!-- Created with Inkscape (http://www.inkscape.org/) -->
<svg
   xmlns:dc="http://purl.org/dc/elements/1.1/"
   xmlns:cc="http://web.resource.org/cc/"
   xmlns:rdf="http://www.w3.org/1999/02/22-rdf-syntax-ns#"
   xmlns:svg="http://www.w3.org/2000/svg"
   xmlns="http://www.w3.org/2000/svg"
   xmlns:xlink="http://www.w3.org/1999/xlink"
   xmlns:sodipodi="http://sodipodi.sourceforge.net/DTD/sodipodi-0.dtd"
   xmlns:inkscape="http://www.inkscape.org/namespaces/inkscape"
   id="svg2537"
   sodipodi:version="0.32"
   inkscape:version="0.45.1"
   width="63"
   height="92"
   version="1.0"
   sodipodi:docbase="/usr/local/share/screenlets/TodayCalendar/themes/Gentoo"
   sodipodi:docname="sticker.svg"
   inkscape:output_extension="org.inkscape.output.svg.inkscape">
  <metadata
     id="metadata2542">
    <rdf:RDF>
      <cc:Work
         rdf:about="">
        <dc:format>image/svg+xml</dc:format>
        <dc:type
           rdf:resource="http://purl.org/dc/dcmitype/StillImage" />
      </cc:Work>
    </rdf:RDF>
  </metadata>
  <defs
     id="defs2540">
    <radialGradient
       r="218.02184"
       fy="590.5899"
       fx="332.72311"
       cy="590.5899"
       cx="332.72311"
       gradientTransform="matrix(-6.60395e-2,4.190266,-3.573754,-5.626827e-2,2168.154,-1171.421)"
       gradientUnits="userSpaceOnUse"
       id="radialGradient3228"
       xlink:href="#linearGradient3004"
       inkscape:collect="always" />
    <radialGradient
       gradientUnits="userSpaceOnUse"
       gradientTransform="matrix(3.287367,0,0,2.519654,111.6891,-642.7214)"
       r="31.94874"
       fy="320.08572"
       fx="49.529819"
       cy="320.08572"
       cx="49.529819"
       id="radialGradient5851"
       xlink:href="#linearGradient3004"
       inkscape:collect="always" />
    <linearGradient
       gradientTransform="matrix(1.237124,0,0,1.237124,-161.0905,-377.3414)"
       gradientUnits="userSpaceOnUse"
       y2="269.70941"
       x2="368.62137"
       y1="697.43707"
       x1="464.01675"
       id="linearGradient2986"
       xlink:href="#linearGradient3004"
       inkscape:collect="always" />
    <linearGradient
       id="linearGradient3004">
      <stop
         style="stop-color:#ffffff;stop-opacity:1;"
         offset="0"
         id="stop3006" />
      <stop
         id="stop7609"
         offset="0.34214258"
         style="stop-color:#ffffff;stop-opacity:1;" />
      <stop
         id="stop7599"
         offset="0.51998252"
         style="stop-color:#bebdf3;stop-opacity:1;" />
      <stop
         style="stop-color:#8f82f9;stop-opacity:1;"
         offset="0.75408828"
         id="stop7611" />
      <stop
         id="stop7613"
         offset="0.8711412"
         style="stop-color:#9f99c7;stop-opacity:1;" />
      <stop
         style="stop-color:#524c76;stop-opacity:1;"
         offset="1"
         id="stop3008" />
    </linearGradient>
    <linearGradient
       gradientTransform="matrix(1.237124,0,0,1.237124,-1037.425,-1010.413)"
       gradientUnits="userSpaceOnUse"
       y2="1340.5599"
       x2="1099.6853"
       y1="-313.5238"
       x1="783.86316"
       id="linearGradient2994"
       xlink:href="#linearGradient3004"
       inkscape:collect="always" />
    <linearGradient
       inkscape:collect="always"
       xlink:href="#linearGradient5721"
       id="linearGradient2589"
       gradientUnits="userSpaceOnUse"
       gradientTransform="matrix(0.8197142,0,0,0.8197142,23.251685,214.36833)"
       x1="43.250000"
       y1="20.000000"
       x2="40.875000"
       y2="28.625000" />
    <linearGradient
       id="linearGradient8716">
      <stop
         id="stop8718"
         offset="0.0000000"
         style="stop-color:#a4bfda;stop-opacity:1.0000000;" />
      <stop
         id="stop8720"
         offset="1.0000000"
         style="stop-color:#387cbf;stop-opacity:1.0000000;" />
    </linearGradient>
    <radialGradient
       inkscape:collect="always"
       xlink:href="#linearGradient8716"
       id="radialGradient2587"
       gradientUnits="userSpaceOnUse"
       gradientTransform="matrix(-0.5812577,0.791239,-0.4891194,-0.3593168,55.206284,216.84704)"
       cx="16.380457"
       cy="17.796696"
       fx="16.380457"
       fy="17.796696"
       r="17.033163" />
    <linearGradient
       id="linearGradient2882">
      <stop
         id="stop2884"
         offset="0.0000000"
         style="stop-color:#f2f9ff;stop-opacity:1.0000000;" />
      <stop
         id="stop2886"
         offset="1.0000000"
         style="stop-color:#91afcb;stop-opacity:1.0000000" />
    </linearGradient>
    <linearGradient
       inkscape:collect="always"
       xlink:href="#linearGradient2882"
       id="linearGradient2585"
       gradientUnits="userSpaceOnUse"
       gradientTransform="matrix(0.8197142,0,0,0.8197142,23.251685,214.36833)"
       x1="21.000000"
       y1="46.714287"
       x2="21.000000"
       y2="5.9534397" />
    <linearGradient
       id="linearGradient5721">
      <stop
         style="stop-color:#9c9c9c;stop-opacity:1.0000000;"
         offset="0.0000000"
         id="stop5723" />
      <stop
         style="stop-color:#000000;stop-opacity:0;"
         offset="1"
         id="stop5725" />
    </linearGradient>
    <radialGradient
       inkscape:collect="always"
       xlink:href="#linearGradient5721"
       id="radialGradient2583"
       gradientUnits="userSpaceOnUse"
       gradientTransform="matrix(0.943831,0,0,0.166667,1.032663,33.81282)"
       cx="18.384777"
       cy="40.575378"
       fx="18.384777"
       fy="40.575378"
       r="21.213203" />
  </defs>
  <sodipodi:namedview
     inkscape:window-height="606"
     inkscape:window-width="816"
     inkscape:pageshadow="2"
     inkscape:pageopacity="0.0"
     guidetolerance="10.0"
     gridtolerance="10.0"
     objecttolerance="10.0"
     borderopacity="1.0"
     bordercolor="#666666"
     pagecolor="#ffffff"
     id="base"
     width="63px"
     height="92px"
     inkscape:zoom="0.35824168"
     inkscape:cx="372.04724"
     inkscape:cy="526.18109"
     inkscape:window-x="678"
     inkscape:window-y="147"
     inkscape:current-layer="svg2537" />
  <g
     id="g3205"
     inkscape:export-filename="/home/peterm/Foto's/afbeeldingen/svg/stickers7.png"
     inkscape:export-xdpi="222"
     inkscape:export-ydpi="222"
     transform="translate(-79.999999,-206)">
    <rect
       inkscape:export-ydpi="430.06262"
       inkscape:export-xdpi="430.06262"
       inkscape:export-filename="/home/peterm/Foto's/afbeeldingen/svg/capsulasvgmandriva.png"
       ry="12.633808"
       rx="30.680298"
       y="207.01733"
       x="80.678398"
       height="90.304268"
       width="61.360596"
       id="rect2352"
       style="fill:#a8a2f5;fill-opacity:1;stroke:#625c87;stroke-width:1.35679841;stroke-miterlimit:4;stroke-dasharray:none;stroke-opacity:1" />
    <path
       inkscape:export-ydpi="430.06262"
       inkscape:export-xdpi="430.06262"
       inkscape:export-filename="/home/peterm/Foto's/afbeeldingen/svg/capsulasvgmandriva.png"
       sodipodi:nodetypes="ccsccc"
       id="path2354"
       d="M 142.03897,270.50384 L 142.03897,284.68779 C 142.03897,291.68692 128.35556,297.32161 111.35868,297.32161 C 94.3618,297.32161 80.67838,291.68692 80.67838,284.68779 L 80.67838,270.50384 L 142.03897,270.50384 z "
       style="fill:#625c87;fill-opacity:1;stroke:#615b86;stroke-width:1.33700001;stroke-miterlimit:4;stroke-dasharray:none;stroke-opacity:1" />
    <path
       inkscape:export-ydpi="430.06262"
       inkscape:export-xdpi="430.06262"
       inkscape:export-filename="/home/peterm/Foto's/afbeeldingen/svg/capsulasvgmandriva.png"
       sodipodi:type="arc"
       style="fill:#ffffff;fill-opacity:1;stroke:none;stroke-width:1.80299997;stroke-miterlimit:4;stroke-dasharray:none;stroke-opacity:1"
       id="path2356"
       sodipodi:cx="191.83774"
       sodipodi:cy="167.93272"
       sodipodi:rx="71.117416"
       sodipodi:ry="71.117416"
       d="M 262.95515 167.93272 A 71.117416 71.117416 0 1 1  120.72032,167.93272 A 71.117416 71.117416 0 1 1  262.95515 167.93272 z"
       transform="matrix(0.3624195,0,0,0.3624195,41.83294,176.25483)" />
    <text
       inkscape:export-ydpi="430.06262"
       inkscape:export-xdpi="430.06262"
       inkscape:export-filename="/home/peterm/Foto's/afbeeldingen/svg/capsulasvgmandriva.png"
       sodipodi:linespacing="125%"
       id="text2358"
       y="267.97723"
       x="84.528221"
       style="font-size:3.39017987px;font-style:normal;font-variant:normal;font-weight:bold;font-stretch:normal;text-align:start;line-height:125%;writing-mode:lr-tb;text-anchor:start;fill:#ffffff;fill-opacity:1;stroke:none;stroke-width:1px;stroke-linecap:butt;stroke-linejoin:miter;stroke-opacity:1;font-family:Bitstream Vera Sans"
       xml:space="preserve"><tspan
         y="267.97723"
         x="84.528221"
         id="tspan2360"
         sodipodi:role="line">Powered By</tspan></text>
    <g
       transform="matrix(6.4818568e-2,0,0,6.4818568e-2,95.0377,216.10112)"
       id="g3076">
      <g
         id="layer2"
         inkscape:label="back"
         style="display:inline"
         sodipodi:insensitive="true"
         transform="translate(-25.69105,-25.5213)">
        <path
           id="path2973"
           style="opacity:1;fill:url(#linearGradient2994);fill-opacity:1;fill-rule:evenodd;stroke:none;stroke-width:4;stroke-linecap:butt;stroke-linejoin:miter;stroke-miterlimit:4;stroke-opacity:1"
           d="M 25.756851,521.91391 C 25.825031,495.65357 48.148853,458.98977 79.868697,425.68116 C 101.06675,403.42137 122.59556,383.88231 169.52585,343.86782 C 137.06358,326.05537 86.575337,304.5643 61.242464,276.41883 C 51.868932,266.00461 34.879101,242.4107 38.174477,210.88878 C 44.890902,146.64282 124.18914,49.142619 236.90525,28.529375 C 274.4094,21.670714 317.46879,26.621594 352.90796,42.554294 C 464.08832,92.538537 600.05593,216.71656 616.78506,277.34922 C 622.67343,298.69087 621.54162,332.70947 611.39031,351.66904 C 598.8089,375.16727 555.25451,422.89399 495.66547,472.14219 C 402.16607,549.41609 271.14445,632.39066 173.31256,646.35271 C 141.70156,650.86406 109.40481,646.15872 86.740094,633.36993 C 51.279241,613.36083 39.508186,586.6468 35.370326,578.63961 C 24.367104,557.34729 25.73287,530.37254 25.756851,521.91391 z M 288.89937,226.87362 C 290.10675,211.9842 348.49263,226.80785 344.80352,238.59909 C 340.91155,251.03875 287.51426,243.95446 288.89937,226.87362 z "
           sodipodi:nodetypes="cscssssssssssscss" />
      </g>
      <g
         id="layer4"
         inkscape:label="mid"
         style="display:inline"
         sodipodi:insensitive="true"
         transform="translate(-25.69105,-25.5213)">
        <path
           id="path2975"
           style="opacity:1;fill:url(#linearGradient2986);fill-opacity:1;fill-rule:evenodd;stroke:none;stroke-width:4;stroke-linecap:butt;stroke-linejoin:miter;stroke-miterlimit:4;stroke-dasharray:none;stroke-opacity:1"
           d="M 201.12502,319.26488 C 170.40092,345.206 149.97273,362.69737 124.3619,386.10521 C 62.686019,442.47585 20.779962,485.38384 42.384986,544.03745 C 67.307886,611.6985 121.94112,608.26771 186.00654,595.69143 C 351.14346,563.12161 622.59855,354.43165 608.76251,277.34931 C 597.56708,214.97818 445.90819,90.975251 356.11423,46.84913 C 328.062,33.063819 295.73224,25.934162 263.30502,27.459889 C 139.83437,33.287522 43.410732,145.70192 48.3364,206.6102 C 53.12843,265.866 202.89233,317.49757 201.12502,319.26488 z M 182.59146,112.40184 C 145.4382,153.73813 169.19273,233.71314 230.80632,277.3046 C 302.90158,328.31181 419.65062,337.54732 442.88372,298.21016 C 486.21887,224.83738 438.90343,147.25466 368.27318,112.64681 C 298.47778,78.448086 205.75091,86.63492 182.59146,112.40184 z "
           sodipodi:nodetypes="csssssssccssss" />
        <path
           id="path4976"
           style="opacity:1;fill:url(#radialGradient5851);fill-opacity:1;fill-rule:evenodd;stroke:none;stroke-width:4;stroke-linecap:butt;stroke-linejoin:miter;stroke-miterlimit:4;stroke-dasharray:none;stroke-opacity:1;display:inline"
           d="M 309.29559,275.57053 C 361.45453,282.82047 406.41278,261.93195 413.44309,210.42711 C 418.79846,171.19341 358.75371,128.32717 322.65314,118.4403 C 292.50683,110.18416 227.05767,120.80064 222.64536,177.81809 C 218.05858,237.09011 278.88214,271.34317 309.29559,275.57053 z M 283.75291,176.98953 C 249.47413,230.09349 333.52318,246.4198 346.39128,236.73513 C 401.86836,194.98252 298.85531,153.59322 283.75291,176.98953 z "
           sodipodi:nodetypes="csssscss" />
      </g>
      <g
         id="layer5"
         inkscape:label="top"
         style="display:inline"
         sodipodi:insensitive="true"
         transform="translate(-25.69105,-25.5213)">
        <path
           style="opacity:1;fill:url(#radialGradient3228);fill-opacity:1;fill-rule:evenodd;stroke:none;stroke-width:4;stroke-linecap:butt;stroke-linejoin:miter;stroke-miterlimit:4;stroke-dasharray:none;stroke-opacity:1"
           d="M 253.35285,41.570018 C 192.71898,47.959829 181.10644,55.76371 126.17687,97.322591 C 107.767,111.25125 73.883463,145.14202 65.201668,185.34831 C 61.895163,200.66106 65.803612,213.8809 76.831852,223.15243 C 112.14485,252.84039 171.24791,276.92638 219.73633,300.20947 C 233.93865,307.02911 224.53507,319.39451 201.63241,339.22199 C 143.84068,389.25385 65.705469,450.15645 60.25071,496.56402 C 57.680295,518.43239 65.166835,548.14722 91.710107,563.35382 C 122.71683,581.11751 187.08224,569.52337 230.06148,553.51882 C 292.86747,530.1312 375.36929,478.51514 440.86776,427.77778 C 508.97789,375.01736 572.3054,308.00452 575.43793,297.07484 C 579.28461,283.65337 578.90118,271.25689 571.47758,257.00416 C 559.81983,234.62227 544.23417,217.99109 527.49924,199.37578 C 482.59667,152.03725 435.087,110.44129 378.2447,78.565883 C 337.19672,55.547464 301.08129,36.540217 253.35285,41.570018 z M 342.42072,147.69946 C 386.22586,168.87809 431.21043,224.50639 342.03037,256.52426 C 317.78022,265.23068 240.87245,235.14204 243.22679,194.08046 C 246.65995,133.42478 288.93402,121.84005 342.42072,147.69946 z "
           id="path2977"
           sodipodi:nodetypes="cssssssssssscsscsss" />
      </g>
    </g>
    <path
       sodipodi:nodetypes="ccsscscccssccssssccsssccccsssccssscccccssscccccsssscsccscsccccccssscccccssssccccssscccccccccccscccssscccccccccssssccsccssscscccsssccsssccccssssccsccssscscccsssccssscc"
       id="text2216"
       d="M 93.616191,274.02859 L 93.586403,284.85072 C 93.586395,286.10035 93.55621,286.90928 93.495852,287.27753 C 93.441513,287.63973 93.239279,288.02308 92.889149,288.42754 C 92.539006,288.83804 92.050023,289.14894 91.422199,289.36024 C 90.800396,289.57757 90.015608,289.68623 89.067829,289.68623 C 87.902714,289.68623 86.967002,289.48701 86.260694,289.08857 C 85.554387,288.69618 85.189154,287.92045 85.16501,286.76138 L 88.714675,286.76138 C 88.714669,287.29262 88.907847,287.55824 89.294209,287.55824 C 89.571898,287.55824 89.756025,287.47674 89.846581,287.31375 C 89.93713,287.15075 89.982405,286.80967 89.982409,286.2905 L 89.982409,285.38498 C 89.668488,285.66871 89.336465,285.88302 88.98633,286.0279 C 88.642225,286.17278 88.280017,286.24523 87.899698,286.24523 C 87.241681,286.24523 86.698367,286.11242 86.269752,285.8468 C 85.847172,285.58117 85.5574,285.23405 85.400447,284.80544 C 85.243489,284.37079 85.16501,283.75503 85.16501,282.95817 L 85.194798,277.02587 C 85.194798,275.88492 85.400047,275.06391 85.810554,274.56284 C 86.221062,274.06179 86.845871,273.81126 87.684995,273.81125 C 88.14379,273.81126 88.560335,273.90484 88.93462,274.09197 C 89.314937,274.27912 89.653001,274.55983 89.948811,274.93411 L 90.211412,274.02859 L 93.616191,274.02859 M 89.948811,277.21604 C 89.948806,276.66669 89.915603,276.31656 89.849206,276.16563 C 89.788828,276.01471 89.649981,275.93925 89.432659,275.93924 C 89.221367,275.93925 89.070448,276.02679 88.979896,276.20185 C 88.895379,276.37088 88.853122,276.70895 88.853126,277.21604 L 88.823338,282.82233 C 88.823333,283.35962 88.856536,283.70976 88.922943,283.87275 C 88.989344,284.02971 89.128193,284.10819 89.339484,284.10819 C 89.580956,284.10819 89.737914,284.0116 89.81036,283.81841 C 89.882795,283.62524 89.919018,283.18757 89.919021,282.5054 L 89.948811,277.21604 M 103.22382,280.24955 L 98.487927,280.24955 L 98.487927,282.84841 C 98.487921,283.39173 98.527164,283.74186 98.605647,283.89882 C 98.684122,284.05578 98.835042,284.13426 99.058407,284.13426 C 99.336101,284.13426 99.52022,284.03163 99.610781,283.82638 C 99.707363,283.61509 99.755657,283.21062 99.755662,282.61297 L 99.755662,281.0283 L 103.22382,281.0283 L 103.22382,281.91572 C 103.22381,282.65826 103.17553,283.22873 103.07894,283.62716 C 102.98838,284.02559 102.77105,284.45119 102.42697,284.90395 C 102.08286,285.35672 101.64519,285.69781 101.11395,285.9272 C 100.58874,286.15057 99.927711,286.26225 99.130852,286.26225 C 98.358131,286.26225 97.675969,286.15057 97.084359,285.9272 C 96.492748,285.70383 96.030931,285.39898 95.698902,285.01262 C 95.372913,284.62022 95.146534,284.19162 95.01976,283.72677 C 94.892985,283.25589 94.829598,282.57374 94.829598,281.68028 L 94.829598,278.17589 C 94.829598,277.1255 94.971463,276.29844 95.255197,275.69475 C 95.538925,275.08504 96.003762,274.62021 96.649706,274.30024 C 97.295647,273.97427 98.038177,273.81126 98.877302,273.81125 C 99.903561,273.81126 100.74871,274.00746 101.41278,274.39985 C 102.08286,274.78622 102.55071,275.30237 102.81635,275.9483 C 103.08799,276.58821 103.22381,277.49072 103.22382,278.65581 L 103.22382,280.24955 M 99.556447,278.29361 L 99.556447,277.41525 C 99.556443,276.79346 99.523239,276.39202 99.456841,276.2109 C 99.390428,276.0298 99.254602,275.93925 99.049353,275.93924 C 98.7958,275.93925 98.638846,276.01773 98.578478,276.17468 C 98.518106,276.32561 98.487921,276.73913 98.487927,277.41525 L 98.487927,278.29361 L 99.556447,278.29361 M 108.1499,274.02859 L 108.08651,275.13333 C 108.35213,274.69265 108.6751,274.36364 109.05542,274.1463 C 109.44176,273.92295 109.88548,273.81126 110.38654,273.81125 C 111.01436,273.81126 111.52749,273.95918 111.92593,274.25496 C 112.32436,274.55078 112.58093,274.92507 112.69564,275.37782 C 112.81033,275.82455 112.86767,276.57312 112.86768,277.62352 L 112.86768,286.04492 L 109.20936,286.04492 L 109.20936,277.72313 C 109.20935,276.89609 109.18219,276.39202 109.12786,276.2109 C 109.07352,276.0298 108.92261,275.93925 108.6751,275.93924 C 108.41551,275.93925 108.25252,276.0449 108.18611,276.25619 C 108.1197,276.46145 108.08651,277.01683 108.08651,277.92234 L 108.08651,286.04492 L 104.42818,286.04492 L 104.42818,274.02859 L 108.1499,274.02859 M 117.99296,272.4258 L 117.99296,274.31835 L 118.97999,274.31835 L 118.97999,276.21995 L 117.99296,276.21995 L 117.99296,282.64919 C 117.99296,283.44002 118.0322,283.88072 118.11068,283.97126 C 118.1952,284.06182 118.53628,284.10709 119.13393,284.10709 L 119.13393,286.04492 L 117.65792,286.04492 C 116.82483,286.04492 116.23021,286.01171 115.87403,285.94531 C 115.51786,285.87286 115.20394,285.71289 114.93229,285.46539 C 114.66062,285.21183 114.49159,284.92509 114.42519,284.60513 C 114.35879,284.27915 114.32558,283.5185 114.32558,282.32321 L 114.32558,276.21995 L 113.53777,276.21995 L 113.53777,274.31835 L 114.32558,274.31835 L 114.32558,272.4258 L 117.99296,272.4258 M 128.06242,278.24834 L 128.06242,281.1913 C 128.06241,282.2719 128.00808,283.06575 127.89942,283.57284 C 127.79075,284.07389 127.55834,284.54477 127.20217,284.98545 C 126.84598,285.4201 126.38719,285.74307 125.82577,285.95437 C 125.27037,286.15962 124.63047,286.26225 123.90605,286.26225 C 123.09711,286.26225 122.41192,286.17472 121.8505,285.99964 C 121.28908,285.81853 120.85141,285.54989 120.53749,285.19373 C 120.22961,284.83152 120.00927,284.39687 119.87646,283.88976 C 119.74365,283.37664 119.67725,282.60995 119.67725,281.58974 L 119.67725,278.51094 C 119.67725,277.39413 119.79797,276.52181 120.03946,275.89397 C 120.28093,275.26615 120.71558,274.76208 121.34341,274.38173 C 121.97125,274.00143 122.77414,273.81126 123.75211,273.81125 C 124.57312,273.81126 125.27641,273.93502 125.862,274.18252 C 126.45359,274.42401 126.90938,274.74094 127.22933,275.13333 C 127.54928,275.52572 127.76661,275.9302 127.88132,276.34673 C 128.00204,276.76328 128.06241,277.39715 128.06242,278.24834 M 124.4041,277.34281 C 124.40409,276.72706 124.37088,276.3407 124.30448,276.18373 C 124.23808,276.02075 124.09621,275.93925 123.87889,275.93924 C 123.66155,275.93925 123.51667,276.02075 123.44423,276.18373 C 123.37179,276.3407 123.33557,276.72706 123.33558,277.34281 L 123.33558,282.76691 C 123.33557,283.33438 123.37179,283.70564 123.44423,283.88071 C 123.51667,284.04975 123.65854,284.13426 123.86983,284.13426 C 124.08715,284.13426 124.22901,284.05578 124.29542,283.89882 C 124.36787,283.74186 124.40409,283.40381 124.4041,282.88464 L 124.4041,277.34281 M 137.55234,278.24834 L 137.55234,281.1913 C 137.55232,282.2719 137.49799,283.06575 137.38935,283.57284 C 137.28067,284.07389 137.04825,284.54477 136.69209,284.98545 C 136.33591,285.4201 135.8771,285.74307 135.31569,285.95437 C 134.76029,286.15962 134.12038,286.26225 133.39598,286.26225 C 132.58703,286.26225 131.90186,286.17472 131.34043,285.99964 C 130.779,285.81853 130.34133,285.54989 130.02741,285.19373 C 129.71954,284.83152 129.49919,284.39687 129.36638,283.88976 C 129.23357,283.37664 129.16716,282.60995 129.16716,281.58974 L 129.16716,278.51094 C 129.16716,277.39413 129.2879,276.52181 129.52937,275.89397 C 129.77084,275.26615 130.20549,274.76208 130.83334,274.38173 C 131.46116,274.00143 132.26406,273.81126 133.24203,273.81125 C 134.06303,273.81126 134.76632,273.93502 135.35191,274.18252 C 135.94352,274.42401 136.3993,274.74094 136.71926,275.13333 C 137.0392,275.52572 137.25652,275.9302 137.37123,276.34673 C 137.49197,276.76328 137.55232,277.39715 137.55234,278.24834 M 133.89401,277.34281 C 133.894,276.72706 133.86081,276.3407 133.79441,276.18373 C 133.72799,276.02075 133.58613,275.93925 133.36881,275.93924 C 133.15148,275.93925 133.00659,276.02075 132.93415,276.18373 C 132.86171,276.3407 132.82548,276.72706 132.82549,277.34281 L 132.82549,282.76691 C 132.82548,283.33438 132.86171,283.70564 132.93415,283.88071 C 133.00659,284.04975 133.14845,284.13426 133.35975,284.13426 C 133.57708,284.13426 133.71895,284.05578 133.78534,283.89882 C 133.85779,283.74186 133.894,283.40381 133.89401,282.88464 L 133.89401,277.34281"
       style="font-size:39.37111664px;font-style:normal;font-variant:normal;font-weight:normal;font-stretch:normal;text-align:start;line-height:125%;writing-mode:lr-tb;text-anchor:start;fill:#ffffff;fill-opacity:1;stroke:none;stroke-width:1px;stroke-linecap:butt;stroke-linejoin:miter;stroke-opacity:1;font-family:Impact" />
  </g>
</svg>
